<svg xmlns="http://www.w3.org/2000/svg" xmlns:xlink="http://www.w3.org/1999/xlink" viewBox="0 0 460.59 435.11"><defs><style>.cls-1{fill:none;}.cls-2{fill:#f5f5f5;}.cls-3{fill:#ebebeb;}.cls-4{fill:#27debf;}.cls-5{opacity:0.2;}.cls-10,.cls-13,.cls-15,.cls-6{fill:#fff;}.cls-7{fill:#37474f;}.cls-8{fill:#263238;}.cls-9{fill:#455a64;}.cls-10{opacity:0.8;}.cls-11{fill:#e0e0e0;}.cls-12{fill:#fafafa;}.cls-13{opacity:0.5;}.cls-14{opacity:0.1;}.cls-15{opacity:0.4;}.cls-16{clip-path:url(#clip-path);}.cls-17{fill:#ffa8a7;}.cls-18{opacity:0.3;}.cls-19{fill:#f28f8f;}</style><clipPath id="clip-path"><path id="_Clipping_Path_" data-name="&lt;Clipping Path&gt;" class="cls-1" d="M339.66,286.39a22.32,22.32,0,0,1-12.22-3.34l-.17-.11-.34-.19c-7.81-5.31-12.11-16.2-12.11-30.68,0-18,6.73-39.12,18.48-58,10.2-16.48,23.27-29.87,36.82-37.7,8-4.59,15.73-7,22.47-7a23.15,23.15,0,0,1,9.93,2.09l.36.21.17.09c9.11,4.61,14.33,16.25,14.33,31.94,0,35.2-24.8,78.16-55.29,95.75C354.15,284,346.4,286.39,339.66,286.39Z"/></clipPath></defs><title>customer_managment</title><g id="Layer_2" data-name="Layer 2"><g id="Floor"><path id="Floor-2" data-name="Floor" class="cls-2" d="M393.14,208.13c89.94,51.92,89.94,136.11,0,188s-235.75,51.92-325.69,0-89.94-136.11,0-188S303.2,156.21,393.14,208.13Z"/></g><g id="Clouds"><g id="Clouds-2" data-name="Clouds"><path id="_Path_" data-name="&lt;Path&gt;" class="cls-3" d="M101.26,20.55,93,25.33a10,10,0,0,0,.07-1.1v-2.4c0-4.27-3-6-6.69-3.86a12.94,12.94,0,0,0-4,3.83c-.6-5.36-4.81-7.36-9.92-4.41-5.53,3.19-10,10.95-10,17.33v3.59a9.44,9.44,0,0,0,.85,4.15l-6.87,4a8.2,8.2,0,0,0-3.71,6.43c0,2.37,1.66,3.32,3.71,2.14l44.83-25.88A8.2,8.2,0,0,0,105,22.69C105,20.32,103.31,19.37,101.26,20.55Z"/><path id="_Path_2" data-name="&lt;Path&gt;" class="cls-3" d="M136.66,44.65l-6.24,3.6a7.52,7.52,0,0,0,.05-.83V45.62c0-3.22-2.26-4.52-5-2.91a9.76,9.76,0,0,0-3,2.89c-.46-4-3.63-5.56-7.49-3.33a16.69,16.69,0,0,0-7.55,13.08v2.71a7.13,7.13,0,0,0,.64,3.13l-5.19,3A6.19,6.19,0,0,0,100,69c0,1.79,1.25,2.51,2.8,1.62l33.83-19.53a6.19,6.19,0,0,0,2.8-4.85C139.46,44.48,138.21,43.76,136.66,44.65Z"/></g></g><g id="Plants"><g id="Plants-2" data-name="Plants"><g id="_Group_" data-name="&lt;Group&gt;"><path id="_Path_3" data-name="&lt;Path&gt;" class="cls-4" d="M83.91,348l10.32-6s2.53-22.11.85-39.23c-2.36-24.06-17.9-53-36.44-46.21s8.5,31.3,14.52,51.71S83.91,348,83.91,348Z"/><path id="_Path_4" data-name="&lt;Path&gt;" class="cls-5" d="M83.91,348l10.32-6s2.53-22.11.85-39.23c-2.36-24.06-17.9-53-36.44-46.21s8.5,31.3,14.52,51.71S83.91,348,83.91,348Z"/><path id="_Path_5" data-name="&lt;Path&gt;" class="cls-6" d="M89.34,345.49h0a.63.63,0,0,1-.6-.65c1.81-53.46-24.8-80.36-25.07-80.62a.62.62,0,1,1,.88-.89c.27.27,27.27,27.55,25.44,81.56A.63.63,0,0,1,89.34,345.49Z"/></g><g id="_Group_2" data-name="&lt;Group&gt;"><path id="_Path_6" data-name="&lt;Path&gt;" class="cls-4" d="M78.4,352.26,85.75,348s1.25-15.17-6.19-33.6c-6.48-16-22.54-29.36-30.63-26.56S41.05,296.39,45,302.4,72.9,322.74,78.4,352.26Z"/><path id="_Path_7" data-name="&lt;Path&gt;" class="cls-6" d="M82.28,350.65h0a.63.63,0,0,1-.62-.63c.15-33.8-31.59-56.65-31.92-56.88a.62.62,0,1,1,.72-1c.33.23,32.59,23.46,32.44,57.9A.63.63,0,0,1,82.28,350.65Z"/></g></g></g><g id="Device"><g id="Device-2" data-name="Device"><g id="_Group_3" data-name="&lt;Group&gt;"><g id="_Group_4" data-name="&lt;Group&gt;"><path id="_Path_8" data-name="&lt;Path&gt;" class="cls-7" d="M276.72,305.27l-64,37-.15-.08-24.33-14.05a13.13,13.13,0,0,1-5.9-12.92l9-46.92,64-37-9,46.92a13.13,13.13,0,0,0,5.9,12.92Z"/><polygon id="_Path_9" data-name="&lt;Path&gt;" class="cls-8" points="191.35 268.28 182.4 314.8 246.42 277.84 254.69 234.82 250.66 234.02 191.35 268.28"/><path id="_Path_10" data-name="&lt;Path&gt;" class="cls-8" d="M212.71,342.26l-24.49-14.14a13.13,13.13,0,0,1-5.9-12.91l9-46.93-10.68-6.16L170.36,315.8c-1.36,7.1,2.64,15.86,8.9,19.48l33.45,19.31Z"/><polygon id="_Path_11" data-name="&lt;Path&gt;" class="cls-9" points="276.73 305.27 212.71 342.26 212.71 354.59 276.73 317.6 276.73 305.27"/></g><g id="_Group_5" data-name="&lt;Group&gt;"><path id="_Path_12" data-name="&lt;Path&gt;" class="cls-9" d="M339.35,1.22c2.95,1.7,5.34,6,5.34,9.65V207.33a12.58,12.58,0,0,1-5.69,9.86L94.12,358.57c-3.14,1.81-8.08,1.91-11,.2s-5.34-6-5.34-9.65V152.66a12.58,12.58,0,0,1,5.69-9.86L328.32,1.42C331.47-.39,336.41-.48,339.35,1.22Z"/><path id="_Path_13" data-name="&lt;Path&gt;" class="cls-8" d="M93.45,358.91c-3.14,1.47-7.61,1.44-10.36-.14-3-1.7-5.34-6-5.34-9.65V152.66a11.67,11.67,0,0,1,1.67-5.61l10.68,6.17a11.61,11.61,0,0,0-1.67,5.6V355.28C88.43,358.65,90.62,360.16,93.45,358.91Z"/><path id="_Path_14" data-name="&lt;Path&gt;" class="cls-7" d="M344.69,207.33V10.87c0-3.63-2.55-5.1-5.69-3.29L94.12,149a12.58,12.58,0,0,0-5.69,9.86V355.28c0,3.63,2.55,5.1,5.69,3.29L339,217.19A12.58,12.58,0,0,0,344.69,207.33Z"/><path id="_Path_15" data-name="&lt;Path&gt;" class="cls-4" d="M332.19,17.62,98.32,152.71a10.06,10.06,0,0,0-4.55,7.89V335c0,2.9,2,4.08,4.55,2.63L332.19,202.56a10.06,10.06,0,0,0,4.55-7.89V20.24C336.74,17.34,334.71,16.16,332.19,17.62Z"/><path id="_Path_16" data-name="&lt;Path&gt;" class="cls-10" d="M332.19,17.62,98.32,152.71a10.06,10.06,0,0,0-4.55,7.89V335c0,2.9,2,4.08,4.55,2.63L332.19,202.56a10.06,10.06,0,0,0,4.55-7.89V20.24C336.74,17.34,334.71,16.16,332.19,17.62Z"/><g id="Window"><g id="_Group_6" data-name="&lt;Group&gt;"><path class="cls-2" d="M110.44,316.2c-1.24,0-2-1-2-2.7V175.36L322.06,52V189.59a9.38,9.38,0,0,1-4.24,7.34L112.19,315.65A3.62,3.62,0,0,1,110.44,316.2Z"/><path class="cls-11" d="M321.56,52.9v136.7a9,9,0,0,1-4,6.9L111.94,315.22a3.13,3.13,0,0,1-1.5.48c-1.34,0-1.48-1.54-1.48-2.2V175.64L321.56,52.9m1-1.73L108,175.07V313.5c0,2,1,3.2,2.48,3.2a4.07,4.07,0,0,0,2-.61L318.07,197.36a9.91,9.91,0,0,0,4.49-7.77V51.17Z"/></g><g id="_Group_7" data-name="&lt;Group&gt;"><polygon id="_Path_17" data-name="&lt;Path&gt;" class="cls-4" points="107.95 175.07 107.95 194.49 322.56 70.59 322.56 51.17 107.95 175.07"/><path id="_Path_18" data-name="&lt;Path&gt;" class="cls-12" d="M242.61,104.94v4.18c0,.85.61,1.2,1.35.78l66-38.09V64.52l-66,38.09A3,3,0,0,0,242.61,104.94Z"/><path id="_Path_19" data-name="&lt;Path&gt;" class="cls-9" d="M317,60.43c.74-.43,1.35-.08,1.35.78v4.18A3,3,0,0,1,317,67.72l-7.07,4.08V64.52Z"/><path id="_Compound_Path_" data-name="&lt;Compound Path&gt;" class="cls-12" d="M316.48,66.17l-.79-.25a4.34,4.34,0,0,0,.13-1,1.86,1.86,0,0,0-.72-1.68,1.12,1.12,0,0,0-1.15.06,4,4,0,0,0-1.58,3.28,1.86,1.86,0,0,0,.72,1.68,1,1,0,0,0,.5.13,1.3,1.3,0,0,0,.65-.19,3.32,3.32,0,0,0,1.27-1.71l.79.25h.09a.29.29,0,0,0,.09-.57ZM314,67.68a.54.54,0,0,1-.56.06,1.37,1.37,0,0,1-.43-1.18,3.52,3.52,0,0,1,1.28-2.77.73.73,0,0,1,.35-.11.41.41,0,0,1,.21.06,1.37,1.37,0,0,1,.43,1.18A3.52,3.52,0,0,1,314,67.68Z"/><path id="_Path_20" data-name="&lt;Path&gt;" class="cls-7" d="M108,165.67a9.91,9.91,0,0,1,4.49-7.77L318.07,39.18c2.48-1.43,4.49-.27,4.49,2.59v9.4L108,175.07Z"/><g id="_Group_8" data-name="&lt;Group&gt;"><g id="_Group_9" data-name="&lt;Group&gt;"><path id="_Path_21" data-name="&lt;Path&gt;" class="cls-4" d="M297.31,56a4.65,4.65,0,0,0-2.1,3.64c0,1.34.94,1.89,2.1,1.22a4.65,4.65,0,0,0,2.1-3.64C299.42,55.89,298.47,55.34,297.31,56Z"/><path id="_Path_22" data-name="&lt;Path&gt;" class="cls-4" d="M304.67,51.77a4.65,4.65,0,0,0-2.1,3.64c0,1.34.94,1.89,2.1,1.22a4.65,4.65,0,0,0,2.1-3.64C306.78,51.65,305.84,51.1,304.67,51.77Z"/><path id="_Path_23" data-name="&lt;Path&gt;" class="cls-4" d="M312,47.53a4.65,4.65,0,0,0-2.1,3.64c0,1.34.94,1.89,2.1,1.22a4.65,4.65,0,0,0,2.1-3.64C314.14,47.4,313.2,46.86,312,47.53Z"/></g></g></g></g></g></g><g id="_Group_10" data-name="&lt;Group&gt;"><g id="_Group_11" data-name="&lt;Group&gt;"><path id="_Path_24" data-name="&lt;Path&gt;" class="cls-4" d="M202,179.63l26.43-15.26c1.67-1,3-.18,3,1.75v30.52a6.7,6.7,0,0,1-3,5.25L202,217.16c-1.67,1-3,.18-3-1.75V184.88A6.7,6.7,0,0,1,202,179.63Z"/><path id="_Path_25" data-name="&lt;Path&gt;" class="cls-9" d="M209.3,217.65l16-9.23c1.2-.69,2.16-.2,2.16,1.1a4.64,4.64,0,0,1-2.17,3.59l-16,9.23c-1.2.69-2.16.2-2.16-1.1A4.64,4.64,0,0,1,209.3,217.65Z"/><g id="_Group_12" data-name="&lt;Group&gt;"><path id="_Path_26" data-name="&lt;Path&gt;" class="cls-12" d="M215,178.51c2.8-1.62,5.08-.31,5.08,2.93a11.22,11.22,0,0,1-5.08,8.79c-2.8,1.62-5.08.31-5.08-2.93A11.22,11.22,0,0,1,215,178.51Z"/><path id="_Path_27" data-name="&lt;Path&gt;" class="cls-12" d="M225,195.83c0-5.32-3.73-7.68-8.34-5l-2.88,1.66c-4.61,2.66-8.34,9.13-8.34,14.45v1.43L225,197.06Z"/></g></g><g id="_Group_13" data-name="&lt;Group&gt;"><path id="_Path_28" data-name="&lt;Path&gt;" class="cls-4" d="M250.81,151.45l26.43-15.26c1.67-1,3-.18,3,1.75v30.52a6.7,6.7,0,0,1-3,5.25L250.81,189c-1.67,1-3,.18-3-1.75V156.7A6.7,6.7,0,0,1,250.81,151.45Z"/><path id="_Path_29" data-name="&lt;Path&gt;" class="cls-5" d="M250.81,151.45l26.43-15.26c1.67-1,3-.18,3,1.75v30.52a6.7,6.7,0,0,1-3,5.25L250.81,189c-1.67,1-3,.18-3-1.75V156.7A6.7,6.7,0,0,1,250.81,151.45Z"/><path id="_Path_30" data-name="&lt;Path&gt;" class="cls-9" d="M258.07,189.47l16-9.23c1.2-.69,2.16-.2,2.16,1.1a4.64,4.64,0,0,1-2.17,3.59l-16,9.23c-1.2.69-2.16.2-2.16-1.1A4.64,4.64,0,0,1,258.07,189.47Z"/><g id="_Group_14" data-name="&lt;Group&gt;"><path id="_Path_31" data-name="&lt;Path&gt;" class="cls-12" d="M263.8,150.33c2.8-1.62,5.08-.31,5.08,2.93a11.22,11.22,0,0,1-5.08,8.79c-2.8,1.62-5.08.31-5.08-2.93A11.22,11.22,0,0,1,263.8,150.33Z"/><path id="_Path_32" data-name="&lt;Path&gt;" class="cls-12" d="M273.81,167.65c0-5.32-3.73-7.68-8.34-5l-2.88,1.66c-4.61,2.66-8.34,9.13-8.34,14.45v1.43l19.56-11.29Z"/></g></g><g id="_Group_15" data-name="&lt;Group&gt;"><g id="_Group_16" data-name="&lt;Group&gt;"><path id="_Path_33" data-name="&lt;Path&gt;" class="cls-4" d="M153.32,207.74l26.43-15.26c1.67-1,3-.18,3,1.75v30.52a6.7,6.7,0,0,1-3,5.25l-26.43,15.26c-1.67,1-3,.18-3-1.75V213A6.7,6.7,0,0,1,153.32,207.74Z"/></g><path id="_Path_34" data-name="&lt;Path&gt;" class="cls-13" d="M153.32,207.74l26.43-15.26c1.67-1,3-.18,3,1.75v30.52a6.7,6.7,0,0,1-3,5.25l-26.43,15.26c-1.67,1-3,.18-3-1.75V213A6.7,6.7,0,0,1,153.32,207.74Z"/><path id="_Path_35" data-name="&lt;Path&gt;" class="cls-9" d="M160.58,245.77l16-9.23c1.2-.69,2.16-.2,2.16,1.09a4.64,4.64,0,0,1-2.17,3.59l-16,9.23c-1.2.69-2.16.2-2.16-1.1A4.64,4.64,0,0,1,160.58,245.77Z"/><g id="_Group_17" data-name="&lt;Group&gt;"><path id="_Path_36" data-name="&lt;Path&gt;" class="cls-12" d="M166.31,206.63c2.8-1.62,5.08-.31,5.08,2.93a11.22,11.22,0,0,1-5.08,8.79c-2.8,1.62-5.08.31-5.08-2.93A11.22,11.22,0,0,1,166.31,206.63Z"/><path id="_Path_37" data-name="&lt;Path&gt;" class="cls-12" d="M176.32,223.94c0-5.32-3.73-7.68-8.34-5l-2.88,1.66c-4.61,2.66-8.34,9.13-8.34,14.45v1.43l19.56-11.29Z"/></g></g></g></g></g><g id="User"><g id="_Group_18" data-name="&lt;Group&gt;"><g id="_Group_19" data-name="&lt;Group&gt;"><g id="_Group_20" data-name="&lt;Group&gt;"><g id="_Group_21" data-name="&lt;Group&gt;"><g id="_Group_22" data-name="&lt;Group&gt;"><g id="_Group_23" data-name="&lt;Group&gt;"><path id="_Path_38" data-name="&lt;Path&gt;" class="cls-4" d="M406.81,144.54l-10.62-6.12c-10.71-6-25.39-5.15-41.66,4.24-15.22,8.77-29.1,23.41-39.56,40.34-12.09,19.5-19.7,42.09-19.7,62.32,0,18.88,6.61,32.12,17.3,38.33l10.73,6.15c10.8,6.88,26,6.27,43-3.49,32.74-18.9,59.28-64.87,59.29-102.68C425.53,163.95,418.33,150.38,406.81,144.54Z"/><g id="_Group_24" data-name="&lt;Group&gt;"><path id="_Path_39" data-name="&lt;Path&gt;" class="cls-14" d="M322.87,289.55l-10.31-5.9c-10.69-6.2-17.29-19.46-17.29-38.33,0-20.24,7.6-42.81,19.7-62.31l11.67,6.8c-12.1,19.5-19.68,42-19.68,62.26C307,270.12,313,283,322.87,289.55Z"/><path id="_Path_40" data-name="&lt;Path&gt;" class="cls-15" d="M406.38,144.29c-10.56-5.12-24.65-3.82-40.12,5.1-15.23,8.81-29.12,23.46-39.61,40.41L315,183c10.47-17,24.36-31.58,39.56-40.35,16.26-9.39,31-10.29,41.67-4.25Z"/></g></g></g></g><g id="_Group_25" data-name="&lt;Group&gt;"><g id="_Group_26" data-name="&lt;Group&gt;"><g id="_Group_27" data-name="&lt;Group&gt;"><path id="_Path_41" data-name="&lt;Path&gt;" class="cls-12" d="M339.66,286.39a22.32,22.32,0,0,1-12.22-3.34l-.17-.11-.34-.19c-7.81-5.31-12.11-16.2-12.11-30.68,0-18,6.73-39.12,18.48-58,10.2-16.48,23.27-29.87,36.82-37.7,8-4.59,15.73-7,22.47-7a23.15,23.15,0,0,1,9.93,2.09l.36.21.17.09c9.11,4.61,14.33,16.25,14.33,31.94,0,35.2-24.8,78.16-55.29,95.75C354.15,284,346.4,286.39,339.66,286.39Z"/></g></g></g></g><g id="_Clip_Group_" data-name="&lt;Clip Group&gt;"><g class="cls-16"><g id="_Group_28" data-name="&lt;Group&gt;"><path id="_Path_42" data-name="&lt;Path&gt;" class="cls-8" d="M368.85,229.4h0c-15.09,4-27.32-4.91-27.32-20v-9.67c0-12.79,10.37-25.94,23.16-29.36l8.33-2.23c12.79-3.43,23.16,4.16,23.16,17v9.67C396.17,209.84,383.94,225.36,368.85,229.4Z"/><g id="_Group_29" data-name="&lt;Group&gt;"><path id="_Path_43" data-name="&lt;Path&gt;" class="cls-17" d="M327.16,322.89c.1-1.6,2.65-19.1,4.41-29l17.12,1.47-6.24,36.09-11.23-.73C326.7,330.91,327.06,324.49,327.16,322.89Z"/><polygon id="_Path_44" data-name="&lt;Path&gt;" class="cls-17" points="406 267.52 418.06 305.27 402.98 313.53 393.94 278.02 406 267.52"/><path id="_Path_45" data-name="&lt;Path&gt;" class="cls-4" d="M379.6,235.19c8-2.06,16.87-1.05,19.91,5.4S409.2,270,409.2,270a28.08,28.08,0,0,1-17,10.79Z"/><path id="_Path_46" data-name="&lt;Path&gt;" class="cls-18" d="M379.6,235.19c8-2.06,16.87-1.05,19.91,5.4S409.2,270,409.2,270a28.08,28.08,0,0,1-17,10.79Z"/><path id="_Path_47" data-name="&lt;Path&gt;" class="cls-2" d="M363,240l-6.68,2.1c-7.27,4-9.89,10.43-12.95,18.69a28.24,28.24,0,0,0-.58,18.33l8.51,26.14s-4,12.19-8.61,23.93c21.35,8,48-6.34,54.43-18.1.27-2.2-.1-11.7.42-22.77.55-11.8,1.94-25.32.35-32.1-2.95-12.58-8.46-23.65-19.44-20.7Z"/><path id="_Path_48" data-name="&lt;Path&gt;" class="cls-4" d="M356.3,242.08c-7.29,3.14-18,7.7-21.67,28.69-3.74,21.27-4.46,26.29-4.46,26.29s6.37,5.63,18.46,2.33C348.63,299.39,359.29,256.73,356.3,242.08Z"/><path id="_Path_49" data-name="&lt;Path&gt;" class="cls-18" d="M356.3,242.08c-7.29,3.14-18,7.7-21.67,28.69-3.74,21.27-4.46,26.29-4.46,26.29s6.37,5.63,18.46,2.33C348.63,299.39,359.29,256.73,356.3,242.08Z"/><path id="_Path_50" data-name="&lt;Path&gt;" class="cls-8" d="M345,270.39h0c8.55-2.29,15.48-11.08,15.48-19.63V223.27h0C351.88,225.56,345,234.35,345,242.9Z"/><path id="_Path_51" data-name="&lt;Path&gt;" class="cls-11" d="M349,298.06c1.34-5.67,2.77-12.12,4.1-19,0,0-.05,14.22-2.16,25Z"/></g><g id="_Group_30" data-name="&lt;Group&gt;"><path id="_Path_52" data-name="&lt;Path&gt;" class="cls-17" d="M387.19,177.09c2.89,1.2,6.45,8.62,6.1,26.29-.3,15-4.48,19.77-6.58,21.39s-6.15,2.06-10.08,2.36v8.94s5.44,5.84,5.1,10-7.85,7.17-12.94,4.53a24.74,24.74,0,0,1-8.35-7.86V221.17s-2.66,4.81-7,2.64-4.51-10.37-2-14,8-4.16,9-.34c0,0,6.28-1.42,14.64-9A37.9,37.9,0,0,0,387.19,177.09Z"/><path id="_Path_53" data-name="&lt;Path&gt;" class="cls-8" d="M378.9,203.5a2.52,2.52,0,0,1-1.54,2.44c-.89.29-1.66-.34-1.7-1.4a2.52,2.52,0,0,1,1.54-2.44C378.09,201.81,378.85,202.44,378.9,203.5Z"/><path id="_Path_54" data-name="&lt;Path&gt;" class="cls-19" d="M379.33,216l3.77.38a2.62,2.62,0,0,1-2.45,2.22C379.61,218.5,379,217.33,379.33,216Z"/><path id="_Path_55" data-name="&lt;Path&gt;" class="cls-8" d="M392.19,194.18l-3.28-1.75c.6-1.24,1.82-1.86,2.73-1.38S392.79,192.94,392.19,194.18Z"/><path id="_Path_56" data-name="&lt;Path&gt;" class="cls-8" d="M391.44,198.78a2.52,2.52,0,0,1-1.54,2.44c-.89.29-1.66-.34-1.7-1.4a2.52,2.52,0,0,1,1.54-2.44C390.63,197.1,391.39,197.72,391.44,198.78Z"/><polygon id="_Path_57" data-name="&lt;Path&gt;" class="cls-19" points="383.79 199.76 384.04 210.96 389.18 207.75 383.79 199.76"/><path id="_Path_58" data-name="&lt;Path&gt;" class="cls-19" d="M376.63,227.13c-4.15.48-12.68-.06-14-3.6a7.4,7.4,0,0,0,3,4.17c2.55,1.84,11,2.41,11,2.41Z"/></g></g></g></g></g><g id="_Group_31" data-name="&lt;Group&gt;"><g id="_Group_32" data-name="&lt;Group&gt;"><g id="_Group_33" data-name="&lt;Group&gt;"><g id="_Group_34" data-name="&lt;Group&gt;"><path id="_Path_59" data-name="&lt;Path&gt;" class="cls-7" d="M351.69,268l-8.17-4.71h0l-.08-.05v0c-4.06-2.29-9.63-2-15.8,1.61-5.77,3.33-11,8.88-15,15.3-4.59,7.4-7.47,16-7.47,23.63,0,7.16,2.5,12.18,6.56,14.54h0l8.29,4.74c4.1,2.61,9.88,2.38,16.29-1.32,12.41-7.17,22.48-24.6,22.48-38.93C358.79,275.39,356.06,270.24,351.69,268Z"/><path class="cls-6" d="M345.74,285.68a1.35,1.35,0,0,1,.77.49,1.41,1.41,0,0,1,.29.88,13.81,13.81,0,0,1-1.48,6.63,17.12,17.12,0,0,1-4.7,5.89,16.6,16.6,0,0,1-6.66,3.37,12.84,12.84,0,0,1-6.62,0,1.35,1.35,0,0,1-.77-.49,1.41,1.41,0,0,1-.29-.88,13.81,13.81,0,0,1,1.48-6.63,17.12,17.12,0,0,1,4.7-5.89,16.6,16.6,0,0,1,6.66-3.37A12.84,12.84,0,0,1,345.74,285.68Zm-6.19,12.52a14.65,14.65,0,0,0,4-5,12,12,0,0,0,1.29-5.67,10.93,10.93,0,0,0-3.45-.34,12.85,12.85,0,0,0-3.67.77,4.15,4.15,0,0,1,3.68,4.05,6.07,6.07,0,0,1-.62,2.82,7,7,0,0,1-1.95,2.45,6.78,6.78,0,0,1-2.77,1.39,5.64,5.64,0,0,1-2.81,0,4,4,0,0,1-2.15-1.42,4.22,4.22,0,0,1-.86-2.28,1.74,1.74,0,0,0,1.45.67,2.66,2.66,0,0,0,1.73-.64,2.78,2.78,0,0,0,1-1.59,1.84,1.84,0,0,0-.3-1.6,1.71,1.71,0,0,0-1.42-.67,14.67,14.67,0,0,0-3.4,4.73,11.81,11.81,0,0,0-1.09,5.23,11.17,11.17,0,0,0,5.67,0A14.2,14.2,0,0,0,339.56,298.2Z"/><g id="_Group_35" data-name="&lt;Group&gt;"><path id="_Path_60" data-name="&lt;Path&gt;" class="cls-8" d="M319.85,323l-8.13-4.65h0c-4.05-2.35-6.56-7.38-6.56-14.54,0-7.68,2.88-16.23,7.47-23.63l8.68,5c-4.59,7.39-7.46,15.94-7.46,23.61C313.82,315.65,316.11,320.54,319.85,323Z"/><path id="_Path_61" data-name="&lt;Path&gt;" class="cls-9" d="M351.52,267.94c-4-1.94-9.35-1.45-15.21,1.93s-11,8.9-15,15.32l-8.68-5c4-6.43,9.24-12,15-15.3,6.17-3.56,11.74-3.9,15.8-1.61v0l.08.05h0Z"/></g></g></g></g></g></g></g></g></svg>