<svg xmlns="http://www.w3.org/2000/svg" viewBox="0 0 500 372.61"><defs><style>.cls-1{fill:#ebebeb;}.cls-2{fill:#e6e6e6;}.cls-3{fill:#f0f0f0;}.cls-4{fill:#f5f5f5;}.cls-5{fill:#fff;}.cls-6{fill:#fafafa;}.cls-7{fill:#ff8b7b;}.cls-8{opacity:0.2;}.cls-9{fill:#263238;}.cls-10,.cls-11{fill:#1e3769;}.cls-11{opacity:0.6;}.cls-12{opacity:0.3;}.cls-13{fill:#191b48;}.cls-14,.cls-17{fill:#407bff;}.cls-15{fill:#ff5652;}.cls-16{opacity:0.1;}.cls-17{opacity:0.4;}.cls-18{fill:#b55b52;}.cls-19{fill:#a02724;}.cls-20{fill:#1e1e1e;}</style></defs><title>in_between_transfert</title><g id="Layer_2" data-name="Layer 2"><g id="Background_Complete" data-name="Background Complete"><rect class="cls-1" y="327.45" width="500" height="0.25"/><rect class="cls-1" x="416.78" y="343.54" width="33.12" height="0.25"/><rect class="cls-1" x="322.53" y="346.26" width="8.69" height="0.25"/><rect class="cls-1" x="396.59" y="334.26" width="19.19" height="0.25"/><rect class="cls-1" x="52.46" y="335.94" width="43.19" height="0.25"/><rect class="cls-1" x="104.56" y="335.94" width="6.33" height="0.25"/><rect class="cls-1" x="131.47" y="340.16" width="93.68" height="0.25"/><path class="cls-1" d="M237,282.85H43.92a5.71,5.71,0,0,1-5.71-5.71V5.71A5.71,5.71,0,0,1,43.92,0H237a5.71,5.71,0,0,1,5.71,5.71V277.14A5.71,5.71,0,0,1,237,282.85ZM43.92.25a5.46,5.46,0,0,0-5.46,5.46V277.14a5.46,5.46,0,0,0,5.46,5.46H237a5.46,5.46,0,0,0,5.46-5.46V5.71A5.46,5.46,0,0,0,237,.25Z"/><path class="cls-1" d="M453.31,282.85H260.21a5.71,5.71,0,0,1-5.71-5.71V5.71A5.71,5.71,0,0,1,260.21,0h193.1A5.71,5.71,0,0,1,459,5.71V277.14A5.71,5.71,0,0,1,453.31,282.85ZM260.21.25a5.46,5.46,0,0,0-5.46,5.46V277.14a5.46,5.46,0,0,0,5.46,5.46h193.1a5.46,5.46,0,0,0,5.46-5.46V5.71A5.46,5.46,0,0,0,453.31.25Z"/><rect class="cls-2" x="358.99" y="75.06" width="14.17" height="44.11"/><polygon class="cls-3" points="411.57 119.17 364.55 119.17 357.45 67.54 404.47 67.54 411.57 119.17"/><polygon class="cls-4" points="416.66 119.17 368.1 119.17 361 67.54 409.56 67.54 416.66 119.17"/><polygon class="cls-5" points="371.61 115.1 365.63 71.61 406.05 71.61 412.04 115.1 371.61 115.1"/><path class="cls-4" d="M379.6,101.93l-2.25-16.33a3,3,0,0,1,3-3.46h14.69a3,3,0,0,1,3,2.63l2.25,16.33a3,3,0,0,1-3,3.46H382.61A3,3,0,0,1,379.6,101.93Z"/><rect class="cls-2" x="73.16" y="26.73" width="211.79" height="130.65"/><rect class="cls-3" x="75.7" y="26.73" width="214.69" height="130.65"/><rect class="cls-2" x="73.16" y="157.38" width="211.79" height="10.11"/><rect class="cls-3" x="84.76" y="157.38" width="214.69" height="10.11"/><rect class="cls-6" x="125.33" y="-7.67" width="115.42" height="199.45" transform="translate(275.1 -90.98) rotate(90)"/><polygon class="cls-5" points="97.96 149.77 142.67 34.35 163.77 34.35 119.06 149.77 97.96 149.77"/><polygon class="cls-5" points="123.6 149.77 168.31 34.35 176.53 34.35 131.82 149.77 123.6 149.77"/><polygon class="cls-5" points="201.82 149.77 246.53 34.35 254.75 34.35 210.05 149.77 201.82 149.77"/><rect class="cls-2" x="224.57" y="91.57" width="115.42" height="0.97" transform="translate(374.34 -190.23) rotate(90)"/><rect class="cls-2" x="400.66" y="119.17" width="44.84" height="208.28"/><polygon class="cls-3" points="440.99 327.45 445.5 327.45 445.5 314.62 436.26 314.62 440.99 327.45"/><rect class="cls-2" x="322.09" y="119.17" width="44.84" height="208.28"/><rect class="cls-3" x="362.99" y="119.17" width="82.51" height="200.41"/><polygon class="cls-3" points="367.5 327.45 362.99 327.45 362.99 314.62 372.23 314.62 367.5 327.45"/><rect class="cls-2" x="366.49" y="122.84" width="75.51" height="94.54"/><path class="cls-3" d="M412.42,130.2H396.07a25.87,25.87,0,0,1-18.78-8.08H431.2A25.87,25.87,0,0,1,412.42,130.2Z"/><rect class="cls-2" x="366.49" y="221.21" width="75.51" height="94.54"/><path class="cls-3" d="M412.42,228.56H396.07a25.87,25.87,0,0,1-18.78-8.08H431.2A25.87,25.87,0,0,1,412.42,228.56Z"/><polygon class="cls-2" points="129.5 184.94 204.12 184.94 214.94 229 140.31 229 129.5 184.94"/><polygon class="cls-2" points="140.31 229 140.62 231.44 215.24 231.44 214.94 229 140.31 229"/><polygon class="cls-3" points="131.8 184.94 206.42 184.94 217.24 229 142.61 229 131.8 184.94"/><polygon class="cls-5" points="144.19 226.99 134.36 186.95 204.84 186.95 214.67 226.99 144.19 226.99"/><polygon class="cls-3" points="162.06 229 162.36 231.44 244.53 231.44 244.23 229 162.06 229"/><rect class="cls-2" x="254.34" y="231.44" width="8.94" height="96"/><rect class="cls-3" x="259.9" y="231.44" width="6.21" height="96"/><rect class="cls-3" x="152.82" y="231.44" width="115.21" height="10.99" transform="translate(420.86 473.86) rotate(180)"/><rect class="cls-2" x="139.88" y="242.43" width="8.94" height="85.01"/><rect class="cls-3" x="145.43" y="242.43" width="6.21" height="85.01"/><rect class="cls-2" x="83.29" y="242.43" width="8.94" height="85.01"/><rect class="cls-3" x="88.85" y="242.43" width="6.21" height="85.01"/><rect class="cls-2" x="197.76" y="242.43" width="8.94" height="85.01"/><rect class="cls-3" x="203.31" y="242.43" width="6.21" height="85.01"/><rect class="cls-2" x="83.29" y="231.44" width="69.53" height="10.99"/><path class="cls-3" d="M292.34,327.45h-2.18l-6.22-30.64-1.09-5.37L276.07,258h-26L236,327.45H233.8l14.36-70.68a1.06,1.06,0,0,1,1-.85h27.74a1.05,1.05,0,0,1,1,.85l6,29.33,1.09,5.36Z"/><path class="cls-3" d="M334.09,327.45h-2.18L317.81,258h-26L285,291.45l-1.08,5.35-6.22,30.64h-2.18l7.31-36,1.08-5.34,6-29.33a1.07,1.07,0,0,1,1-.85h27.74a1.06,1.06,0,0,1,1,.85Z"/><path class="cls-3" d="M270,257h47.78c9.12,0,14.18-6.2,16.75-16.42l1.27-5.84a12,12,0,0,0-11.69-14.81h-30c-6.21,0-7.84,1.48-12.13,10.82Z"/><path class="cls-3" d="M242.75,247.82h50.92a2.39,2.39,0,0,1,2.39,2.39v.22a6.54,6.54,0,0,1-6.54,6.54H242.75a0,0,0,0,1,0,0v-9.16A0,0,0,0,1,242.75,247.82Z" transform="translate(538.8 504.8) rotate(-180)"/></g><g id="Shadow"><ellipse id="_Path_" data-name="&lt;Path&gt;" class="cls-4" cx="250" cy="361.29" rx="193.89" ry="11.32"/></g><g id="Character_Female" data-name="Character Female"><polygon class="cls-7" points="203.03 329.3 196.63 333.42 185.03 319.93 191.43 315.81 203.03 329.3"/><polygon class="cls-8" points="191.44 315.81 185.03 319.93 191.02 326.88 197.42 322.76 191.44 315.81"/><polygon class="cls-7" points="154.12 351.3 146.76 352.02 139.11 334.52 146.47 333.8 154.12 351.3"/><polygon class="cls-8" points="139.12 334.52 143.06 343.55 150.73 343.55 146.47 333.81 139.12 334.52"/><path class="cls-9" d="M98.23,115.05c-3.7.34-3.8-5.94-10.3-3-8.26,3.76-5.47,9.59-11.92,9.34S65.24,126.2,66.68,130s3.67,7.29-.89,8.8-7.67,2.84-7,6.62,3.89,5.3-1.56,7.71-4.89,12.83.44,12.84.22,5.21,5,10.48,12.05,6,15.08,3.4,6.41-4.76,12.11-.76,15.34,5,14.91-1.33-6-10.5-.76-13.81,12-4.93,9.87-11.34c-1.35-4-5.43-7.48-2.13-10.48,5.35-4.86,5.38-15.86-1.18-18.65C106.77,121.83,110.44,113.94,98.23,115.05Z"/><path class="cls-7" d="M91.11,164.46a85.34,85.34,0,0,1-1,8.49c-.47,2.78-1.08,5.55-1.8,8.3a63,63,0,0,1-2.72,8.16c-.54,1.34-1.16,2.67-1.82,4-.33.66-.69,1.31-1.06,2-.18.32-.38.64-.57,1l-.29.48a6.93,6.93,0,0,1-.65.88,5.83,5.83,0,0,1-2,1.47,6.17,6.17,0,0,1-2.16.55,8.5,8.5,0,0,1-3.24-.44,19.51,19.51,0,0,1-4.4-2.16,54.09,54.09,0,0,1-6.83-5.29,114.57,114.57,0,0,1-11.46-12.07l2.8-2.64c2,1.76,4,3.55,6.1,5.25s4.13,3.4,6.25,5a52.61,52.61,0,0,0,6.4,4.23,13.05,13.05,0,0,0,3,1.23,1.94,1.94,0,0,0,.78.07s-.06,0-.2,0a1.25,1.25,0,0,0-.36.24l0,.05s0,.07,0,0l.22-.4c.14-.27.3-.53.43-.81.28-.55.55-1.11.8-1.68.51-1.14,1-2.31,1.4-3.51.84-2.4,1.54-4.88,2.16-7.4s1.09-5.09,1.5-7.68.75-5.25,1-7.7Z"/><path class="cls-10" d="M96.92,165.41c-.4,2.42-2.41,7-4,10.4-1.18,2.46-2.14,4.31-2.14,4.31l-1.4-.62-11.59-5.16c.88-6.25,2.31-13.05,9.2-16.07C91.29,156.37,97.63,161.09,96.92,165.41Z"/><path class="cls-11" d="M96.92,165.41c-.4,2.42-2.41,7-4,10.4-1.18,2.46-2.14,4.31-2.14,4.31l-1.4-.62-11.59-5.16c.88-6.25,2.31-13.05,9.2-16.07C91.29,156.37,97.63,161.09,96.92,165.41Z"/><path class="cls-12" d="M92.89,175.81c-1.18,2.46-2.14,4.31-2.14,4.31l-1.4-.62c.19-2.47.68-6.36,2-8.11A11,11,0,0,1,92.89,175.81Z"/><path class="cls-7" d="M54.37,179.34l.92-6.73-7.56,2.48s1.21,4.08,3.9,5.74Z"/><polygon class="cls-7" points="51.87 166.86 46.6 169.75 47.74 175.09 55.29 172.61 51.87 166.86"/><path class="cls-9" d="M194.27,331.4l6.95-5a.6.6,0,0,1,.8.07l4.73,4.93a1.22,1.22,0,0,1-.2,1.81c-2.45,1.7-3.72,2.39-6.78,4.58-1.88,1.35-5.84,4.61-8.44,6.47s-4.58-.61-3.66-1.61c4.1-4.52,5.19-7.6,5.84-10.14A2,2,0,0,1,194.27,331.4Z"/><path class="cls-9" d="M145.79,349.75h9a.75.75,0,0,1,.71.55l2,7.14a1.12,1.12,0,0,1-1.1,1.43c-3.18,0-4.69,0-8.66,0H135.6c-3.3,0-4-3.34-2.62-3.64,6.12-1.35,9.65-3.22,11.54-5A1.85,1.85,0,0,1,145.79,349.75Z"/><path class="cls-10" d="M132.05,192.51l-29.47,9.32c-20.4-40.38-17.49-42.52-17.49-42.52s4.71-2.69,9.61-4.93c.74-.34,1.49-.67,2.23-1a98.39,98.39,0,0,1,13.38-4.24c.67-.18,1.34-.34,2-.5a94,94,0,0,1,11-1.81c.44,5.59.88,10.32,1.36,14.43.62,5.36,1.29,9.65,2,13.36A116.71,116.71,0,0,0,132.05,192.51Z"/><path class="cls-11" d="M132.05,192.51l-29.47,9.32c-20.4-40.38-17.49-42.52-17.49-42.52s4.71-2.69,9.61-4.93c.74-.34,1.49-.67,2.23-1a98.39,98.39,0,0,1,13.38-4.24c.67-.18,1.34-.34,2-.5a94,94,0,0,1,11-1.81c.44,5.59.88,10.32,1.36,14.43.62,5.36,1.29,9.65,2,13.36A116.71,116.71,0,0,0,132.05,192.51Z"/><path class="cls-12" d="M126.75,174.64c-2.83-4-5.54-13.31-4.84-16.8l2.8,3.44C125.33,166.64,126,170.93,126.75,174.64Z"/><path class="cls-5" d="M103.63,166.85s7.44-1.61,9.83,1.61c3.28-3.22,2.12-15.85.54-20.35a19.57,19.57,0,0,0-3.67,1l-5.25,8.12Z"/><path class="cls-5" d="M103.63,166.85s-5,1.12-5.53,5.21c-7-5.21-6.51-12.84-4.93-17.34a17.9,17.9,0,0,1,3.76-1.32l5.25,5.77Z"/><path class="cls-7" d="M105.34,140.64c1,3.68,2.52,7.32,5,8.52,0,0,2.31,6.62-6.69,17.69-9.42-6.71-6.69-13.45-6.69-13.45,4.44-2.67,3.19-6.19,1.29-9.27l2.61-4.19A2.48,2.48,0,0,1,105.34,140.64Z"/><path class="cls-8" d="M105.34,140.64a2.48,2.48,0,0,0-4.51-.7l-.84,1.34h0c.07.89.11,1.62.1,2-.08,2.6,3.57,2.48,6.54,1.23A26.32,26.32,0,0,1,105.34,140.64Z"/><path class="cls-7" d="M87.25,130.58c2.6,7.09,3.54,10.15,8.3,12.77,7.15,3.94,15.3-.79,14.87-8.52-.38-7-4.56-17.39-12.49-18.16A10.3,10.3,0,0,0,87.25,130.58Z"/><path class="cls-9" d="M105.64,119.93c-2.43-2.35-5-5.08-9.9-4.55-5.42.59-7.56,3.87-7.56,3.87l-4.66,10.19s2.89,13.12,7.66,7c2.74-3.53,2.86-8.87,1.79-12.88a32.6,32.6,0,0,0,5.52-1.28c2.2.82,4.67.83,6.5-.86.4-.37.69-.66.9-.88l.16-.19C106.63,119.64,106.18,119.71,105.64,119.93ZM99.34,122a50.17,50.17,0,0,1,5.2-1.39A5.12,5.12,0,0,1,99.34,122Z"/><path class="cls-7" d="M87.61,137.79A5.52,5.52,0,0,0,91,140.33c1.88.47,2.77-1.22,2.2-3-.51-1.57-2.1-3.71-4-3.41A2.48,2.48,0,0,0,87.61,137.79Z"/><path class="cls-13" d="M102.58,201.83s-1,60.4,6.89,82.22c7.6,20.92,30.27,56.88,30.27,56.88l13.14-.34S132,295.06,128.59,277.05c-5.68-29.87-4.42-82-4.42-82Z"/><path class="cls-12" d="M114.38,207l3.53-10,6.25-2s-.57,23.73.8,48.34C119.29,232.47,114.38,212.47,114.38,207Z"/><polygon class="cls-9" points="137.89 341.61 154.12 341.2 153.18 336.21 135.46 337.05 137.89 341.61"/><path class="cls-13" d="M109,199.88s20.49,46.9,33.74,73.58c10.7,21.56,44,50.48,44,50.48l9.13-6.33s-25.05-34.26-32.44-48.87c-23.65-46.79-17.82-66.07-31.42-76.23Z"/><polygon class="cls-9" points="187.29 326.97 198.01 319.34 195.58 314.66 183.8 323.57 187.29 326.97"/><path class="cls-9" d="M131.95,190.64l2.16,2.22c.17.17,0,.46-.35.57l-30.91,9.78c-.27.08-.53,0-.6-.14l-1.1-2.55c-.08-.18.11-.4.4-.5l29.84-9.44A.56.56,0,0,1,131.95,190.64Z"/><path class="cls-14" d="M129,195.25l.8-.25c.16-.05.25-.17.21-.27l-1.46-3.31c0-.1-.21-.13-.37-.08l-.8.25c-.16.05-.25.17-.21.27l1.46,3.31C128.67,195.26,128.83,195.3,129,195.25Z"/><path class="cls-14" d="M105.19,202.78l.8-.25c.16-.05.25-.17.21-.27l-1.46-3.31c0-.1-.21-.13-.37-.08l-.8.25c-.16.05-.25.17-.21.27l1.46,3.31C104.87,202.79,105,202.83,105.19,202.78Z"/><path class="cls-14" d="M117.09,199l.8-.25c.16-.05.25-.17.21-.27l-1.46-3.31c0-.1-.21-.13-.37-.08l-.8.25c-.16.05-.25.17-.21.27l1.46,3.31C116.77,199,116.93,199.06,117.09,199Z"/><ellipse class="cls-9" cx="100.39" cy="128.82" rx="0.73" ry="1.11" transform="translate(-32.59 34.01) rotate(-16.58)"/><ellipse class="cls-9" cx="107.04" cy="126.84" rx="0.73" ry="1.11" transform="translate(-31.74 35.81) rotate(-16.58)"/><path class="cls-9" d="M106.56,125.86l1.29-.83S107.46,126.35,106.56,125.86Z"/><path class="cls-15" d="M104.68,128.57a16.4,16.4,0,0,0,3.22,3.13,2.64,2.64,0,0,1-2,1Z"/><path class="cls-9" d="M103.92,135.94a.18.18,0,0,0-.17-.31,4.87,4.87,0,0,1-4.34-.69.18.18,0,0,0-.25,0,.18.18,0,0,0,0,.25,5.14,5.14,0,0,0,4.68.76Z"/><path class="cls-9" d="M97.18,127.41a.36.36,0,0,0,.11-.15,2.87,2.87,0,0,1,1.87-1.81.36.36,0,1,0-.16-.7A3.58,3.58,0,0,0,96.61,127a.36.36,0,0,0,.57.4Z"/><path class="cls-9" d="M108.37,123.28l0-.06a.36.36,0,0,0-.29-.42,3.58,3.58,0,0,0-3.18.86.36.36,0,0,0,.52.5,2.86,2.86,0,0,1,2.52-.65A.36.36,0,0,0,108.37,123.28Z"/><path class="cls-7" d="M127.83,153.9c1.19.9,2.19,1.72,3.23,2.63s2,1.8,3,2.73q2.93,2.82,5.61,5.91a65.24,65.24,0,0,1,5,6.53c.4.56.75,1.17,1.12,1.75s.74,1.17,1.07,1.79.68,1.18,1,1.86l.53,1.11.43,1.12a26.4,26.4,0,0,1,1.27,8.8,48,48,0,0,1-.89,8.26,78.59,78.59,0,0,1-2,7.85,74.59,74.59,0,0,1-2.82,7.54l-3.62-1.34c.62-2.4,1.21-4.92,1.65-7.41a73.32,73.32,0,0,0,1.07-7.46,48.49,48.49,0,0,0,.16-7.3,28.86,28.86,0,0,0-.42-3.44,18.54,18.54,0,0,0-.91-3.08l-.3-.69-.35-.63c-.27-.46-.63-1-.94-1.51s-.66-1-1-1.51-.69-1-1.07-1.48c-1.46-2-3.1-3.82-4.75-5.67s-3.44-3.59-5.27-5.29c-.9-.86-1.83-1.7-2.77-2.51s-1.92-1.64-2.79-2.34Z"/><path class="cls-7" d="M141.92,208l-5.48,4,7,3.7s2.09-3.7,1.41-6.79Z"/><polygon class="cls-7" points="134.71 218.53 140.44 220.31 143.49 215.77 136.44 212.07 134.71 218.53"/><path class="cls-10" d="M123.35,146.85c3.83-.17,11.36,9.24,11.36,9.24l-7.82,11.06s-8.78-7-9.46-11.87C116.86,151.12,118.47,147.07,123.35,146.85Z"/><path class="cls-11" d="M123.35,146.85c3.83-.17,11.36,9.24,11.36,9.24l-7.82,11.06s-8.78-7-9.46-11.87C116.86,151.12,118.47,147.07,123.35,146.85Z"/><path class="cls-14" d="M191.64,334.53h-.12a1,1,0,0,1-.8-.6.61.61,0,0,1,0-.62c.49-.84,3.23-1,3.55-1a.18.18,0,0,1,.14.3C193.77,333.34,192.58,334.53,191.64,334.53Zm2.2-1.83c-1.1.09-2.56.34-2.81.78a.26.26,0,0,0,0,.27.68.68,0,0,0,.52.41C192.08,334.23,192.92,333.68,193.84,332.7Z"/><path class="cls-14" d="M194.08,332.68c-.92,0-2.74-.51-3.07-1.25a.63.63,0,0,1,.2-.76.94.94,0,0,1,.76-.25c1.1.11,2.38,1.89,2.44,2a.18.18,0,0,1-.13.28Zm-2.22-1.9a.57.57,0,0,0-.4.16c-.17.16-.15.27-.12.35.22.49,1.64,1,2.56,1-.46-.57-1.31-1.47-2-1.54Z"/><path class="cls-14" d="M141.78,351.24a3,3,0,0,1-1.76-.42,1.12,1.12,0,0,1-.46-.87.52.52,0,0,1,.23-.49c.82-.55,3.89.84,4.5,1.13a.18.18,0,0,1,0,.34A12,12,0,0,1,141.78,351.24Zm-1.44-1.56a.65.65,0,0,0-.35.08.17.17,0,0,0-.07.17.77.77,0,0,0,.32.6c.53.4,1.78.45,3.39.15A11.2,11.2,0,0,0,140.35,349.68Z"/><path class="cls-14" d="M144.21,350.93h-.07c-1-.42-3.07-2.06-3-2.92,0-.19.15-.42.62-.48,1.8-.21,2.55,3,2.59,3.19a.18.18,0,0,1-.18.22ZM142,347.87h-.12c-.19,0-.29.08-.3.17-.07.49,1.35,1.8,2.39,2.37C143.7,349.63,143,347.87,142,347.87Z"/><path class="cls-9" d="M99.91,127.84l1.29-.83S100.81,128.33,99.91,127.84Z"/></g><g id="Account"><path d="M288.63,54.71H143.3a11.36,11.36,0,0,0-11.42,12L145.5,349.29a12.76,12.76,0,0,0,12.58,12H303.41a11.36,11.36,0,0,0,11.42-12L301.21,66.71A12.76,12.76,0,0,0,288.63,54.71Z"/><path class="cls-13" d="M294,54.71H148.63a11.36,11.36,0,0,0-11.42,12l13.62,282.57a12.76,12.76,0,0,0,12.58,12H308.74a11.36,11.36,0,0,0,11.42-12L306.54,66.71A12.76,12.76,0,0,0,294,54.71Z"/><path class="cls-10" d="M163,353.29a4.3,4.3,0,0,1-4.19-4L145.21,66.71a3.82,3.82,0,0,1,3.81-4H294.35a4.3,4.3,0,0,1,4.19,4l13.62,282.57a3.83,3.83,0,0,1-3.81,4Z"/><path class="cls-16" d="M162.93,351.29a2.18,2.18,0,0,1-2.1-2L147.21,66.71a1.94,1.94,0,0,1,1.9-2H294.44a2.18,2.18,0,0,1,2.1,2l13.62,282.57a1.94,1.94,0,0,1-1.9,2Z"/><g class="cls-12"><path class="cls-6" d="M206.79,335H178a3.12,3.12,0,0,1-3.08-2.93l-2.11-43.71a2.82,2.82,0,0,1,2.84-3h28.83a3.12,3.12,0,0,1,3.08,2.93L209.63,332a2.82,2.82,0,0,1-2.84,3Zm-31.18-48.63a1.82,1.82,0,0,0-1.84,1.93L175.88,332a2.1,2.1,0,0,0,2.08,2h28.83a1.82,1.82,0,0,0,1.84-1.93l-2.11-43.71a2.1,2.1,0,0,0-2.08-2Z"/><path class="cls-6" d="M204.07,296.57H177a.5.5,0,1,1,0-1h27.11a.5.5,0,0,1,0,1Z"/><path class="cls-6" d="M204.35,302.22H177.24a.5.5,0,0,1,0-1h27.11a.5.5,0,1,1,0,1Z"/><path class="cls-6" d="M204.62,307.87H177.51a.5.5,0,0,1,0-1h27.11a.5.5,0,0,1,0,1Z"/><path class="cls-6" d="M204.89,313.52H177.79a.5.5,0,1,1,0-1h27.11a.5.5,0,0,1,0,1Z"/><path class="cls-6" d="M205.16,319.16H178.06a.5.5,0,0,1,0-1h27.11a.5.5,0,0,1,0,1Z"/><path class="cls-6" d="M199.88,324.81H178.33a.5.5,0,0,1,0-1h21.55a.5.5,0,0,1,0,1Z"/></g><g class="cls-12"><path class="cls-6" d="M224.94,174.68l-19.77,3.16a22.65,22.65,0,0,0-3-5.28,14.28,14.28,0,0,0-4.13-3l.75,15.49q16.49,4.34,22.18,9.17a22.26,22.26,0,0,1,8,16.45,21.8,21.8,0,0,1-2.08,10.72,24.36,24.36,0,0,1-6.25,8.15,25.17,25.17,0,0,1-8.37,4.74,41.25,41.25,0,0,1-11.06,1.74l.13,2.72a3.69,3.69,0,0,1-3.72,3.91h0a4.15,4.15,0,0,1-4.1-3.91l-.13-2.72a50.7,50.7,0,0,1-12.9-2.54,27.52,27.52,0,0,1-8.71-5.11,26.86,26.86,0,0,1-5.83-7,34.39,34.39,0,0,1-3.33-9.13l21.51-2.52q1.22,5.3,3,7.66a14.53,14.53,0,0,0,5.58,4.18l-.91-18.92a105.17,105.17,0,0,1-15.59-5.2,21.79,21.79,0,0,1-8.19-7,21.24,21.24,0,0,1-3.89-11.82,20.24,20.24,0,0,1,5.9-15.94q6.36-6.4,19.5-7.1l-.07-1.39a3.69,3.69,0,0,1,3.72-3.91h0a4.15,4.15,0,0,1,4.1,3.91l.07,1.39q12,.75,18.62,5.68A24.28,24.28,0,0,1,224.94,174.68Zm-34.69-5.36a9.43,9.43,0,0,0-4.63,2.8,5.84,5.84,0,0,0-1.15,3.93,6.81,6.81,0,0,0,1.56,4.12,10.7,10.7,0,0,0,4.89,2.93Zm10.36,52.75q4.5-1,6.51-3.36a7.27,7.27,0,0,0,1.86-5.24,7.4,7.4,0,0,0-2-4.65q-1.89-2.12-7.18-3.94Z"/></g><path class="cls-8" d="M277.2,91.6h-99l9.65,200.11a32.39,32.39,0,0,0,32,30.54h99l-9.65-200.11A32.39,32.39,0,0,0,277.2,91.6Z"/><path class="cls-6" d="M301.45,91.6H178.23a32.39,32.39,0,0,1,32,30.54L218.1,285a32.39,32.39,0,0,0,32,30.54h62.13A28.83,28.83,0,0,0,341.32,285l-7.85-162.89A32.39,32.39,0,0,0,301.45,91.6Z"/><path class="cls-2" d="M279.19,285a28.83,28.83,0,0,1-29.07,30.54H373.33A28.83,28.83,0,0,0,402.4,285Z"/><path class="cls-14" d="M300.26,143.75a25.83,25.83,0,0,1-26,27.36,29,29,0,0,1-28.68-27.36,25.83,25.83,0,0,1,26-27.36A29,29,0,0,1,300.26,143.75Z"/><path class="cls-5" d="M295.48,143.75a21.73,21.73,0,0,1-2.21,10.76A21.28,21.28,0,0,1,274,166.33a23.88,23.88,0,0,1-20.42-11.82,23.25,23.25,0,0,1-3.25-10.76,21.31,21.31,0,0,1,21.49-22.58A23.94,23.94,0,0,1,295.48,143.75Z"/><path class="cls-17" d="M293.27,154.51A21.28,21.28,0,0,1,274,166.33a23.88,23.88,0,0,1-20.42-11.82,34.23,34.23,0,0,1,19.56-6A37,37,0,0,1,293.27,154.51Z"/><path class="cls-17" d="M282.58,136A9.49,9.49,0,0,1,273,146.08,10.67,10.67,0,0,1,262.47,136,9.49,9.49,0,0,1,272,126,10.67,10.67,0,0,1,282.58,136Z"/><g class="cls-12"><path class="cls-13" d="M297.42,194.25l-12.53,2a14.36,14.36,0,0,0-1.88-3.34,9.05,9.05,0,0,0-2.62-1.88l.47,9.82q10.45,2.75,14.06,5.81A14.11,14.11,0,0,1,300,217.08a13.82,13.82,0,0,1-1.32,6.8,15.44,15.44,0,0,1-4,5.16,16,16,0,0,1-5.3,3,26.15,26.15,0,0,1-7,1.1l.08,1.73a2.34,2.34,0,0,1-2.36,2.48h0a2.63,2.63,0,0,1-2.6-2.48l-.08-1.73a32.14,32.14,0,0,1-8.17-1.61,17.45,17.45,0,0,1-5.52-3.24,17,17,0,0,1-3.7-4.46A21.8,21.8,0,0,1,258,218l13.64-1.6a13.53,13.53,0,0,0,1.88,4.85A9.21,9.21,0,0,0,277,224l-.58-12a66.67,66.67,0,0,1-9.89-3.3,13.81,13.81,0,0,1-5.19-4.47,13.46,13.46,0,0,1-2.47-7.49,12.83,12.83,0,0,1,3.74-10.11q4-4.06,12.36-4.5l0-.88a2.34,2.34,0,0,1,2.36-2.48h0a2.63,2.63,0,0,1,2.6,2.48l0,.88q7.63.48,11.8,3.6A15.39,15.39,0,0,1,297.42,194.25Zm-22-3.39a6,6,0,0,0-2.94,1.77,3.7,3.7,0,0,0-.73,2.49,4.32,4.32,0,0,0,1,2.61,6.79,6.79,0,0,0,3.1,1.86ZM282,224.29a7.43,7.43,0,0,0,4.12-2.13,4.61,4.61,0,0,0,1.18-3.32A4.69,4.69,0,0,0,286,215.9a11,11,0,0,0-4.55-2.5Z"/></g></g><g id="Character_Male" data-name="Character Male"><polygon class="cls-18" points="356.76 353.78 349.42 353.78 348.68 336.77 356.03 336.77 356.76 353.78"/><polygon class="cls-8" points="348.69 336.78 349.06 345.55 356.41 345.55 356.03 336.78 348.69 336.78"/><polygon class="cls-18" points="419.29 333.85 412.31 336.13 403.52 321.09 410.51 318.82 419.29 333.85"/><polygon class="cls-8" points="410.51 318.82 403.52 321.1 408.06 328.85 415.04 326.57 410.51 318.82"/><path class="cls-18" d="M381.6,108c.91,1.11,1.69,2.11,2.47,3.19s1.54,2.13,2.29,3.21q2.23,3.25,4.23,6.68a75.11,75.11,0,0,1,6.74,14.72l.16.5.08.26.11.41.2.82.11.75a14.85,14.85,0,0,1,.11,2.71,27.08,27.08,0,0,1-.66,4.53,52.55,52.55,0,0,1-2.51,7.81,90.57,90.57,0,0,1-7.15,14l-5-2.39c1.5-4.68,3-9.49,4.1-14.16a55.81,55.81,0,0,0,1.29-6.84,17.3,17.3,0,0,0,.11-3,5.39,5.39,0,0,0-.15-1.06l0-.18-.05-.09,0,0-.08-.18-.17-.39-.67-1.57-.75-1.56c-.5-1-1-2.08-1.6-3.12-1.13-2.07-2.37-4.12-3.64-6.15s-2.64-4-4-6-2.85-4-4.21-5.8Z"/><path class="cls-18" d="M383.23,163.92l-2.87,6.35h8.22s1.31-4.82-1.67-6.77Z"/><polygon class="cls-18" points="381.32 177.42 388.94 175.94 388.57 170.28 380.36 170.28 381.32 177.42"/><ellipse class="cls-9" cx="344.52" cy="75.74" rx="0.7" ry="1.07"/><path class="cls-19" d="M345,76.81a21.21,21.21,0,0,1-2.83,5.07,3.42,3.42,0,0,0,2.83.53Z"/><path class="cls-9" d="M347.32,72.46a.35.35,0,0,1-.2-.07,2.77,2.77,0,0,0-2.47-.45.35.35,0,0,1-.25-.65,3.45,3.45,0,0,1,3.13.54.35.35,0,0,1-.2.63Z"/><path class="cls-18" d="M364.35,82.57c-1.05,5.37-2.11,15.22,1.65,18.81,0,0-1.47,5.45-11.46,5.45-11,0-5.25-5.45-5.25-5.45,6-1.43,5.84-5.88,4.79-10.05Z"/><path class="cls-9" d="M367.44,103.25c.79-1.73,1.65-3.7-.14-4.32-2-.68-12.77-1.37-16.49-.1a3.84,3.84,0,0,0-2.67,4.78Z"/><path class="cls-10" d="M410.8,337.87c-.54.52-1.15.94-1.61.87a.71.71,0,0,1-.57-.6.81.81,0,0,1,.11-.67c.6-.93,3-1.32,3.13-1.34a.17.17,0,0,1,.17.27A9.27,9.27,0,0,1,410.8,337.87Zm-1.63-.38a.94.94,0,0,0-.14.16.47.47,0,0,0-.07.39c.08.32.23.34.28.35.51.08,1.6-1,2.27-1.84A5.73,5.73,0,0,0,409.17,337.5Z"/><path class="cls-10" d="M412,336.43l-.07,0c-.83.23-3,.08-3.46-.62a.57.57,0,0,1,.09-.71,1,1,0,0,1,.69-.35c1.1-.09,2.69,1.32,2.76,1.38a.17.17,0,0,1,0,.26Zm-3.13-1.13-.05.06c-.14.18-.09.26-.06.3.27.41,1.79.64,2.73.54a4.19,4.19,0,0,0-2.22-1.06A.62.62,0,0,0,408.89,335.3Z"/><path class="cls-10" d="M346.46,354.16c-.94,0-1.85-.13-2.16-.55a.66.66,0,0,1,0-.76.87.87,0,0,1,.55-.41c1.22-.33,3.79,1.13,3.9,1.19a.17.17,0,0,1-.05.32A12.89,12.89,0,0,1,346.46,354.16Zm-1.16-1.42a1.29,1.29,0,0,0-.34,0,.52.52,0,0,0-.34.24c-.12.22-.08.32,0,.38.34.47,2.2.49,3.56.29A7.86,7.86,0,0,0,345.3,352.74Z"/><path class="cls-10" d="M348.68,354l-.07,0c-.89-.4-2.64-2-2.51-2.82,0-.2.17-.44.65-.49a1.27,1.27,0,0,1,1,.3c.93.77,1.13,2.75,1.14,2.83a.17.17,0,0,1-.17.19Zm-1.79-3h-.1c-.31,0-.33.16-.34.2-.08.5,1.11,1.75,2,2.29a4.09,4.09,0,0,0-1-2.27A.93.93,0,0,0,346.89,351Z"/><path class="cls-9" d="M411.7,335.31l6-5.7a.64.64,0,0,1,.8-.07l5.56,3.72a1.08,1.08,0,0,1,.13,1.69c-2.12,2-3.24,2.8-5.87,5.31-1.61,1.54-6.44,6.8-8.67,8.93s-4.63.21-3.91-.87c3.23-4.81,5.26-9.42,5.44-11.85A1.78,1.78,0,0,1,411.7,335.31Z"/><path class="cls-9" d="M349.46,352.93h8a.64.64,0,0,1,.63.5l1.45,6.53a1.07,1.07,0,0,1-1.06,1.31c-2.89,0-7.08-.22-10.71-.22-4.25,0-7.93.23-12.91.23-3,0-3.85-3-2.59-3.33,5.75-1.26,10.44-1.39,15.41-4.45A3.4,3.4,0,0,1,349.46,352.93Z"/><path class="cls-18" d="M339,118.07c-2.91,4.29-5.93,8.31-9.17,12.29a138.14,138.14,0,0,1-10.4,11.47L318,143.2l-.36.34-.26.24-.37.32a10.23,10.23,0,0,1-1.51,1,13.46,13.46,0,0,1-5.45,1.53,30.5,30.5,0,0,1-8.66-.71,65.67,65.67,0,0,1-14.85-5.22l1.83-5.2a117.51,117.51,0,0,0,14.19,1.94,26,26,0,0,0,6.27-.26,4,4,0,0,0,1.66-.65s0-.06,0-.06h0s0,0,0,0l.07-.08.3-.33,1.18-1.3c3.13-3.56,6.15-7.36,9.1-11.24s5.89-7.86,8.7-11.74Z"/><path class="cls-10" d="M379.16,103c6.89,1.58,14.78,20.35,14.78,20.35l-13.83,9.48A116.26,116.26,0,0,1,371,117.34C366.9,108.75,372.12,101.43,379.16,103Z"/><path class="cls-12" d="M374.22,115l6.54,17.41-.65.45s-2.83-4-5.89-9.33Z"/><path class="cls-10" d="M338,103.42s-7.82,8.83-.44,63.5h39.29c.27-6-3.52-35.46,2.3-63.88A102.49,102.49,0,0,0,366,101.38a144.26,144.26,0,0,0-16.7,0A73.74,73.74,0,0,0,338,103.42Z"/><path class="cls-12" d="M342.36,119.22A34.86,34.86,0,0,1,334.6,136c-.16-3.52-.22-6.68-.21-9.51Z"/><path class="cls-10" d="M345.75,109.38c1,7-12.74,24.73-12.74,24.73l-13.77-9.48s3.82-9.79,10.25-16.21C336.84,101.09,344.7,101.8,345.75,109.38Z"/><path class="cls-18" d="M289.32,136l-5.39-5.57-5.75,7.42s4.38,4.22,9.59,3Z"/><polygon class="cls-18" points="276.53 127.38 274.06 135.16 278.18 137.86 283.93 130.44 276.53 127.38"/><path class="cls-18" d="M365,74.48c-.45,7.28-.34,11.56-4,15.29-5.53,5.62-14.51,2.29-16.25-5-1.56-6.54-.57-17.34,6.55-20.24A9.94,9.94,0,0,1,365,74.48Z"/><path class="cls-9" d="M371.33,59.3c2.24,2.06,1.29,4.36.12,4.79,3.63.75,4.16,3.64,2.25,9.74C371.88,79.66,367.47,87.49,362,88c-8.28.72-10.7-7.9-10.76-16.46-4.69.28-2.67-3.87-8.41-2.91-5,.83-3.13-3.07-7.37-4.77-4.93-2-3.94-9.55.66-7.38,0,0-2.13,1.41.35,2.72s2.24-1.73,7.15-2.09,5.48,3.83,11.22,1.3C362,55.2,366.73,55.07,371.33,59.3Z"/><path class="cls-9" d="M368.57,64a2.87,2.87,0,0,1,3.19-1.25c2.25.48,2.44,1.47,3.85,1.34s.9,1.37.9,1.37-.38-1.13-2.08-.5-2.81-.91-3.54-.22S368.57,64,368.57,64Z"/><path class="cls-18" d="M355.12,76.46a8.24,8.24,0,0,1-2.57,4.62c-1.78,1.58-3.32.31-3.38-1.85,0-2,.82-5.12,2.87-5.88S355.49,74.31,355.12,76.46Z"/><path class="cls-20" d="M351.5,166.92s8.34,56.14,12.91,77.18c5,23,39.85,84.2,39.85,84.2l12.79-4.17S389.32,269,386.46,246.18c-3.1-24.75-9.6-79.26-9.6-79.26Z"/><path class="cls-10" d="M400.69,324.24c-.05,0,2.92,4.48,2.92,4.48L418,324l-1.69-4.3Z"/><path class="cls-12" d="M356.77,186.92c9.64,1.89,8.62,37.84,7.46,56.33-2.78-13.07-6.85-38.22-9.63-56.07A3.29,3.29,0,0,1,356.77,186.92Z"/><path class="cls-20" d="M337.57,166.92s-1,54.93-.21,77.33c.83,23.3,9,99.6,9,99.6h12.44s.46-74.94,1-97.82c.6-24.95,3.62-79.11,3.62-79.11Z"/><path class="cls-10" d="M343.93,338.89c-.06,0,.7,5.17.7,5.17h15.14l.41-4.61Z"/></g></g></svg>