<svg xmlns="http://www.w3.org/2000/svg" xmlns:xlink="http://www.w3.org/1999/xlink" viewBox="0 0 429.09 312.65"><defs><style>.cls-1{fill:none;}.cls-2{isolation:isolate;}.cls-3{fill:#f5f5f5;}.cls-4{fill:#e0e0e0;}.cls-5{fill:#455a64;}.cls-6{fill:#1e3769;}.cls-21,.cls-24,.cls-7{opacity:0.2;}.cls-19,.cls-22,.cls-8{fill:#0f1c35;}.cls-9{opacity:0.4;}.cls-10,.cls-23{fill:#27debf;}.cls-11{fill:#fff;}.cls-12{fill:#191b48;}.cls-13,.cls-19{opacity:0.1;}.cls-14{fill:#3a3b3d;}.cls-15{fill:#2a2b2d;}.cls-16{fill:#1b1c1c;}.cls-17{fill:#37474f;}.cls-18{opacity:0.7;}.cls-20,.cls-21{fill:#17294f;}.cls-22{opacity:0.3;}.cls-23,.cls-24{mix-blend-mode:multiply;}.cls-25{fill:#ffa8a7;}.cls-26{fill:#f28f8f;}.cls-27{fill:#263238;}.cls-28{fill:#4b5f87;}.cls-29{clip-path:url(#clip-path);}</style><clipPath id="clip-path"><path id="_Clipping_Path_" data-name="&lt;Clipping Path&gt;" class="cls-1" d="M139.22,254.64l20.91-12.07a3.82,3.82,0,0,1,3.46,0l16.85,9.73a1.06,1.06,0,0,1,0,2l-20.91,12.07a3.83,3.83,0,0,1-3.46,0l-16.85-9.73A1.06,1.06,0,0,1,139.22,254.64Z"/></clipPath></defs><title>instore_payment</title><g class="cls-2"><g id="Layer_2" data-name="Layer 2"><g id="Floor"><g id="_Group_" data-name="&lt;Group&gt;"><path id="_Path_" data-name="&lt;Path&gt;" class="cls-3" d="M62.84,279.82c83.79,43.77,219.63,43.77,303.41,0s83.79-114.74,0-158.51-219.63-43.77-303.41,0S-20.95,236.05,62.84,279.82Z"/></g></g><g id="Shadow"><path id="_Path_2" data-name="&lt;Path&gt;" class="cls-4" d="M312.16,205c15.2,7.25,39.85,7.25,55.05,0s15.2-19,0-26.24-39.85-7.24-55.05,0S297,197.77,312.16,205Z"/></g><g id="Bags"><g id="_Group_2" data-name="&lt;Group&gt;"><g id="_Group_3" data-name="&lt;Group&gt;"><g id="_Group_4" data-name="&lt;Group&gt;"><path id="_Path_3" data-name="&lt;Path&gt;" class="cls-5" d="M131.48,38.36a.44.44,0,0,1-.44-.45v-18c0-7.5,4.12-16,9.19-18.91,2.13-1.23,4.23-1.36,5.94-.38,2.35,1.36,3.7,4.61,3.7,8.93V27.47a.45.45,0,0,1-.89,0V9.58c0-4-1.19-7-3.25-8.16-1.44-.83-3.18-.7-5,.38-4.82,2.78-8.75,10.92-8.75,18.14v18A.44.44,0,0,1,131.48,38.36Z"/></g></g><g id="_Group_5" data-name="&lt;Group&gt;"><polygon id="_Path_4" data-name="&lt;Path&gt;" class="cls-6" points="183.44 101.62 181.47 16.98 167.06 8.69 165.36 91.18 183.44 101.62"/></g><g id="_Group_6" data-name="&lt;Group&gt;" class="cls-7"><polygon id="_Path_5" data-name="&lt;Path&gt;" points="183.44 101.62 181.47 16.98 167.06 8.69 165.36 91.18 183.44 101.62"/></g><g id="_Group_7" data-name="&lt;Group&gt;"><polygon id="_Path_6" data-name="&lt;Path&gt;" class="cls-8" points="116.44 37.91 114.74 120.4 165.36 91.18 167.06 8.69 116.44 37.91"/></g><g id="_Group_8" data-name="&lt;Group&gt;" class="cls-9"><polygon id="_Path_7" data-name="&lt;Path&gt;" points="116.44 37.91 114.74 120.4 165.36 91.18 167.06 8.69 116.44 37.91"/></g><g id="_Group_9" data-name="&lt;Group&gt;"><polygon id="_Path_8" data-name="&lt;Path&gt;" class="cls-6" points="130.85 46.2 132.82 130.84 183.44 101.62 181.47 16.98 130.85 46.2"/></g><g id="_Group_10" data-name="&lt;Group&gt;"><polygon id="_Path_9" data-name="&lt;Path&gt;" class="cls-10" points="116.44 37.91 130.85 46.2 132.82 130.84 114.74 120.4 116.44 37.91"/></g><g id="_Group_11" data-name="&lt;Group&gt;"><polygon id="_Path_10" data-name="&lt;Path&gt;" class="cls-6" points="116.44 37.91 130.85 46.2 132.82 130.84 114.74 120.4 116.44 37.91"/></g><polygon class="cls-7" points="132.82 130.84 125.5 118.27 124.2 67.09 122.89 117.52 122.89 117.52 114.74 120.4 132.82 130.84"/><g id="_Group_12" data-name="&lt;Group&gt;"><g id="_Group_13" data-name="&lt;Group&gt;" class="cls-7"><path id="_Path_11" data-name="&lt;Path&gt;" d="M145.92,44a4,4,0,0,0-1.81,3.13c0,1.15.81,1.63,1.81,1.06a4,4,0,0,0,1.81-3.13C147.73,43.93,146.92,43.46,145.92,44Z"/></g><g id="_Group_14" data-name="&lt;Group&gt;" class="cls-7"><path id="_Path_12" data-name="&lt;Path&gt;" d="M163.86,33.6a4,4,0,0,0-1.81,3.13c0,1.15.81,1.63,1.81,1.06a4,4,0,0,0,1.81-3.13C165.67,33.49,164.86,33,163.86,33.6Z"/></g><g id="_Group_15" data-name="&lt;Group&gt;"><path id="_Path_13" data-name="&lt;Path&gt;" class="cls-5" d="M145.92,46.57a.44.44,0,0,1-.45-.45v-18c0-7.5,4.12-16,9.19-18.91,2.12-1.23,4.23-1.36,5.94-.38,2.35,1.36,3.7,4.61,3.7,8.93V35.69a.45.45,0,0,1-.89,0V17.8c0-4-1.19-7-3.25-8.16-1.44-.83-3.18-.7-5,.38-4.82,2.78-8.75,10.92-8.75,18.14v18A.44.44,0,0,1,145.92,46.57Z"/></g></g></g><g id="_Group_16" data-name="&lt;Group&gt;"><g id="_Group_17" data-name="&lt;Group&gt;"><g id="_Group_18" data-name="&lt;Group&gt;"><path id="_Path_14" data-name="&lt;Path&gt;" class="cls-5" d="M67.45,81.79a.37.37,0,0,1-.37-.37v-15c0-6.28,3.45-13.38,7.7-15.83a4.85,4.85,0,0,1,5-.31c2,1.14,3.1,3.86,3.1,7.48v15a.37.37,0,1,1-.75,0v-15c0-3.34-1-5.83-2.72-6.83a4.09,4.09,0,0,0-4.23.31c-4,2.33-7.32,9.14-7.32,15.19v15A.37.37,0,0,1,67.45,81.79Z"/></g></g><g id="_Group_19" data-name="&lt;Group&gt;"><polygon id="_Path_15" data-name="&lt;Path&gt;" class="cls-6" points="110.94 134.75 109.3 63.89 97.23 56.95 95.81 126.01 110.94 134.75"/></g><g id="_Group_20" data-name="&lt;Group&gt;" class="cls-7"><polygon id="_Path_16" data-name="&lt;Path&gt;" points="110.94 134.75 109.3 63.89 97.23 56.95 95.81 126.01 110.94 134.75"/></g><g id="_Group_21" data-name="&lt;Group&gt;"><polygon id="_Path_17" data-name="&lt;Path&gt;" class="cls-6" points="54.86 81.41 53.44 150.47 95.81 126.01 97.23 56.95 54.86 81.41"/></g><g id="_Group_22" data-name="&lt;Group&gt;" class="cls-9"><polygon id="_Path_18" data-name="&lt;Path&gt;" points="54.86 81.41 53.44 150.47 95.81 126.01 97.23 56.95 54.86 81.41"/></g><g id="_Group_23" data-name="&lt;Group&gt;"><polygon id="_Path_19" data-name="&lt;Path&gt;" class="cls-6" points="66.92 88.36 68.57 159.21 110.94 134.75 109.3 63.89 66.92 88.36"/></g><g id="_Group_24" data-name="&lt;Group&gt;"><polygon id="_Path_20" data-name="&lt;Path&gt;" class="cls-6" points="54.86 81.41 66.92 88.36 68.57 159.21 53.44 150.47 54.86 81.41"/></g><g id="_Group_25" data-name="&lt;Group&gt;" class="cls-7"><polygon id="_Path_21" data-name="&lt;Path&gt;" points="54.86 81.41 66.92 88.36 68.57 159.21 53.44 150.47 54.86 81.41"/></g><polygon class="cls-7" points="68.57 159.21 62.45 148.68 61.35 105.84 60.26 148.06 53.44 150.47 68.57 159.21"/><g id="_Group_26" data-name="&lt;Group&gt;"><g id="_Group_27" data-name="&lt;Group&gt;" class="cls-7"><path id="_Path_22" data-name="&lt;Path&gt;" class="cls-5" d="M79.54,86.54A3.34,3.34,0,0,0,78,89.16c0,1,.68,1.36,1.51.89a3.32,3.32,0,0,0,1.51-2.62C81.05,86.45,80.37,86.06,79.54,86.54Z"/></g><g id="_Group_28" data-name="&lt;Group&gt;" class="cls-7"><path id="_Path_23" data-name="&lt;Path&gt;" class="cls-5" d="M94.56,77.8A3.35,3.35,0,0,0,93,80.42c0,1,.68,1.36,1.51.89a3.32,3.32,0,0,0,1.51-2.62C96.07,77.72,95.39,77.32,94.56,77.8Z"/></g><g id="_Group_29" data-name="&lt;Group&gt;"><path id="_Path_24" data-name="&lt;Path&gt;" class="cls-5" d="M79.54,88.66a.37.37,0,0,1-.37-.37v-15c0-6.28,3.45-13.38,7.7-15.83a4.86,4.86,0,0,1,5-.31c2,1.14,3.1,3.86,3.1,7.48v15a.37.37,0,0,1-.75,0v-15c0-3.34-1-5.83-2.72-6.83a4.09,4.09,0,0,0-4.23.31c-4,2.33-7.32,9.14-7.32,15.19v15A.37.37,0,0,1,79.54,88.66Z"/></g></g></g></g><g id="Plants"><g id="_Group_30" data-name="&lt;Group&gt;"><path id="_Path_25" data-name="&lt;Path&gt;" class="cls-10" d="M59.32,195.15l5.05-2.59s-.85-9.57-2.57-19.13c-2.36-13.15-12.93-26.05-24.58-25.66s-8.91,9.11-3.62,13.57C37,164.17,55.77,178.09,59.32,195.15Z"/></g><g id="_Group_31" data-name="&lt;Group&gt;"><path id="_Path_26" data-name="&lt;Path&gt;" d="M59.32,195.15l5.05-2.59s-.85-9.57-2.57-19.13c-2.36-13.15-12.93-26.05-24.58-25.66s-8.91,9.11-3.62,13.57C37,164.17,55.77,178.09,59.32,195.15Z"/></g><g id="_Group_32" data-name="&lt;Group&gt;"><path id="_Path_27" data-name="&lt;Path&gt;" class="cls-11" d="M61.8,194.13h-.06a.63.63,0,0,1-.56-.69c1.35-13.39-11.62-36.88-26.72-42.55a.63.63,0,0,1,.44-1.18c15.56,5.85,28.92,30.06,27.53,43.86A.63.63,0,0,1,61.8,194.13Z"/></g><g id="_Group_33" data-name="&lt;Group&gt;"><g id="_Group_34" data-name="&lt;Group&gt;"><path id="_Path_28" data-name="&lt;Path&gt;" class="cls-6" d="M62.84,206.39l1.53-10.17A29.84,29.84,0,0,0,55,179.13c-8.4-7.7-20.21-11.14-28.1-8.79s-6.74,10.09.21,12.7,16.36,2.5,25,8.52C58,195.71,63.13,202.85,62.84,206.39Z"/></g><g id="_Group_35" data-name="&lt;Group&gt;"><path id="_Path_29" data-name="&lt;Path&gt;" class="cls-11" d="M63.45,200a.63.63,0,0,1-.62-.52c-2.23-12.53-21.72-25.7-36-24.3a.63.63,0,0,1-.12-1.25c15.08-1.5,35,12,37.33,25.33a.63.63,0,0,1-.51.73Z"/></g></g></g><g id="Calculator"><g id="_Group_36" data-name="&lt;Group&gt;"><g id="_Group_37" data-name="&lt;Group&gt;"><g id="_Group_38" data-name="&lt;Group&gt;"><path id="_Path_30" data-name="&lt;Path&gt;" class="cls-12" d="M275.51,128.71l-23.18-13.38-29.27-16.9-.07,0c-2.63-1.46-4.27-4.67-4.27-9.26,0-4.4-1.5-7.53-3.93-9.07l20,11.54,3.16,1.82,29.23,16.87.32.19c2.51,1.5,4.06,4.67,4.06,9.14S273,127.18,275.51,128.71Z"/></g><g id="_Group_39" data-name="&lt;Group&gt;" class="cls-13"><path id="_Path_31" data-name="&lt;Path&gt;" d="M275.51,128.71l-23.18-13.38-29.27-16.9-.07,0c-2.63-1.46-4.27-4.67-4.27-9.26,0-4.4-1.5-7.53-3.93-9.07l20,11.54,3.16,1.82,29.23,16.87.32.19c2.51,1.5,4.06,4.67,4.06,9.14S273,127.18,275.51,128.71Z"/></g><g id="_Group_40" data-name="&lt;Group&gt;"><path id="_Path_32" data-name="&lt;Path&gt;" class="cls-6" d="M300,96.16v7c0,9.07-6.36,20.09-14.21,24.62-3.87,2.24-7.39,2.48-10,1.06l-.29-.17c-2.47-1.53-4-4.67-4-9.09s-1.55-7.64-4.06-9.14l-.32-.19L237.92,93.42c5.4-5.45,9.24-13.67,9.24-20.71v-7Z"/></g><g id="_Group_41" data-name="&lt;Group&gt;"><path id="_Path_33" data-name="&lt;Path&gt;" class="cls-6" d="M267.15,110.29c-2.56-1.35-6-1.09-9.84,1.12a23.85,23.85,0,0,0-5,3.92c-5.4,5.44-9.23,13.66-9.23,20.7,0,9.07-6.37,20.09-14.22,24.63l-14.22,8.21-52.81-30.49,14.22-8.21c7.85-4.53,14.22-15.56,14.22-24.63s6.36-20.09,14.22-24.62c3.86-2.23,7.37-2.47,9.93-1.06h0l.34.19,20,11.54,3.16,1.82Z"/></g><g id="_Group_42" data-name="&lt;Group&gt;" class="cls-9"><path id="_Path_34" data-name="&lt;Path&gt;" class="cls-11" d="M267.15,110.29c-2.56-1.35-6-1.09-9.84,1.12a23.85,23.85,0,0,0-5,3.92c-5.4,5.44-9.23,13.66-9.23,20.7,0,9.07-6.37,20.09-14.22,24.63l-14.22,8.21-52.81-30.49,14.22-8.21c7.85-4.53,14.22-15.56,14.22-24.63s6.36-20.09,14.22-24.62c3.86-2.23,7.37-2.47,9.93-1.06h0l.34.19,20,11.54,3.16,1.82Z"/></g></g><g id="_Group_43" data-name="&lt;Group&gt;"><g id="_Group_44" data-name="&lt;Group&gt;"><path id="_Path_35" data-name="&lt;Path&gt;" class="cls-14" d="M226.8,142.63c-.33-2.2-2.12-3-4.28-1.75l-7.86,4.53-16,9.23a76.93,76.93,0,0,0-8.43,5.36,100.18,100.18,0,0,0-11.47,11.6c-7,8-14,16.68-21,20.72l-36.29,21a9.58,9.58,0,0,0-4.33,7.5v13.45c0,2.56,1.67,3.71,3.82,2.76a9.67,9.67,0,0,1-8.15-.26L64.63,208.89a9.58,9.58,0,0,1-4.33-7.5V187.94a9.56,9.56,0,0,1,4.33-7.5l36.29-21c7-4,14-12.72,21-20.71a100.28,100.28,0,0,1,11.47-11.61,77.36,77.36,0,0,1,8.42-5.35l16-9.23,7.85-4.54a9.57,9.57,0,0,1,8.66,0l48.21,27.84A9.69,9.69,0,0,1,226.8,142.63Z"/></g><g id="_Group_45" data-name="&lt;Group&gt;"><path id="_Path_36" data-name="&lt;Path&gt;" class="cls-15" d="M121.24,222.81s-60.93-34.87-60.92-35.17c0,0,0,.2,0,.3v13.45a9.57,9.57,0,0,0,4.33,7.5l48.21,27.83a9.57,9.57,0,0,0,8.66,0l2.05-1.19Z"/></g><g id="_Group_46" data-name="&lt;Group&gt;"><path id="_Path_37" data-name="&lt;Path&gt;" class="cls-16" d="M222.52,140.88l-23.83,13.76a77.65,77.65,0,0,0-8.43,5.36c-10.82,8.73-21.64,26.07-32.46,32.32l-36.29,21a9.57,9.57,0,0,0-4.33,7.5v13.45c0,2.76,1.94,3.88,4.33,2.5l101-58.32a9.57,9.57,0,0,0,4.33-7.5V143.38C226.85,140.62,224.91,139.5,222.52,140.88Z"/></g><g id="_Group_47" data-name="&lt;Group&gt;"><g id="_Group_48" data-name="&lt;Group&gt;"><path id="_Path_38" data-name="&lt;Path&gt;" class="cls-17" d="M190.56,150a76.91,76.91,0,0,0-8.43,5.36,67,67,0,0,0-5.91,5.53,2.67,2.67,0,0,1-3.11.45l-37.17-21.46a1.5,1.5,0,0,1-.36-2.45,66.57,66.57,0,0,1,5.92-5.53,77.3,77.3,0,0,1,8.42-5.35l14.26-8.23a3.85,3.85,0,0,1,3.46,0l37.16,21.45a1.06,1.06,0,0,1,0,2Z"/></g><g id="_Group_49" data-name="&lt;Group&gt;"><path id="_Path_39" data-name="&lt;Path&gt;" class="cls-11" d="M167.65,120a3.85,3.85,0,0,0-3.46,0l-14.26,8.23a77.28,77.28,0,0,0-8.42,5.35,66.43,66.43,0,0,0-5.92,5.53,1.88,1.88,0,0,0-.18.23,1.8,1.8,0,0,0,.53.47l37.17,21.46a2.67,2.67,0,0,0,3.11-.45,66.91,66.91,0,0,1,5.91-5.53,76.91,76.91,0,0,1,8.43-5.36l14.25-8.23.17-.12-.17-.12Z"/></g></g><g id="_Group_50" data-name="&lt;Group&gt;" class="cls-18"><path id="_Path_40" data-name="&lt;Path&gt;" d="M113.11,227.5c0,1.29-1,1.79-2.17,1.09L66.54,202.95a4.64,4.64,0,0,1-2.17-3.6c0-1.29,1-1.79,2.17-1.09l44.41,25.64A4.64,4.64,0,0,1,113.11,227.5Z"/></g><g id="_Group_51" data-name="&lt;Group&gt;"><g id="_Group_52" data-name="&lt;Group&gt;"><g id="_Group_53" data-name="&lt;Group&gt;"><g id="_Group_54" data-name="&lt;Group&gt;"><path id="_Path_41" data-name="&lt;Path&gt;" class="cls-4" d="M129.12,181.19V179.4l-2.06-.15-4.66-2.69a4.79,4.79,0,0,0-4.33,0l-3.12,1.8-1.57-.12V180h0a1.5,1.5,0,0,0,.89,1.28l5.83,3.36a4.79,4.79,0,0,0,4.33,0l3.79-2.19a1.53,1.53,0,0,0,.89-1.23h0Z"/></g><g id="_Group_55" data-name="&lt;Group&gt;"><path id="_Path_42" data-name="&lt;Path&gt;" class="cls-3" d="M122.4,174.8l5.83,3.36a1.32,1.32,0,0,1,0,2.5l-3.79,2.19a4.79,4.79,0,0,1-4.33,0l-5.83-3.36a1.32,1.32,0,0,1,0-2.5l3.79-2.19A4.79,4.79,0,0,1,122.4,174.8Z"/></g></g><g id="_Group_56" data-name="&lt;Group&gt;"><g id="_Group_57" data-name="&lt;Group&gt;"><path id="_Path_43" data-name="&lt;Path&gt;" class="cls-4" d="M113.88,172.37v-1.78l-2.06-.15-4.66-2.69a4.79,4.79,0,0,0-4.33,0l-3.12,1.8-1.57-.12v1.73h0a1.5,1.5,0,0,0,.89,1.28l5.83,3.36a4.78,4.78,0,0,0,4.33,0l3.79-2.19a1.53,1.53,0,0,0,.89-1.23h0Z"/></g><g id="_Group_58" data-name="&lt;Group&gt;"><path id="_Path_44" data-name="&lt;Path&gt;" class="cls-3" d="M107.16,166l5.82,3.36a1.32,1.32,0,0,1,0,2.5L109.2,174a4.78,4.78,0,0,1-4.33,0L99,170.68a1.32,1.32,0,0,1,0-2.5l3.79-2.19A4.79,4.79,0,0,1,107.16,166Z"/></g></g><g id="_Group_59" data-name="&lt;Group&gt;"><g id="_Group_60" data-name="&lt;Group&gt;"><path id="_Path_45" data-name="&lt;Path&gt;" class="cls-4" d="M144.35,190v-1.78l-2.06-.15-4.66-2.69a4.78,4.78,0,0,0-4.33,0l-3.12,1.8-1.57-.12v1.73h0a1.5,1.5,0,0,0,.89,1.28l5.83,3.36a4.79,4.79,0,0,0,4.33,0l3.79-2.19a1.53,1.53,0,0,0,.89-1.23h0Z"/></g><g id="_Group_61" data-name="&lt;Group&gt;"><path id="_Path_46" data-name="&lt;Path&gt;" class="cls-3" d="M137.63,183.59l5.82,3.36a1.32,1.32,0,0,1,0,2.5l-3.79,2.19a4.79,4.79,0,0,1-4.33,0l-5.82-3.36a1.32,1.32,0,0,1,0-2.5l3.79-2.19A4.79,4.79,0,0,1,137.63,183.59Z"/></g></g></g><g id="_Group_62" data-name="&lt;Group&gt;"><g id="_Group_63" data-name="&lt;Group&gt;"><g id="_Group_64" data-name="&lt;Group&gt;"><path id="_Path_47" data-name="&lt;Path&gt;" class="cls-4" d="M141.3,174.15v-1.78l-2.06-.15-4.66-2.69a4.78,4.78,0,0,0-4.33,0l-3.12,1.8-1.57-.12v1.73h0a1.5,1.5,0,0,0,.89,1.28l5.83,3.36a4.79,4.79,0,0,0,4.33,0l3.79-2.19a1.53,1.53,0,0,0,.89-1.23h0Z"/></g><g id="_Group_65" data-name="&lt;Group&gt;"><path id="_Path_48" data-name="&lt;Path&gt;" class="cls-3" d="M134.58,167.77l5.82,3.36a1.32,1.32,0,0,1,0,2.5l-3.79,2.19a4.79,4.79,0,0,1-4.33,0l-5.82-3.36a1.32,1.32,0,0,1,0-2.5l3.79-2.19A4.79,4.79,0,0,1,134.58,167.77Z"/></g></g><g id="_Group_66" data-name="&lt;Group&gt;"><g id="_Group_67" data-name="&lt;Group&gt;"><path id="_Path_49" data-name="&lt;Path&gt;" class="cls-4" d="M126.07,165.34v-1.78l-2.06-.15-4.66-2.69a4.78,4.78,0,0,0-4.33,0l-3.12,1.8-1.57-.12v1.73h0a1.5,1.5,0,0,0,.89,1.28l5.83,3.36a4.79,4.79,0,0,0,4.33,0l3.79-2.19a1.53,1.53,0,0,0,.89-1.23h0Z"/></g><g id="_Group_68" data-name="&lt;Group&gt;"><path id="_Path_50" data-name="&lt;Path&gt;" class="cls-3" d="M119.35,159l5.82,3.36a1.32,1.32,0,0,1,0,2.5L121.38,167a4.79,4.79,0,0,1-4.33,0l-5.83-3.36a1.32,1.32,0,0,1,0-2.5L115,159A4.78,4.78,0,0,1,119.35,159Z"/></g></g><g id="_Group_69" data-name="&lt;Group&gt;"><g id="_Group_70" data-name="&lt;Group&gt;"><path id="_Path_51" data-name="&lt;Path&gt;" class="cls-4" d="M156.54,182.94v-1.78l-2.06-.15-4.66-2.69a4.79,4.79,0,0,0-4.33,0l-3.12,1.8-1.57-.12v1.73h0a1.5,1.5,0,0,0,.89,1.28l5.83,3.36a4.78,4.78,0,0,0,4.33,0l3.79-2.19a1.53,1.53,0,0,0,.89-1.23h0Z"/></g><g id="_Group_71" data-name="&lt;Group&gt;"><path id="_Path_52" data-name="&lt;Path&gt;" class="cls-3" d="M149.82,176.56l5.83,3.36a1.32,1.32,0,0,1,0,2.5l-3.79,2.19a4.78,4.78,0,0,1-4.33,0l-5.83-3.36a1.32,1.32,0,0,1,0-2.5l3.79-2.19A4.79,4.79,0,0,1,149.82,176.56Z"/></g></g></g><g id="_Group_72" data-name="&lt;Group&gt;"><g id="_Group_73" data-name="&lt;Group&gt;"><g id="_Group_74" data-name="&lt;Group&gt;"><path id="_Path_53" data-name="&lt;Path&gt;" class="cls-4" d="M116.93,188.24v-1.78l-2.06-.15-4.66-2.69a4.78,4.78,0,0,0-4.33,0l-3.12,1.8-1.57-.12V187h0a1.5,1.5,0,0,0,.89,1.28l5.83,3.36a4.79,4.79,0,0,0,4.33,0l3.79-2.19a1.53,1.53,0,0,0,.89-1.23h0Z"/></g><g id="_Group_75" data-name="&lt;Group&gt;"><path id="_Path_54" data-name="&lt;Path&gt;" class="cls-3" d="M110.21,181.86l5.83,3.36a1.32,1.32,0,0,1,0,2.5l-3.79,2.19a4.79,4.79,0,0,1-4.33,0l-5.83-3.36a1.32,1.32,0,0,1,0-2.5l3.79-2.19A4.78,4.78,0,0,1,110.21,181.86Z"/></g></g><g id="_Group_76" data-name="&lt;Group&gt;"><g id="_Group_77" data-name="&lt;Group&gt;"><path id="_Path_55" data-name="&lt;Path&gt;" class="cls-4" d="M101.7,179.43v-1.78l-2.06-.15L95,174.8a4.78,4.78,0,0,0-4.33,0l-3.12,1.8L86,176.49v1.73h0a1.5,1.5,0,0,0,.89,1.28l5.83,3.36a4.79,4.79,0,0,0,4.33,0l3.79-2.19a1.53,1.53,0,0,0,.89-1.23h0Z"/></g><g id="_Group_78" data-name="&lt;Group&gt;"><path id="_Path_56" data-name="&lt;Path&gt;" class="cls-3" d="M95,173l5.83,3.36a1.32,1.32,0,0,1,0,2.5L97,181.1a4.79,4.79,0,0,1-4.33,0l-5.83-3.36a1.32,1.32,0,0,1,0-2.5L90.65,173A4.78,4.78,0,0,1,95,173Z"/></g></g><g id="_Group_79" data-name="&lt;Group&gt;"><g id="_Group_80" data-name="&lt;Group&gt;"><path id="_Path_57" data-name="&lt;Path&gt;" class="cls-4" d="M132.16,197v-1.78l-2.06-.15-4.66-2.69a4.79,4.79,0,0,0-4.33,0l-3.12,1.8-1.57-.12v1.73h0a1.5,1.5,0,0,0,.89,1.28l5.83,3.36a4.79,4.79,0,0,0,4.33,0l3.79-2.19a1.53,1.53,0,0,0,.89-1.23h0Z"/></g><g id="_Group_81" data-name="&lt;Group&gt;"><path id="_Path_58" data-name="&lt;Path&gt;" class="cls-3" d="M125.44,190.65l5.83,3.36a1.32,1.32,0,0,1,0,2.5l-3.79,2.19a4.79,4.79,0,0,1-4.33,0l-5.83-3.36a1.32,1.32,0,0,1,0-2.5l3.79-2.19A4.79,4.79,0,0,1,125.44,190.65Z"/></g></g></g><g id="_Group_82" data-name="&lt;Group&gt;"><g id="_Group_83" data-name="&lt;Group&gt;"><g id="_Group_84" data-name="&lt;Group&gt;"><path id="_Path_59" data-name="&lt;Path&gt;" class="cls-4" d="M104.74,195.26v-1.78l-2.06-.15L98,190.64a4.79,4.79,0,0,0-4.33,0l-3.12,1.8L89,192.32v1.73h0a1.5,1.5,0,0,0,.89,1.28l5.83,3.36a4.78,4.78,0,0,0,4.33,0l3.79-2.19a1.53,1.53,0,0,0,.89-1.23h0Z"/></g><g id="_Group_85" data-name="&lt;Group&gt;"><path id="_Path_60" data-name="&lt;Path&gt;" class="cls-3" d="M98,188.88l5.83,3.36a1.32,1.32,0,0,1,0,2.5L100,196.93a4.78,4.78,0,0,1-4.33,0l-5.83-3.36a1.32,1.32,0,0,1,0-2.5l3.79-2.19A4.79,4.79,0,0,1,98,188.88Z"/></g></g><g id="_Group_86" data-name="&lt;Group&gt;"><g id="_Group_87" data-name="&lt;Group&gt;"><path id="_Path_61" data-name="&lt;Path&gt;" class="cls-4" d="M89.5,186.44v-1.78l-2.06-.15-4.66-2.69a4.78,4.78,0,0,0-4.33,0l-3.12,1.8-1.57-.12v1.73h0a1.5,1.5,0,0,0,.89,1.28l5.83,3.36a4.78,4.78,0,0,0,4.33,0l3.79-2.19a1.53,1.53,0,0,0,.89-1.23h0Z"/></g><g id="_Group_88" data-name="&lt;Group&gt;"><path id="_Path_62" data-name="&lt;Path&gt;" class="cls-3" d="M82.78,180.06l5.82,3.36a1.32,1.32,0,0,1,0,2.5l-3.79,2.19a4.78,4.78,0,0,1-4.33,0l-5.82-3.36a1.32,1.32,0,0,1,0-2.5l3.79-2.19A4.79,4.79,0,0,1,82.78,180.06Z"/></g></g><g id="_Group_89" data-name="&lt;Group&gt;"><g id="_Group_90" data-name="&lt;Group&gt;"><path id="_Path_63" data-name="&lt;Path&gt;" class="cls-4" d="M120,204.05v-1.78l-2.06-.15-4.66-2.69a4.78,4.78,0,0,0-4.33,0l-3.12,1.8-1.57-.12v1.73h0a1.5,1.5,0,0,0,.89,1.28l5.83,3.36a4.79,4.79,0,0,0,4.33,0l3.79-2.19a1.53,1.53,0,0,0,.89-1.23h0Z"/></g><g id="_Group_91" data-name="&lt;Group&gt;"><path id="_Path_64" data-name="&lt;Path&gt;" class="cls-3" d="M113.25,197.67l5.82,3.36a1.32,1.32,0,0,1,0,2.5l-3.79,2.19a4.79,4.79,0,0,1-4.33,0l-5.82-3.36a1.32,1.32,0,0,1,0-2.5l3.79-2.19A4.78,4.78,0,0,1,113.25,197.67Z"/></g></g></g><g id="_Group_92" data-name="&lt;Group&gt;"><g id="_Group_93" data-name="&lt;Group&gt;"><g id="_Group_94" data-name="&lt;Group&gt;"><path id="_Path_65" data-name="&lt;Path&gt;" class="cls-4" d="M136.06,153.21h0l-.37-1.53-1.54-.12-5-2.91c-2.39-1.38-5.56-1.09-7.1.61a3.2,3.2,0,0,0-.7,1.25l-.43,0,.39,1.63h0a4.49,4.49,0,0,0,2.23,2.69l6.14,3.54a2.66,2.66,0,0,0,3.11-.45c1-1,1.94-2.11,2.91-3.2A1.6,1.6,0,0,0,136.06,153.21Z"/></g><g id="_Group_95" data-name="&lt;Group&gt;"><path id="_Path_66" data-name="&lt;Path&gt;" class="cls-3" d="M129.27,156.8l-6.14-3.54c-2.39-1.38-3-3.84-1.49-5.54s4.71-2,7.1-.61l6.14,3.54a1.57,1.57,0,0,1,.41,2.5c-1,1.09-1.94,2.16-2.91,3.2A2.65,2.65,0,0,1,129.27,156.8Z"/></g></g><g id="_Group_96" data-name="&lt;Group&gt;"><g id="_Group_97" data-name="&lt;Group&gt;"><path id="_Path_67" data-name="&lt;Path&gt;" class="cls-4" d="M167.43,172.3v0l-.37-1.55-.44,0a5.4,5.4,0,0,0-1.49-1.24L159,165.9a2.56,2.56,0,0,0-3.06.5c-1,1.08-1.91,2.13-2.86,3.15l-.86-.07.39,1.62h0a1.6,1.6,0,0,0,.77.95l6.14,3.54c2.39,1.38,5.63,1.16,7.18-.54A3,3,0,0,0,167.43,172.3Z"/></g><g id="_Group_98" data-name="&lt;Group&gt;"><path id="_Path_68" data-name="&lt;Path&gt;" class="cls-3" d="M159.17,174.06,153,170.52a1.51,1.51,0,0,1-.35-2.45c1-1,1.94-2.11,2.91-3.2a2.56,2.56,0,0,1,3.06-.5l6.14,3.54c2.39,1.38,3.11,3.91,1.57,5.61S161.56,175.45,159.17,174.06Z"/></g></g><g id="_Group_99" data-name="&lt;Group&gt;"><g id="_Group_100" data-name="&lt;Group&gt;"><path id="_Path_69" data-name="&lt;Path&gt;" class="cls-4" d="M152.07,162.61h0l-.37-1.51-1.18-.08-7.35-4.24a3.2,3.2,0,0,0-3.82.62c-.75.84-1.49,1.66-2.23,2.46a2.47,2.47,0,0,0-.2.26l-.73,0,.38,1.59h0a2,2,0,0,0,1,1.26l7.87,4.54a3.31,3.31,0,0,0,3.88-.56q1.12-1.2,2.24-2.46A2,2,0,0,0,152.07,162.61Z"/></g><g id="_Group_101" data-name="&lt;Group&gt;"><path id="_Path_70" data-name="&lt;Path&gt;" class="cls-3" d="M151.21,162.9q-1.12,1.25-2.24,2.46a3.31,3.31,0,0,1-3.88.56l-7.87-4.54a1.89,1.89,0,0,1-.45-3.07q1.12-1.21,2.23-2.46a3.2,3.2,0,0,1,3.82-.62l7.87,4.54A2,2,0,0,1,151.21,162.9Z"/></g></g></g></g></g></g></g><g id="Character"><polygon id="_Path_71" data-name="&lt;Path&gt;" class="cls-6" points="378.38 120.99 354.99 107.48 353.29 146.95 378.38 161.51 378.38 120.99"/><polygon id="_Path_72" data-name="&lt;Path&gt;" class="cls-17" points="378.38 161.51 390.08 154.75 383.06 118.29 378.38 120.99 378.38 161.51"/><polygon id="_Path_73" data-name="&lt;Path&gt;" class="cls-17" points="390.08 154.75 382.44 153.76 378.38 161.51 390.08 154.75"/><polygon id="_Path_74" data-name="&lt;Path&gt;" class="cls-17" points="390.08 154.75 382.44 153.76 378.38 161.51 390.08 154.75"/><polygon id="_Path_75" data-name="&lt;Path&gt;" class="cls-8" points="390.08 154.75 382.44 153.76 378.38 161.51 390.08 154.75"/><polygon id="_Path_76" data-name="&lt;Path&gt;" class="cls-19" points="390.08 154.75 382.44 153.76 378.38 161.51 390.08 154.75"/><polygon id="_Path_77" data-name="&lt;Path&gt;" class="cls-20" points="382.44 153.76 378.38 118.29 378.38 120.99 378.38 161.51 382.44 153.76"/><polygon id="_Path_78" data-name="&lt;Path&gt;" class="cls-21" points="382.44 153.76 378.38 118.29 378.38 120.99 378.38 161.51 382.44 153.76"/><polygon id="_Path_79" data-name="&lt;Path&gt;" class="cls-6" points="354.99 107.48 359.09 107.18 359.67 104.78 383.06 118.29 378.38 118.29 378.38 120.99 354.99 107.48"/><polygon id="_Path_80" data-name="&lt;Path&gt;" class="cls-7" points="354.99 107.48 359.09 107.18 359.67 104.78 383.06 118.29 378.38 118.29 378.38 120.99 354.99 107.48"/><path id="_Path_81" data-name="&lt;Path&gt;" class="cls-8" d="M370.74,119.31c0,.35-.24.49-.55.32a1.21,1.21,0,0,1-.55-.95c0-.35.24-.49.55-.32A1.21,1.21,0,0,1,370.74,119.31Z"/><path id="_Path_82" data-name="&lt;Path&gt;" class="cls-22" d="M370.74,119.31c0,.35-.24.49-.55.32a1.21,1.21,0,0,1-.55-.95c0-.35.24-.49.55-.32A1.21,1.21,0,0,1,370.74,119.31Z"/><path id="_Path_83" data-name="&lt;Path&gt;" class="cls-8" d="M363.8,115.2c0,.35-.24.49-.55.32a1.21,1.21,0,0,1-.55-.95c0-.35.24-.49.55-.32A1.21,1.21,0,0,1,363.8,115.2Z"/><path id="_Path_84" data-name="&lt;Path&gt;" class="cls-22" d="M363.8,115.2c0,.35-.24.49-.55.32a1.21,1.21,0,0,1-.55-.95c0-.35.24-.49.55-.32A1.21,1.21,0,0,1,363.8,115.2Z"/><path id="_Path_85" data-name="&lt;Path&gt;" class="cls-23" d="M375.38,116.55c0,.35-.24.49-.55.32a1.21,1.21,0,0,1-.55-.95c0-.35.25-.49.55-.32A1.21,1.21,0,0,1,375.38,116.55Z"/><path id="_Path_86" data-name="&lt;Path&gt;" class="cls-24" d="M375.38,116.55c0,.35-.24.49-.55.32a1.21,1.21,0,0,1-.55-.95c0-.35.25-.49.55-.32A1.21,1.21,0,0,1,375.38,116.55Z"/><path id="_Path_87" data-name="&lt;Path&gt;" class="cls-23" d="M368.44,112.44c0,.35-.25.49-.55.31a1.21,1.21,0,0,1-.55-.95c0-.35.25-.49.55-.31A1.21,1.21,0,0,1,368.44,112.44Z"/><path id="_Path_88" data-name="&lt;Path&gt;" class="cls-24" d="M368.44,112.44c0,.35-.25.49-.55.31a1.21,1.21,0,0,1-.55-.95c0-.35.25-.49.55-.31A1.21,1.21,0,0,1,368.44,112.44Z"/><polygon id="_Path_89" data-name="&lt;Path&gt;" class="cls-6" points="383.06 118.29 378.38 118.29 382.44 153.76 390.08 154.75 383.06 118.29"/><polygon id="_Path_90" data-name="&lt;Path&gt;" class="cls-8" points="359.67 104.78 359.09 107.18 359.67 110.19 360.86 110.87 359.67 104.78"/><path id="_Path_91" data-name="&lt;Path&gt;" class="cls-25" d="M351.8,39.24c3.25,0,9.79,1.06,13.18,15.92.77,3.37,1.41,7,2,11.77.91,7,2,12.78,2.86,19.4.12.92.56,3.63.67,4.47.62,4.49,1.87,7.3,1.87,10.72-.51,2.06-1.71,4.34-6.3,4.81-4.32-1.39-3.48-2.06-3.58-5.93s1.11-4.76.72-9.36c-1.66-10.94-4.94-29.57-4.94-29.57Z"/><g id="_Group_102" data-name="&lt;Group&gt;"><path id="_Path_92" data-name="&lt;Path&gt;" class="cls-5" d="M374.84,116.54a.31.31,0,0,1-.31-.26s-.81-4.81-1.82-8.43c-.8-2.87-2.84-3.62-4.64-4.27-.4-.14-.77-.28-1.11-.43a.31.31,0,1,1,.25-.57c.32.15.69.28,1.07.42,1.84.67,4.14,1.51,5,4.69,1,3.66,1.83,8.45,1.83,8.5a.31.31,0,0,1-.25.36Z"/></g><path id="_Path_93" data-name="&lt;Path&gt;" class="cls-26" d="M370.2,97.43a17.23,17.23,0,0,0-1.82,4.18c-.16.79-1.43.1-1.67-1a34.4,34.4,0,0,1,0-5,16.51,16.51,0,0,0-.54,4.72c.26,1.55.67,1.88,1.72,2.26s1-.59,1.3-1.86S370.2,97.43,370.2,97.43Z"/><g id="_Group_103" data-name="&lt;Group&gt;"><path id="_Path_94" data-name="&lt;Path&gt;" class="cls-5" d="M369.93,118.66V109.3c0-2.07,0-4.42-3.37-6.41-1.2-.7-2.1-.92-2.55-.63s-.39,1.07-.39,1.08v11.48a.31.31,0,1,1-.62,0V103.37a1.86,1.86,0,0,1,.68-1.63c.68-.44,1.76-.23,3.2.62,3.7,2.16,3.69,4.81,3.68,6.94v9.36a.31.31,0,1,1-.62,0Z"/></g><g id="_Group_104" data-name="&lt;Group&gt;"><path id="_Path_95" data-name="&lt;Path&gt;" class="cls-5" d="M367.89,112.43a.31.31,0,0,1-.31-.26l-1.16-7.06a.31.31,0,1,1,.61-.1l1.17,7.06a.31.31,0,0,1-.26.36Z"/></g><path id="_Path_96" data-name="&lt;Path&gt;" class="cls-25" d="M365.78,102.46c-1.69-.69-3.49-2-4.12-1.29A3,3,0,0,0,363,105.9a8.49,8.49,0,0,0,5.94-.19Z"/><path id="_Path_97" data-name="&lt;Path&gt;" class="cls-8" d="M349.34,38.88c5.08.05,11.19,1.61,13.64,6.29,2.61,5,4.33,18.4,4.33,18.4s-1.92,4.14-9,3.68Z"/><path id="_Path_98" data-name="&lt;Path&gt;" class="cls-27" d="M308.85,163.78c-1.26-.65-2.07,1-3.21,2.24-.8.9-2.06,2.33-2.24,3.36-.27,1.52,1.1,3.92,2.62,5.25s3.29,2.27,3.84,5.17a7.05,7.05,0,0,0,4.68,5.92c3.29,1.42,7.7,1,9.2,0,1.77-1.14.15-2.4-2.33-6-3.24-4.64-5.76-8-5.76-12.28Z"/><path id="_Path_99" data-name="&lt;Path&gt;" class="cls-25" d="M311.44,160l-2.66,3.9a3.74,3.74,0,0,0,.9,5.2l.08.05a4,4,0,0,0,5.09-.79l4.15-4.53Z"/><path id="_Path_100" data-name="&lt;Path&gt;" class="cls-6" d="M360.33,83.84c.17,5-1.24,25.07-4.67,34s-5.42,14.42-6.51,16.27-32.22,32.17-32.22,32.17-5.28-.39-6.12-5.51c0,0,12.76-21.69,15.52-26.14s12.55-11.27,12.55-11.27L338,84.4Z"/><g id="_Group_105" data-name="&lt;Group&gt;"><rect id="_Rectangle_" data-name="&lt;Rectangle&gt;" class="cls-25" x="352.29" y="179.32" width="6.75" height="9.83" transform="translate(743.32 285.04) rotate(167.19)"/><path id="_Path_101" data-name="&lt;Path&gt;" class="cls-28" d="M360.33,83.84H328.75c-.27,3.5-1,5.46-1.19,13.92-.24,13.69,12.49,38.57,12.49,38.57-.16,1.86-.94,9.65.83,16.57,2.79,10.91,10.4,29.37,10.4,29.37s4.77.68,7.13-2.08c0,0-4.21-37.47-5.35-47.08-1.23-10.39-4.38-29.36-4.38-29.36A48.11,48.11,0,0,0,354.33,97a33.75,33.75,0,0,0,6-13.13"/><path id="_Path_102" data-name="&lt;Path&gt;" class="cls-25" d="M317.09,76c1.42-14.64,5.85-24.93,6.5-28.61l4.29,18.12a130.8,130.8,0,0,0-3.21,14.78c-.18,1.24-2.21,12.13-1.9,16.77a3.36,3.36,0,0,0,1,2.16c1.58,1.55,2.06,2.88,3.11,4.63.83,1.37,1.69,1.85,1.46,2.18a1.82,1.82,0,0,1-2.45.3,12.76,12.76,0,0,1-2.29-2,16.9,16.9,0,0,0,1.65,5.15c1.87,3.71,1.56,5.67-3.63,4.57-3.25-.69-5.4-3.26-6.26-10.95a66.81,66.81,0,0,1,.05-8.32C315.67,88.43,316.66,80.47,317.09,76Z"/><path id="_Path_103" data-name="&lt;Path&gt;" class="cls-6" d="M338.92,39.19c-6.05,1.46-14.31,3.35-16.7,9.92s-5,19-5,19c1.89,2.22,7.78,3.37,10.31,2l1.19-3.94V83.84c4.74,5.15,21.24,7.55,31.58,0V50.93c0-5.26-2.92-11.58-11-12Z"/><polygon id="_Path_104" data-name="&lt;Path&gt;" class="cls-8" points="328.75 66.22 331.79 56.66 328.75 70.5 328.75 66.22"/><g id="_Group_106" data-name="&lt;Group&gt;"><g id="_Group_107" data-name="&lt;Group&gt;"><path id="_Path_105" data-name="&lt;Path&gt;" class="cls-27" d="M336.64,12.27a3.6,3.6,0,0,0-3,1c-1.28,1.31-1,3.73,0,9.29l4,.45Z"/><path id="_Path_106" data-name="&lt;Path&gt;" class="cls-27" d="M359.68,10.66a6.19,6.19,0,0,0,2.47-.5c1.21-.7,1.53.68.87,1.88a5.65,5.65,0,0,1-4.59,3.05c0-.17-1.13-3.09-1.13-3.09Z"/><path id="_Path_107" data-name="&lt;Path&gt;" class="cls-25" d="M338.5,23.06c-.59.35-1.42-.78-2.15-1.53a2.55,2.55,0,0,0-4.26.69c-1.2,2.53,1.53,5.89,3.13,7a2.81,2.81,0,0,0,3.29.28l.42,9.68a10.32,10.32,0,0,0,7.78,5.9c5.68.77,4.51-3.91,2.65-6.21V35.36a13.49,13.49,0,0,0,4.32.22c.74-.2,2.51-2.33,3.65-4.73,1.28-2.69,3.41-7.45,1.51-15.51-2-8.66-11.34-8.92-16.89-5.43S338.5,23.06,338.5,23.06Z"/><path id="_Path_108" data-name="&lt;Path&gt;" class="cls-27" d="M338.5,24c-.29,0-1.42-1.86-2.15-2.52-1-.92.29-9.26.29-9.26s-1-3.16,1-5.26,5.88-1.74,8.71-1.85a25.47,25.47,0,0,0,10.13-2c4-1.75,4.33-2,4.83-.19s.69,5.82-1.71,8.53l-1.3,2.14s-1.22,1-5,1.48-10.15-1.56-11-1.67c-1.09-.15-1.32.91-1.91,3.79C339.92,19.74,339.49,24,338.5,24Z"/><path id="_Path_109" data-name="&lt;Path&gt;" class="cls-27" d="M336.65,12.92,333.1,11a2,2,0,0,1,2.69-.89A2.12,2.12,0,0,1,336.65,12.92Z"/><path id="_Path_110" data-name="&lt;Path&gt;" class="cls-26" d="M349.33,35.36s-5.26-1.06-7.1-2a6.06,6.06,0,0,1-2.54-2.52,8.28,8.28,0,0,0,1.45,3c1.34,1.72,8.2,3,8.2,3Z"/></g><g id="_Group_108" data-name="&lt;Group&gt;"><ellipse id="_Path_111" data-name="&lt;Path&gt;" class="cls-27" cx="348.45" cy="22.87" rx="1.1" ry="1.05" transform="translate(324.62 371.25) rotate(-89.84)"/><path id="_Path_112" data-name="&lt;Path&gt;" class="cls-27" d="M348.38,18.89l-2.26,1.24a1.35,1.35,0,0,1,.53-1.8A1.26,1.26,0,0,1,348.38,18.89Z"/><path id="_Path_113" data-name="&lt;Path&gt;" class="cls-26" d="M348.86,29.92l2.41.9a1.26,1.26,0,0,1-1.63.8A1.35,1.35,0,0,1,348.86,29.92Z"/><path id="_Path_114" data-name="&lt;Path&gt;" class="cls-27" d="M358.9,19.77l-2.06-1.58a1.25,1.25,0,0,1,1.79-.27A1.36,1.36,0,0,1,358.9,19.77Z"/><ellipse id="_Path_115" data-name="&lt;Path&gt;" class="cls-27" cx="357.21" cy="22.57" rx="1.1" ry="1.05" transform="translate(333.65 379.72) rotate(-89.84)"/><polygon id="_Path_116" data-name="&lt;Path&gt;" class="cls-26" points="353.3 22.44 352.31 28.71 355.78 28.31 353.3 22.44"/></g></g><path id="_Path_117" data-name="&lt;Path&gt;" class="cls-27" d="M359.3,185l-.21-.94c.69.13,3.65,5,6.58,7.17,3.21,2.34,6,3.72,7.43,4.77,1.92,1.41-.86,4.29-5.58,4.55-2.34.13-6.61-.59-7.93-1.83s-2.27-3.32-3.31-4.21-3.15-1.68-3.87-2.83a8.16,8.16,0,0,1-.41-3.54c0-1.23.08-2.59.5-2.57l.16.72a8.19,8.19,0,0,0,4,.88C357.79,187.14,359.85,186.88,359.3,185Z"/></g><path id="_Path_118" data-name="&lt;Path&gt;" class="cls-27" d="M352.23,126.74s-2.8-19.92-3.55-23c0,0,4.52-2.51,6.24-4.46a51.14,51.14,0,0,1-4.26,5.33Z"/><path id="_Path_119" data-name="&lt;Path&gt;" class="cls-27" d="M335.32,126.08s3.37,8.39,4.73,10.24c0,0-.34,6.39-.29,7.68L338,145.55a40,40,0,0,1,.79-8.62A52.06,52.06,0,0,1,335.32,126.08Z"/><path id="_Path_120" data-name="&lt;Path&gt;" class="cls-17" d="M331.15,122.71"/></g><g id="Credit_card" data-name="Credit card"><g id="_Group_109" data-name="&lt;Group&gt;"><path id="_Path_121" data-name="&lt;Path&gt;" class="cls-6" d="M114.85,249.95l122.46-70.7a3.83,3.83,0,0,1,3.46,0l77.78,44.9a3.83,3.83,0,0,1,1.73,3v.69a3.83,3.83,0,0,1-1.73,3l-122.46,70.7a3.79,3.79,0,0,1-3.46,0l-77.79-45.65a3.41,3.41,0,0,1,0-5.93Z"/></g><g id="_Group_110" data-name="&lt;Group&gt;" class="cls-7"><path id="_Path_122" data-name="&lt;Path&gt;" class="cls-11" d="M114.85,249.95l122.46-70.7a3.83,3.83,0,0,1,3.46,0l77.78,44.9a3.83,3.83,0,0,1,1.73,3v.69a3.83,3.83,0,0,1-1.73,3l-122.46,70.7a3.79,3.79,0,0,1-3.46,0l-77.79-45.65a3.41,3.41,0,0,1,0-5.93Z"/></g><g id="_Group_111" data-name="&lt;Group&gt;"><path id="_Path_123" data-name="&lt;Path&gt;" class="cls-10" d="M113.11,252.91a3.82,3.82,0,0,0,1.72,3l77.79,45.65a6.36,6.36,0,0,0,1.73.42V288.47l-4.06-53.94-44.68-2.34-30.76,17.76A3.79,3.79,0,0,0,113.11,252.91Z"/><line id="_Path_124" data-name="&lt;Path&gt;" class="cls-10" x1="114.84" y1="255.88" x2="192.63" y2="301.53"/></g><g id="_Group_112" data-name="&lt;Group&gt;"><path id="_Path_125" data-name="&lt;Path&gt;" class="cls-18" d="M113.11,252.91a3.82,3.82,0,0,0,1.72,3l77.79,45.65a6.36,6.36,0,0,0,1.73.42V288.47l-4.06-53.94-44.68-2.34-30.76,17.76A3.79,3.79,0,0,0,113.11,252.91Z"/><line id="_Path_126" data-name="&lt;Path&gt;" class="cls-10" x1="114.84" y1="255.88" x2="192.63" y2="301.53"/></g><g id="_Group_113" data-name="&lt;Group&gt;" class="cls-7"><path id="_Path_127" data-name="&lt;Path&gt;" d="M113.11,252.91a3.82,3.82,0,0,0,1.72,3l77.79,45.65a6.36,6.36,0,0,0,1.73.42V288.47l-4.06-53.94-44.68-2.34-30.76,17.76A3.79,3.79,0,0,0,113.11,252.91Z"/><line id="_Path_128" data-name="&lt;Path&gt;" x1="114.84" y1="255.88" x2="192.63" y2="301.53"/></g><g id="_Group_114" data-name="&lt;Group&gt;"><path id="_Path_129" data-name="&lt;Path&gt;" class="cls-6" d="M240.77,179.25l77.78,44.9a1.06,1.06,0,0,1,0,2l-122.46,70.7a3.83,3.83,0,0,1-3.46,0l-77.78-44.9a1.06,1.06,0,0,1,0-2l122.46-70.7A3.83,3.83,0,0,1,240.77,179.25Z"/></g><g id="_Group_115" data-name="&lt;Group&gt;"><path id="_Compound_Path_" data-name="&lt;Compound Path&gt;" class="cls-11" d="M182.8,230a1.45,1.45,0,0,1-.63-.21l-7.6-4.39c-.23-.13-.35-.25-.37-.37s.08-.23.29-.36l3.39-2a5.08,5.08,0,0,1,2.64-.75,5.15,5.15,0,0,1,2.52.72,2,2,0,0,1,.81.76.74.74,0,0,1,0,.78,3.88,3.88,0,0,1,3,.45q1.2.69,1.23,1.55t-1.36,1.66l-3.35,1.94A1.13,1.13,0,0,1,182.8,230Zm-1.86-5c.24-.14.35-.28.34-.43s-.14-.31-.4-.46a1.6,1.6,0,0,0-.79-.24,1.46,1.46,0,0,0-.74.22l-1.25.72,1.59.92Zm3.72,1.93q.36-.21.32-.47c0-.17-.18-.33-.44-.48a1.8,1.8,0,0,0-.89-.26,1.56,1.56,0,0,0-.81.21l-1.4.81,1.77,1Z"/><path id="_Compound_Path_2" data-name="&lt;Compound Path&gt;" class="cls-11" d="M189.17,226.27a.77.77,0,0,1-.21-.18l-5.09-6.27a.51.51,0,0,1-.15-.32q0-.12.23-.24l1-.6a.9.9,0,0,1,.42-.13,2,2,0,0,1,.55.09l10.87,2.94a1.42,1.42,0,0,1,.31.11c.08,0,.12.09.12.14s0,.1-.11.14l-1.76,1a.73.73,0,0,1-.32.1,1.14,1.14,0,0,1-.39-.05l-1.66-.5-2.39,1.38.87,1a.29.29,0,0,1,.1.23c0,.06-.08.13-.19.19l-1.75,1A.45.45,0,0,1,189.17,226.27Zm1.55-4.5-2.93-.89,1.54,1.69Z"/><path id="_Compound_Path_3" data-name="&lt;Compound Path&gt;" class="cls-11" d="M198.09,221.21a1.45,1.45,0,0,1-.63-.21l-7.61-4.4c-.23-.13-.35-.25-.36-.37s.09-.23.31-.36l.9-.52a1.17,1.17,0,0,1,.39-.15,1.66,1.66,0,0,1,.5,0l7,1-4-2.32c-.23-.13-.35-.25-.37-.37s.08-.23.29-.36l1.1-.64a1.14,1.14,0,0,1,.63-.17,1.46,1.46,0,0,1,.64.21l7.61,4.4c.23.13.35.25.36.36s-.09.23-.31.36l-.9.52a1.22,1.22,0,0,1-.39.16,1.51,1.51,0,0,1-.48,0l-7-1,4,2.33q.34.2.36.36c0,.11-.1.23-.32.36l-1.1.64A1.13,1.13,0,0,1,198.09,221.21Z"/><path id="_Compound_Path_4" data-name="&lt;Compound Path&gt;" class="cls-11" d="M212.74,212.64c.08,0,.12.09.12.14s0,.1-.11.14l-1.76,1a1.1,1.1,0,0,1-.27.12.84.84,0,0,1-.29,0l-5.93-.85,3.22,1.86c.23.13.35.25.36.37s-.09.23-.31.36l-1.1.64a1.12,1.12,0,0,1-.62.17,1.43,1.43,0,0,1-.63-.21l-7.6-4.39c-.23-.13-.35-.25-.37-.37s.08-.24.29-.36l1.1-.64a1.13,1.13,0,0,1,.63-.17,1.44,1.44,0,0,1,.64.21l3.15,1.82-1.5-3.33a.16.16,0,0,1,0-.17.66.66,0,0,1,.22-.17l1.75-1a.46.46,0,0,1,.24-.06.49.49,0,0,1,.25.07.32.32,0,0,1,.17.19l1.49,3.67,6.53.85A.79.79,0,0,1,212.74,212.64Z"/><path id="_Compound_Path_5" data-name="&lt;Compound Path&gt;" class="cls-11" d="M217.22,209.2a9.46,9.46,0,0,1-4.59-1.36q-2.3-1.33-2.39-2.64t1.92-2.47a9.14,9.14,0,0,1,1.78-.79,7.64,7.64,0,0,1,1.75-.35.6.6,0,0,1,.36.06.68.68,0,0,1,.2.21l.47.84c.07.09.07.16,0,.2a1.11,1.11,0,0,1-.32.08,5.41,5.41,0,0,0-2,.68q-1.06.61-.93,1.35t1.49,1.52a5.85,5.85,0,0,0,2.69.84,4.3,4.3,0,0,0,2.38-.56,2.72,2.72,0,0,0,1.21-1.2.4.4,0,0,1,.14-.18.52.52,0,0,1,.34,0l1.52.29a1,1,0,0,1,.3.1.2.2,0,0,1,.1.22q-.19,1-2.06,2.07A8.2,8.2,0,0,1,217.22,209.2Z"/><path id="_Compound_Path_6" data-name="&lt;Compound Path&gt;" class="cls-11" d="M224.29,206a.76.76,0,0,1-.21-.18L219,199.53a.51.51,0,0,1-.15-.32c0-.08.08-.16.22-.24l1-.6a.88.88,0,0,1,.42-.13,2,2,0,0,1,.55.09l10.87,2.94a1.37,1.37,0,0,1,.31.11c.08,0,.12.09.12.14s0,.1-.11.14l-1.76,1a.73.73,0,0,1-.32.1,1.14,1.14,0,0,1-.39-.05l-1.66-.5-2.39,1.38.87,1a.29.29,0,0,1,.1.23c0,.06-.08.13-.19.19l-1.75,1A.45.45,0,0,1,224.29,206Zm1.55-4.5-2.92-.89,1.54,1.69Z"/><path id="_Compound_Path_7" data-name="&lt;Compound Path&gt;" class="cls-11" d="M233.22,200.93a1.43,1.43,0,0,1-.63-.21l-7.6-4.39c-.23-.13-.35-.25-.37-.37s.08-.24.29-.36l2.8-1.61a6.11,6.11,0,0,1,3.09-.91,6,6,0,0,1,3,.88q1.88,1.08,1.33,2.21l3.95,1a.94.94,0,0,1,.25.09c.08,0,.12.1.12.16s0,.11-.12.16l-1.59.92a1,1,0,0,1-.32.12.74.74,0,0,1-.34,0l-3.61-1-.87.51,2.26,1.3c.23.13.35.25.36.37s-.09.23-.31.36l-1.1.64A1.12,1.12,0,0,1,233.22,200.93Zm-1.63-4.41q1-.6-.07-1.23a2,2,0,0,0-2.09-.08l-.9.52,2.22,1.28Z"/><path id="_Compound_Path_8" data-name="&lt;Compound Path&gt;" class="cls-11" d="M240.44,196.76a1.43,1.43,0,0,1-.63-.21l-7.6-4.39c-.23-.13-.35-.25-.37-.37s.08-.23.29-.36l2.5-1.44a7.72,7.72,0,0,1,4.06-1.09,9.14,9.14,0,0,1,4.4,1.36q2.24,1.3,2.33,2.53t-1.86,2.35l-2.5,1.44A1.11,1.11,0,0,1,240.44,196.76Zm1.32-2.78q.82-.47.64-1c-.12-.37-.65-.83-1.6-1.37a6.38,6.38,0,0,0-2.37-.92,2.88,2.88,0,0,0-1.77.37l-.9.52,5.11,2.95Z"/></g><g id="_Group_116" data-name="&lt;Group&gt;"><path id="_Path_130" data-name="&lt;Path&gt;" class="cls-4" d="M139.22,254.64l20.91-12.07a3.82,3.82,0,0,1,3.46,0l16.85,9.73a1.06,1.06,0,0,1,0,2l-20.91,12.07a3.83,3.83,0,0,1-3.46,0l-16.85-9.73A1.06,1.06,0,0,1,139.22,254.64Z"/></g><g id="_Clip_Group_" data-name="&lt;Clip Group&gt;"><g class="cls-29"><g id="_Group_117" data-name="&lt;Group&gt;"><g id="_Group_118" data-name="&lt;Group&gt;"><path id="_Path_131" data-name="&lt;Path&gt;" class="cls-11" d="M170.08,265.46l-14.59-8.25a3.54,3.54,0,0,0-3.5,0l-10.19,5.89-.5-.87,10.19-5.89a4.54,4.54,0,0,1,4.49,0l14.59,8.25Z"/></g><g id="_Group_119" data-name="&lt;Group&gt;"><path id="_Path_132" data-name="&lt;Path&gt;" class="cls-11" d="M165.92,253.16a4.57,4.57,0,0,1-2.28-.61l-14.21-8.21.5-.87,14.21,8.21a3.59,3.59,0,0,0,3.57,0l10.15-5.86.5.87-10.15,5.86A4.57,4.57,0,0,1,165.92,253.16Z"/></g><g id="_Group_120" data-name="&lt;Group&gt;"><polygon id="_Path_133" data-name="&lt;Path&gt;" class="cls-11" points="162.11 251.38 161.61 250.52 173.04 243.91 169.98 242.15 158.05 249.04 157.55 248.17 169.98 240.99 175.04 243.91 162.11 251.38"/></g><g id="_Group_121" data-name="&lt;Group&gt;"><polygon id="_Path_134" data-name="&lt;Path&gt;" class="cls-11" points="149.67 267.94 144.61 265.02 157.63 257.55 158.13 258.42 146.61 265.02 149.67 266.79 161.69 259.85 162.19 260.71 149.67 267.94"/></g></g></g></g><g id="_Group_122" data-name="&lt;Group&gt;" class="cls-7"><path id="_Path_135" data-name="&lt;Path&gt;" d="M168.51,270.56l19.18-11.07a5.74,5.74,0,0,1,5.2,0l2.93,1.69c1.43.83,1.43,2.17,0,3l-19.18,11.07a5.74,5.74,0,0,1-5.2,0l-2.93-1.69C167.07,272.73,167.07,271.39,168.51,270.56Z"/></g><g id="_Group_123" data-name="&lt;Group&gt;"><path id="_Path_136" data-name="&lt;Path&gt;" d="M169.51,270.56l19.18-11.07a5.74,5.74,0,0,1,5.2,0l2.93,1.69c1.43.83,1.43,2.17,0,3l-19.18,11.07a5.74,5.74,0,0,1-5.2,0l-2.93-1.69C168.07,272.73,168.07,271.39,169.51,270.56Z"/></g><g id="_Group_124" data-name="&lt;Group&gt;"><path id="_Path_137" data-name="&lt;Path&gt;" class="cls-10" d="M196.94,254.14l19.18-11.07a5.74,5.74,0,0,1,5.2,0l2.93,1.69c1.43.83,1.43,2.17,0,3l-19.18,11.07a5.74,5.74,0,0,1-5.2,0l-2.93-1.69C195.51,256.32,195.51,255,196.94,254.14Z"/></g><path id="_Path_138" data-name="&lt;Path&gt;" d="M196.94,254.14l19.18-11.07a5.74,5.74,0,0,1,5.2,0l2.93,1.69c1.43.83,1.43,2.17,0,3l-19.18,11.07a5.74,5.74,0,0,1-5.2,0l-2.93-1.69C195.51,256.32,195.51,255,196.94,254.14Z"/><path id="_Path_139" data-name="&lt;Path&gt;" class="cls-18" d="M196.94,254.14l19.18-11.07a5.74,5.74,0,0,1,5.2,0l2.93,1.69c1.43.83,1.43,2.17,0,3l-19.18,11.07a5.74,5.74,0,0,1-5.2,0l-2.93-1.69C195.51,256.32,195.51,255,196.94,254.14Z"/><path id="_Path_140" data-name="&lt;Path&gt;" d="M225.38,237.73l19.18-11.07a5.74,5.74,0,0,1,5.2,0l2.93,1.69c1.43.83,1.43,2.17,0,3L233.5,242.42a5.74,5.74,0,0,1-5.2,0l-2.93-1.69C223.94,239.9,223.94,238.56,225.38,237.73Z"/><path id="_Path_141" data-name="&lt;Path&gt;" class="cls-18" d="M225.38,237.73l19.18-11.07a5.74,5.74,0,0,1,5.2,0l2.93,1.69c1.43.83,1.43,2.17,0,3L233.5,242.42a5.74,5.74,0,0,1-5.2,0l-2.93-1.69C223.94,239.9,223.94,238.56,225.38,237.73Z"/><path id="_Path_142" data-name="&lt;Path&gt;" d="M253.81,221.31,273,210.24a5.74,5.74,0,0,1,5.2,0l2.93,1.69c1.43.83,1.43,2.17,0,3L261.93,226a5.74,5.74,0,0,1-5.2,0l-2.93-1.69C252.38,223.48,252.38,222.14,253.81,221.31Z"/><path id="_Path_143" data-name="&lt;Path&gt;" class="cls-18" d="M253.81,221.31,273,210.24a5.74,5.74,0,0,1,5.2,0l2.93,1.69c1.43.83,1.43,2.17,0,3L261.93,226a5.74,5.74,0,0,1-5.2,0l-2.93-1.69C252.38,223.48,252.38,222.14,253.81,221.31Z"/><g id="_Group_125" data-name="&lt;Group&gt;" class="cls-18"><g id="_Group_126" data-name="&lt;Group&gt;"><path id="_Path_144" data-name="&lt;Path&gt;" d="M294.34,219.58c.84.49.75,1.33-.2,1.88l-49.34,28.49a3.62,3.62,0,0,1-3.26.12c-.84-.49-.75-1.33.21-1.88l49.34-28.49A3.62,3.62,0,0,1,294.34,219.58Z"/></g><g id="_Group_127" data-name="&lt;Group&gt;" class="cls-13"><path id="_Path_145" data-name="&lt;Path&gt;" d="M294.34,219.58c.84.49.75,1.33-.2,1.88l-49.34,28.49a3.62,3.62,0,0,1-3.26.12c-.84-.49-.75-1.33.21-1.88l49.34-28.49A3.62,3.62,0,0,1,294.34,219.58Z"/></g><g id="_Group_128" data-name="&lt;Group&gt;"><path id="_Path_146" data-name="&lt;Path&gt;" d="M302.51,224.27c.84.49.75,1.33-.21,1.88l-31.6,18.23a3.62,3.62,0,0,1-3.26.12c-.84-.49-.75-1.33.2-1.88l31.6-18.24A3.62,3.62,0,0,1,302.51,224.27Z"/></g><g id="_Group_129" data-name="&lt;Group&gt;" class="cls-13"><path id="_Path_147" data-name="&lt;Path&gt;" d="M302.51,224.27c.84.49.75,1.33-.21,1.88l-31.6,18.23a3.62,3.62,0,0,1-3.26.12c-.84-.49-.75-1.33.2-1.88l31.6-18.24A3.62,3.62,0,0,1,302.51,224.27Z"/></g></g></g></g></g></svg>