<svg xmlns="http://www.w3.org/2000/svg" xmlns:xlink="http://www.w3.org/1999/xlink" viewBox="0 0 512 270"><defs><style>.cls-1{fill:#070a30;}.cls-2{fill:url(#linear-gradient);}.cls-3{fill:url(#linear-gradient-2);}.cls-4{fill:url(#linear-gradient-3);}</style><linearGradient id="linear-gradient" x1="230.15" y1="149.92" x2="274.23" y2="149.92" gradientUnits="userSpaceOnUse"><stop offset="0" stop-color="#1e3769"/><stop offset="1" stop-color="#243a6b"/></linearGradient><linearGradient id="linear-gradient-2" x1="285.23" y1="166.66" x2="383.68" y2="166.66" gradientUnits="userSpaceOnUse"><stop offset="0" stop-color="#213c70"/><stop offset="1" stop-color="#2b4478"/></linearGradient><linearGradient id="linear-gradient-3" x1="383.36" y1="149.39" x2="475.23" y2="149.39" gradientUnits="userSpaceOnUse"><stop offset="0" stop-color="#234175"/><stop offset="1" stop-color="#31497c"/></linearGradient></defs><title>leapa_logo</title><g id="l"><path class="cls-1" d="M82.51,204.79q-13.1-.19-21.24-2.81a31.6,31.6,0,0,1-12.89-7.35,24.38,24.38,0,0,1-6.44-11.48A61.91,61.91,0,0,1,40.23,168V51.38l30-4.83V161.91a39.78,39.78,0,0,0,.6,7.25,12.42,12.42,0,0,0,2.32,5.43,12.24,12.24,0,0,0,4.93,3.63A27,27,0,0,0,86.74,180Z"/></g><g id="e"><path class="cls-1" d="M83.15,150q0-14,4.3-24.52A52.42,52.42,0,0,1,98.76,108a47.17,47.17,0,0,1,16.11-10.61,50.47,50.47,0,0,1,18.71-3.6q22.41,0,35.43,13.71t13,40.33c0,1.74-.07,3.64-.2,5.71s-.27,3.9-.4,5.5H113.77a19.76,19.76,0,0,0,8.61,14.61Q130,179,142.79,179a85.39,85.39,0,0,0,16.11-1.5,60.57,60.57,0,0,0,12.91-3.7l4,24.22a41,41,0,0,1-6.4,2.4,84,84,0,0,1-8.91,2.1c-3.27.6-6.77,1.11-10.51,1.5a102.5,102.5,0,0,1-11.2.6q-14.22,0-24.72-4.2a48,48,0,0,1-17.41-11.51,45.58,45.58,0,0,1-10.21-17.31A68.58,68.58,0,0,1,83.15,150Zm70-11a31.29,31.29,0,0,0-1.3-7.4,18.74,18.74,0,0,0-3.41-6.41,18.19,18.19,0,0,0-5.8-4.6,18.92,18.92,0,0,0-8.71-1.8,20,20,0,0,0-8.6,1.7,17.82,17.82,0,0,0-6,4.5,20.06,20.06,0,0,0-3.7,6.51,42.51,42.51,0,0,0-1.9,7.5Z"/></g><g id="a-1"><path class="cls-1" d="M227.85,94.25c-3.47,0-6.9.16-10.31.5s-6.63.73-9.7,1.2-5.91,1-8.51,1.6-4.77,1.17-6.5,1.7l3.8,24a65,65,0,0,1,12.81-3.11,102.51,102.51,0,0,1,15-1.1,41.87,41.87,0,0,1,6.47.52l2.69-25.16C231.76,94.31,229.86,94.25,227.85,94.25Z"/></g><g id="a-2"><path class="cls-1" d="M217.35,178.81q-4.71-2.7-4.71-9.71a10.56,10.56,0,0,1,1.6-6,11.26,11.26,0,0,1,4.41-3.81,20.9,20.9,0,0,1,6.5-1.9c.56-.07,1.17-.11,1.74-.17l2.18-20.31c-.55,0-1,0-1.62,0a79.91,79.91,0,0,0-16.61,1.7,44.7,44.7,0,0,0-14.21,5.5,28.53,28.53,0,0,0-9.91,10.21Q183,160.7,183,169.9q0,9.61,3.2,16.22a27.05,27.05,0,0,0,9.21,10.7,40,40,0,0,0,14.31,5.91,82.06,82.06,0,0,0,12.13,1.5L224.35,181A20.37,20.37,0,0,1,217.35,178.81Z"/></g><g id="a-3"><path class="cls-2" d="M272,119.06a32.15,32.15,0,0,0-7.6-13.8,34.81,34.81,0,0,0-14.31-8.72A51.89,51.89,0,0,0,242,94.61L239,122.19a11.87,11.87,0,0,1,1.53,1.13q4.66,4.67,4.67,12.37v2.84a48,48,0,0,0-7.79-1.36h0l-2.13,19.88c1.41.06,2.87.16,4.45.33,2.43.28,4.26.54,5.48.81v22.92a58.29,58.29,0,0,1-6.5.61c-1.93.1-4,.12-6.08.15l-2.5,23.35a170.5,170.5,0,0,0,26-1.9q11.56-1.92,18.05-3.34V137.11A67.9,67.9,0,0,0,272,119.06Z"/></g><g id="p"><path class="cls-3" d="M383.68,149.35a76.43,76.43,0,0,1-3,22.21,49.89,49.89,0,0,1-8.86,17.22A39.86,39.86,0,0,1,357.31,200a47,47,0,0,1-19.94,4,54,54,0,0,1-11.67-1.2,56,56,0,0,1-10.47-3.41V234l-30,5V100.31q4-1.2,9.26-2.3t11-1.9q5.75-.81,11.68-1.3c4-.34,7.75-.5,11.38-.5a65.44,65.44,0,0,1,23.35,3.9,47.93,47.93,0,0,1,17.31,11A47.12,47.12,0,0,1,380,126.53,66.25,66.25,0,0,1,383.68,149.35Zm-30.82,1.14q0-13.81-6.21-22.12t-18.41-8.3c-2.67,0-5.14.09-7.41.3s-4.14.43-5.6.7v53.84a25.81,25.81,0,0,0,7.3,3,35.23,35.23,0,0,0,9.11,1.2Q352.85,179.11,352.86,150.49Z"/></g><g id="a"><path class="cls-4" d="M428.79,93.52q13.38,0,22.31,3a34.63,34.63,0,0,1,14.29,8.72A32.07,32.07,0,0,1,473,119.07a68.31,68.31,0,0,1,2.23,18.05V200q-6.5,1.41-18.05,3.34a174,174,0,0,1-28,1.93,88.54,88.54,0,0,1-18.76-1.83,40.52,40.52,0,0,1-14.49-6,27.32,27.32,0,0,1-9.33-10.85q-3.25-6.69-3.25-16.42,0-9.33,3.75-15.82a28.88,28.88,0,0,1,10-10.35,45.56,45.56,0,0,1,14.4-5.57,80.67,80.67,0,0,1,16.83-1.73,94.91,94.91,0,0,1,10.44.51,46.89,46.89,0,0,1,7.41,1.32V135.7q0-7.71-4.67-12.37t-16.22-4.67a103.75,103.75,0,0,0-15.21,1.12,65.19,65.19,0,0,0-13,3.14L393.3,98.59q2.63-.81,6.59-1.73c2.63-.61,5.5-1.14,8.62-1.62s6.39-.88,9.83-1.22S425.27,93.52,428.79,93.52Zm2.63,88c2.93,0,5.73-.06,8.4-.2a57.2,57.2,0,0,0,6.41-.6V158.1a52.38,52.38,0,0,0-5.41-.8,58.11,58.11,0,0,0-14.51.09,20.9,20.9,0,0,0-6.5,1.9,11.16,11.16,0,0,0-4.4,3.81,10.49,10.49,0,0,0-1.61,6q0,7,4.71,9.71T431.42,181.51Z"/></g></svg>