<svg xmlns="http://www.w3.org/2000/svg" xmlns:xlink="http://www.w3.org/1999/xlink" viewBox="0 0 512 512"><defs><style>.cls-1{fill:url(#linear-gradient);}.cls-2{fill:url(#linear-gradient-2);}</style><linearGradient id="linear-gradient" x1="290.23" y1="256.01" x2="514.26" y2="256.01" gradientUnits="userSpaceOnUse"><stop offset="0" stop-color="#1e3769"/><stop offset="1" stop-color="#243a6b"/></linearGradient><linearGradient id="linear-gradient-2" x1="0.23" y1="256.01" x2="325.62" y2="256.01" gradientUnits="userSpaceOnUse"><stop offset="0" stop-color="#00002b"/><stop offset="1" stop-color="#0e1034"/></linearGradient></defs><title>leapa_favicon</title><g id="fav-2"><path class="cls-1" d="M512.23,0H286V322a174.89,174.89,0,0,0,2.69,32.25q2.67,14.34,10.3,24.2t22,16.13q14.32,6.27,38.53,8.07L340.83,512h171.4Z"/></g><g id="fav-1"><path class="cls-2" d="M246.15,500.31q-36.3-11.64-57.35-32.72t-28.67-51.07q-7.63-30-7.63-67.66V20.64L280.61,0H.23V512H317.47q-16.79-1-31.44-3A237.12,237.12,0,0,1,246.15,500.31Z"/></g></svg>