<svg xmlns="http://www.w3.org/2000/svg" width="544" height="436.61" viewBox="0 0 544 436.61">
  <g id="main_image" transform="translate(-960 -208.39)">
    <g id="environment" transform="translate(952 219.843)" opacity="0.654">
      <g id="bg_image">
        <g id="OBJECTS">
          <ellipse id="Ellipse_78" data-name="Ellipse 78" cx="199.826" cy="3.552" rx="199.826" ry="3.552" transform="translate(65.692 417.754)" fill="#d4d4d4" opacity="0.35"/>
          <rect id="Rectangle_544" data-name="Rectangle 544" width="34.05" height="97.991" transform="translate(252.38 290.81)" fill="#c4c4c4"/>
          <g id="Group_73" data-name="Group 73" transform="translate(38.456)">
            <path id="Path_1315" data-name="Path 1315" d="M86.656,230.73H236.97a5.718,5.718,0,0,1,5.718,5.718V338.842H80.89V236.448a5.718,5.718,0,0,1,5.766-5.718Z" transform="translate(17.515 49.958)" fill="#ebebeb"/>
            <path id="Path_1316" data-name="Path 1316" d="M225.515,230.73H375.78a5.718,5.718,0,0,1,5.718,5.718V338.843H219.7V236.448a5.718,5.718,0,0,1,5.815-5.718Z" transform="translate(47.57 49.958)" fill="#ebebeb"/>
            <path id="Path_1317" data-name="Path 1317" d="M85.03,293.06H407.481a4.1,4.1,0,0,1,4.1,4.1v28.187H80.93V297.16A4.1,4.1,0,0,1,85.03,293.06Z" transform="translate(17.523 63.454)" fill="#d8d8d8"/>
            <path id="Path_1318" data-name="Path 1318" d="M58.715,275.17H82.558a4.051,4.051,0,0,1,4.051,4.051v63.612H54.7V279.221a4.051,4.051,0,0,1,4.015-4.051Z" transform="translate(11.844 59.581)" fill="#c4c4c4"/>
            <path id="Path_1319" data-name="Path 1319" d="M356.781,275.17h23.807a4.051,4.051,0,0,1,4.1,4.051v63.612H352.73V279.221A4.051,4.051,0,0,1,356.781,275.17Z" transform="translate(76.374 59.581)" fill="#c4c4c4"/>
            <rect id="Rectangle_545" data-name="Rectangle 545" width="330.651" height="13.601" transform="translate(98.453 388.801)" fill="#ebebeb"/>
            <path id="Path_1320" data-name="Path 1320" d="M80.93,330.78v17.664h6.229l5.973-17.664Z" transform="translate(17.523 71.622)" fill="#c4c4c4"/>
            <path id="Path_1321" data-name="Path 1321" d="M354.9,330.78v17.664h-6.216L342.7,330.78Z" transform="translate(74.203 71.622)" fill="#c4c4c4"/>
          </g>
          <path id="Path_1322" data-name="Path 1322" d="M407.907,282.575l-.3,9.659H84.908l-.3-9.659L80.93,278.5v17.713H411.581V278.5Z" transform="translate(17.523 60.302)" fill="#d4d4d4" opacity="0.35"/>
          <g id="Group_74" data-name="Group 74" transform="translate(114.417)">
            <circle id="Ellipse_79" data-name="Ellipse 79" cx="35.06" cy="35.06" r="35.06" transform="translate(366.063 20.859) rotate(-0.13)" fill="#f3f3f3"/>
            <path id="Path_1323" data-name="Path 1323" d="M335.295,19.79a31.338,31.338,0,1,0,31.411,31.277A31.338,31.338,0,0,0,335.295,19.79Z" transform="translate(65.83 4.285)" fill="#fff"/>
            <path id="Path_1324" data-name="Path 1324" d="M336.344,88.427a36.4,36.4,0,1,1,36.313-36.5,36.4,36.4,0,0,1-36.313,36.5ZM336.2,20.691a31.338,31.338,0,1,0,31.411,31.277A31.338,31.338,0,0,0,336.2,20.691Z" transform="translate(64.927 3.384)" fill="#d8d8d8"/>
            <path id="Path_1325" data-name="Path 1325" d="M331.738,54.78a1.9,1.9,0,0,1-1.691-1.022l-8.333-16.253a1.9,1.9,0,1,1,3.37-1.74l8.333,16.192a1.9,1.9,0,0,1-1.679,2.762Z" transform="translate(69.605 7.506)" fill="#d8d8d8"/>
            <path id="Path_1326" data-name="Path 1326" d="M324.47,50.693a.949.949,0,0,1-.158-1.886l30.948-5.4a.949.949,0,1,1,.328,1.861l-30.948,5.4Z" transform="translate(70.048 9.391)" fill="#ebebeb"/>
          </g>
          <path id="Path_1327" data-name="Path 1327" d="M376.262,182.07s-6.7,4.611.353,10.34,9.27,13.528,10.5,20.292c1.569,8.686,6.338,25.547,27.554,18.856,0,0,9.136-5.791.328-19.915s-11.362-4.489-19.464-18.382S379.23,181.656,376.262,182.07Z" transform="translate(80.847 39.337)" fill="#ebebeb"/>
          <path id="Path_1328" data-name="Path 1328" d="M424.363,260.817s4.951-31.8-44.4-73.977" transform="translate(82.27 40.455)" fill="none" stroke="#d8d8d8" stroke-linecap="round" stroke-linejoin="round" stroke-width="0.74"/>
          <path id="Path_1329" data-name="Path 1329" d="M458.4,204.644s3.808,3.747-1.411,6.642-7.542,7.688-9.112,11.922c-2.007,5.438-7.031,15.815-19.975,9.039,0,0-5.243-4.793,2.068-12.907s7.859-1.606,14.683-9.659S456.517,204.036,458.4,204.644Z" transform="translate(92.257 44.135)" fill="#ebebeb"/>
          <path id="Path_1330" data-name="Path 1330" d="M417.168,256.914s-3.5-22.226,31.046-44.464" transform="translate(90.305 46)" fill="none" stroke="#d8d8d8" stroke-linecap="round" stroke-linejoin="round" stroke-width="0.83"/>
          <path id="Path_1331" data-name="Path 1331" d="M422.327,181.75s-5.341-.146-3.808,5.62-.316,10.766-2.275,14.829c-2.53,5.219-6.533,16.034,7.3,20.681,0,0,7.092.462,7.883-10.438s-4.294-6.776-3.212-17.275S424.054,182.687,422.327,181.75Z" transform="translate(89.574 39.353)" fill="#ebebeb"/>
          <path id="Path_1332" data-name="Path 1332" d="M416.44,260.095s7.737-27.98,5.742-74.135" transform="translate(90.169 40.265)" fill="none" stroke="#d8d8d8" stroke-linecap="round" stroke-linejoin="round" stroke-width="0.83"/>
          <path id="Path_1333" data-name="Path 1333" d="M419.533,254.511l.426-3.017a10.6,10.6,0,0,1,.535-2.36l1.3-3.114h-6.083l1.3,3.114a10.619,10.619,0,0,1,.535,2.36l.426,3.017c-13.856,11.143-12.348,41.508-12.348,41.508h26.253S433.39,265.667,419.533,254.511Z" transform="translate(87.818 53.269)" fill="#d8d8d8"/>
          <rect id="Rectangle_546" data-name="Rectangle 546" width="2.37" height="74.644" transform="matrix(0.816, -0.577, 0.577, 0.816, 487.471, 352.183)" fill="#666"/>
          <rect id="Rectangle_547" data-name="Rectangle 547" width="74.317" height="2.36" transform="translate(484.771 410.651) rotate(-54.68)" fill="#666"/>
          <rect id="Rectangle_548" data-name="Rectangle 548" width="59.561" height="4.221" transform="translate(477.327 348.631)" fill="#464646"/>
          <g id="Group_72" data-name="Group 72" transform="translate(-52.125)">
            <rect id="Rectangle_549" data-name="Rectangle 549" width="200.106" height="221.006" transform="translate(71.702 3.917)" fill="#fff"/>
            <path id="Path_1335" data-name="Path 1335" d="M263.247,228.828H56V0H263.247ZM63.153,221.006H256.118V7.822H63.153Z" transform="translate(12.125)" fill="#ebebeb"/>
            <rect id="Rectangle_550" data-name="Rectangle 550" width="144" height="162.163" transform="translate(99.67 32.104)" fill="#f5f5f5"/>
            <circle id="Ellipse_80" data-name="Ellipse 80" cx="22.129" cy="22.129" r="22.129" transform="translate(113.806 48.308)" fill="#d8d8d8"/>
            <circle id="Ellipse_81" data-name="Ellipse 81" cx="41.508" cy="41.508" r="41.508" transform="translate(151.567 95.083)" fill="#d8d8d8"/>
            <rect id="Rectangle_551" data-name="Rectangle 551" width="19.854" height="44.208" transform="translate(170.289 79.159) rotate(-90)" fill="#ebebeb"/>
          </g>
          <rect id="Rectangle_552" data-name="Rectangle 552" width="7.859" height="20.863" rx="2.24" transform="translate(122.151 164.255) rotate(180)" fill="#d8d8d8"/>
        </g>
      </g>
    </g>
    <g id="front_image" transform="translate(672.253 -219.442)">
      <g id="Plant" transform="translate(287.747 711.434)">
        <path id="Path_1077" data-name="Path 1077" d="M69.136,371.092c16.5-11.535,19.944-32.756,19.29-52-.106-3.211.261-6.829-1.258-9.645s-5.094-4.7-7.968-3.355c-2.384,1.125-3.277,3.993-4.613,6.29a18.69,18.69,0,0,1-7.548,7.129c-2.047,1.057-4.691,1.954-6.71.839-2.768-1.528-2.955-5.615-2.935-8.806.038-5.953-.038-11.66,0-17.613,0-3.191.123-6.608-.839-9.645a10,10,0,0,0-6.29-6.71c-3.038-.884-6.9.65-7.548,3.774a32.769,32.769,0,0,0,0,4.194c-.087,1.327-.457,2.99-1.677,3.355s-2.823-.745-3.774-1.677c-3.3-3.22-5.462-7.17-7.548-11.323s-4.14-8.643-7.129-12.161a17.011,17.011,0,0,0-11.742-6.29c-4.576-.26-9.359,2.221-10.484,6.71s1.339,9.357,4.194,13A71.121,71.121,0,0,0,19.652,291a6.581,6.581,0,0,1,2.516,2.935c.692,2.124-1.679,4.331-3.774,5.032-2.384.788-4.639.55-7.129.839s-5.348,1.419-6.29,3.774c-1.307,3.268,1.512,6.605,4.194,8.806A61.03,61.03,0,0,0,27.2,322.866c2.345.856,4.787,1.282,6.71,2.936s3.212,4.918,2.1,7.129-4.249,2.968-6.71,2.516-4.784-2.051-7.129-2.935c-4.5-1.577-10.193-1.329-13,2.516-1.846,2.49-1.771,6.256-.839,9.226a21.366,21.366,0,0,0,4.613,7.548,62.066,62.066,0,0,0,26.419,18.452c10.18,3.528,19.652,4.539,29.774.839" transform="translate(-0.083 -257.428)" fill="#1e3769"/>
        <path id="Path_1078" data-name="Path 1078" d="M5.287,259.768a4.171,4.171,0,0,0,.419.419l.839.839c.836.74,1.8,1.9,3.355,3.355a121.839,121.839,0,0,1,12.581,13c2.374,2.961,4.5,6.421,7.129,10.065s5.257,7.522,7.968,11.742a141.691,141.691,0,0,1,7.968,13.419c1.23,2.442,2.23,5.363,3.355,7.968l3.774,7.548A297.514,297.514,0,0,1,64,359.155a139.925,139.925,0,0,1,5.032,26,104.5,104.5,0,0,1,.419,18.032c-.163,2.124-.266,3.917-.419,5.032v1.258a2.387,2.387,0,0,0,0,.419,2.248,2.248,0,0,0,0-.419V408.22c.192-1.105.637-2.908.839-5.032a99.182,99.182,0,0,0-.419-18.032,140.881,140.881,0,0,0-5.032-26.419,283.449,283.449,0,0,0-11.323-30.613l-3.355-7.968c-1.115-2.6-2.534-5.1-3.774-7.548a141.827,141.827,0,0,0-7.548-13.839c-2.768-4.374-5.792-8.08-8.387-11.742s-5.145-7.114-7.548-10.065a110.969,110.969,0,0,0-12.161-13c-1.576-1.423-2.919-2.224-3.774-2.935l-.839-.839C5.587,260.088,5.423,259.842,5.287,259.768Z" transform="translate(-0.396 -257.233)"/>
        <path id="Path_1079" data-name="Path 1079" d="M47.447,313.424a9.855,9.855,0,0,0,.419-1.677c.163-.884.189-1.759.419-3.355.452-3.182,1.206-7.678,1.677-12.581s.758-9.418,1.258-12.581c.25-1.586.675-2.919.839-3.774a5.238,5.238,0,0,0,0-1.258,5.739,5.739,0,0,0-.419,1.258c-.231.865-.541,2.2-.839,3.774-.606,3.153-1.178,7.707-1.677,12.581l-1.258,12.161-.419,3.774A9.089,9.089,0,0,0,47.447,313.424Z" transform="translate(-1.879 -258.05)"/>
        <path id="Path_1080" data-name="Path 1080" d="M4.687,306.24a9.87,9.87,0,0,0,1.677.419c1.057.1,2.729.2,4.613.419,3.758.4,8.587,1.02,14.258,2.1s11.025,2.384,14.677,3.355c1.836.471,3.175.97,4.194,1.258a9.632,9.632,0,0,0,1.677.419,11.262,11.262,0,0,0-1.677-.839c-.961-.356-2.367-.729-4.194-1.258-3.643-1.077-8.577-2.278-14.258-3.355a144.992,144.992,0,0,0-14.677-2.1c-1.922-.163-3.546-.4-4.613-.419A9.069,9.069,0,0,0,4.687,306.24Z" transform="translate(-0.216 -258.834)"/>
        <path id="Path_1081" data-name="Path 1081" d="M66.41,360.485c.115-.153-.07-.66,0-.839l.839-1.258c.606-1.288,1.526-3.1,2.516-5.452,1.98-4.7,4.428-11.566,7.129-18.871s5.245-13.713,7.129-18.452l2.1-5.871.839-1.258c.082-.174-.032-.23,0-.419-.115.154-.349.241-.419.419l-.419,1.258c-.567,1.307-1.536,3.145-2.516,5.452-1.98,4.7-4.428,11.566-7.129,18.871s-5.245,13.713-7.129,18.452l-2.1,5.871-.839,1.258C66.33,359.811,66.445,360.3,66.41,360.485Z" transform="translate(-2.809 -259.401)"/>
        <path id="Path_1082" data-name="Path 1082" d="M9.795,344.189c.169.1.231-.05.419,0l1.677.419,5.871,2.1c4.931,1.6,11.364,3.714,18.871,6.29s14.321,4.829,19.29,6.29c2.48.75,4.468,1.3,5.871,1.677l1.677.419c.186.061.643.411.839.419a5.787,5.787,0,0,0-.839-.419l-1.258-.419-5.871-2.1c-4.931-1.6-11.783-3.7-19.29-6.29s-14.321-4.829-19.29-6.29c-2.48-.75-4.468-1.3-5.871-1.677l-1.677-.419C10.027,344.131,9.991,344.195,9.795,344.189Z" transform="translate(-0.71 -260.719)"/>
      </g>
      <g id="Device" transform="translate(-38.844 850.18) rotate(-90)">
        <path id="Path_1112" data-name="Path 1112" d="M11.971,0,7.724,7.724,0,11.971,7.724,16.2l4.247,7.745L16.2,16.2l7.745-4.226L16.2,7.724Z" transform="translate(359.319 456.591)" fill="#0c1528"/>
        <path id="Path_1113" data-name="Path 1113" d="M11.971,0,7.724,7.745,0,11.992l7.724,4.226,4.247,7.724L16.2,16.218l7.745-4.226L16.2,7.745Z" transform="translate(383.241 494.462)" fill="#0c1528"/>
        <path id="Path_1114" data-name="Path 1114" d="M7.37,0,4.747,4.768,0,7.37,4.747,9.952,7.37,14.719l2.6-4.768L14.719,7.37l-4.747-2.6Z" transform="translate(340.795 498.832)" fill="#0c1528"/>
        <path id="Path_1115" data-name="Path 1115" d="M7.349,0l-2.6,4.768L0,7.37l4.747,2.6,2.6,4.747,2.6-4.747,4.768-2.6-4.768-2.6Z" transform="translate(407.629 540.951)" fill="#0c1528"/>
        <g id="Group_68" data-name="Group 68" transform="translate(0 49.965)">
          <g id="Group_61" data-name="Group 61" transform="translate(395.078 468.597) rotate(90)">
            <path id="Path_1083" data-name="Path 1083" d="M166.565,403.469l-136.9-.629A29.823,29.823,0,0,1,0,372.882L1.48,29.7A29.823,29.823,0,0,1,31.439,0l136.9.629a29.823,29.823,0,0,1,29.687,29.946L196.573,373.77a29.823,29.823,0,0,1-30.008,29.7Z" transform="translate(0 0)" fill="#263238"/>
            <path id="Path_1084" data-name="Path 1084" d="M159,.592,132.463.469a6.6,6.6,0,0,0-6.475,6.709v4.81a6.586,6.586,0,0,1-6.475,6.709l-51.739-.234a6.6,6.6,0,0,1-6.413-6.771V6.882A6.6,6.6,0,0,0,54.946.111H45.61L22.386,0A20.881,20.881,0,0,0,1.419,20.795L0,355.775a20.881,20.881,0,0,0,20.782,20.967l136.619.629a20.881,20.881,0,0,0,20.967-20.794L179.787,21.6A20.881,20.881,0,0,0,159,.592Z" transform="translate(9.102 10.71)" fill="#fff"/>
          </g>
          <g id="Group_32" data-name="Group 32" transform="translate(129.242 524.092)">
            <rect id="Rectangle_480" data-name="Rectangle 480" width="77.336" height="74.489" transform="translate(74.489 0) rotate(90)" fill="#ff2f53"/>
            <g id="Group_25" data-name="Group 25" transform="translate(95.365 0) rotate(90)" opacity="0.83">
              <path id="Path_1085" data-name="Path 1085" d="M21.35,0,0,20.876H77.336L92.519,0Z" transform="translate(0 0)" fill="#8d051c"/>
            </g>
            <path id="Path_1087" data-name="Path 1087" d="M0,95.365,15.183,74.489V0L0,20.876Z" transform="translate(95.365 77.336) rotate(90)" fill="#580110"/>
            <rect id="Rectangle_481" data-name="Rectangle 481" width="40.329" height="4.745" transform="translate(43.65 16.606) rotate(90)" fill="#93041d"/>
            <rect id="Rectangle_483" data-name="Rectangle 483" width="25.621" height="4.27" transform="translate(35.584 24.197) rotate(90)" fill="#93041d"/>
          </g>
          <g id="Group_31" data-name="Group 31" transform="translate(181.93 485.582)">
            <path id="Path_1089" data-name="Path 1089" d="M39.261,19.84a42.185,42.185,0,0,0-.8-4.683A19.274,19.274,0,0,0,31.414,4.725a18.948,18.948,0,1,0-.072,30.23,19.274,19.274,0,0,0,7.051-10.414,42.22,42.22,0,0,0,.8-4.683,14.914,14.914,0,0,1-.416,4.773,19.255,19.255,0,0,1-7.015,10.848A19.455,19.455,0,0,1,23.5,39.222,19.784,19.784,0,1,1,23.5.35a19.454,19.454,0,0,1,8.263,3.743A19.255,19.255,0,0,1,38.773,14.94a14.917,14.917,0,0,1,.488,4.9Z" transform="matrix(0.259, 0.966, -0.966, 0.259, 38.223, 0)" fill="#263238"/>
            <path id="Path_1090" data-name="Path 1090" d="M0,4.52C0,1.808,1.519,0,3.761,0S7.521,1.808,7.521,4.52,5.966,9.04,3.761,9.04,0,7.232,0,4.52Zm6.328,0c0-2.17-1.031-3.453-2.567-3.453S1.193,2.369,1.193,4.52s.994,3.453,2.567,3.453S6.328,6.69,6.328,4.52ZM13.849.127h1.41L3.887,16.778H2.441ZM10.233,12.385c0-2.712,1.537-4.52,3.761-4.52s3.761,1.808,3.761,4.52-1.519,4.52-3.761,4.52-3.8-1.826-3.8-4.538Zm6.328,0c0-2.133-.994-3.453-2.567-3.453s-2.567,1.284-2.567,3.453,1.031,3.453,2.567,3.453,2.531-1.338,2.531-3.471Z" transform="matrix(0.259, 0.966, -0.966, 0.259, 28.888, 14.153)" fill="#263238"/>
          </g>
          <g id="Group_33" data-name="Group 33" transform="translate(92.913 498.987)">
            <path id="Path_1091" data-name="Path 1091" d="M15.495,12.544c0,3.383-2.7,6.641-8.116,6.641A13.832,13.832,0,0,1,0,16.971l1.476-3.689a11.315,11.315,0,0,0,5.9,2.214,2.691,2.691,0,0,0,2.951-2.951c0-1.539-.256-2.214-3.689-2.214H1.476L2.214,0H14.019V2.951H5.9V6.641H7.379C13.028,6.691,15.495,9.195,15.495,12.544Z" transform="translate(19.186 95.183) rotate(90)" fill="#263238"/>
            <path id="Path_1092" data-name="Path 1092" d="M0,10.33C0,4.089,3.4,0,8.116,0s8.116,4.089,8.116,10.33-3.4,9.592-8.116,9.592S0,16.554,0,10.33Zm11.806,0c0-4.3-1.491-6.641-3.689-6.641S4.427,6.034,4.427,10.33s1.524,5.9,3.689,5.9S11.806,14.609,11.806,10.33Z" transform="translate(19.923 112.154) rotate(90)" fill="#263238"/>
            <path id="Path_1093" data-name="Path 1093" d="M5.9,3.706a3.517,3.517,0,0,1-.738,2.951A4.109,4.109,0,0,1,2.214,8.133,4.67,4.67,0,0,1,0,7.395L.738,5.919c.428.274.968.758,1.476.738a1.9,1.9,0,0,0,1.476-.738,1.9,1.9,0,0,0,.738-1.476,3.421,3.421,0,0,1-2.214.738c-.677.061-.971-.282-1.476-.738A1.766,1.766,0,0,1,0,2.968,3.093,3.093,0,0,1,.738.754,3.077,3.077,0,0,1,2.951.016C5.1.016,5.9,1.236,5.9,3.706ZM3.689,2.968c0-.66.108-1.476-.738-1.476A1.785,1.785,0,0,0,1.476,2.968c0,.635.841.738,1.476.738.349.065.464.225.738,0A3.087,3.087,0,0,0,4.427,2.23Z" transform="translate(19.202 133.552) rotate(90)" fill="#263238"/>
            <path id="Path_1094" data-name="Path 1094" d="M6.641,3.7c.121,1.093-.72,2.153-1.476,2.951A4.109,4.109,0,0,1,2.214,8.127c-.745.021-.826-.374-1.476-.738V5.914c.428.274.968.758,1.476.738a3.689,3.689,0,0,0,2.214-.738c.417-.433.061-.877,0-1.476-.518.479-.771.773-1.476.738A3.428,3.428,0,0,1,.738,4.438,1.766,1.766,0,0,1,0,2.962,3.191,3.191,0,0,1,.738.749,3.174,3.174,0,0,1,2.951.011,3.389,3.389,0,0,1,6.641,3.7ZM4.427,2.962A1.561,1.561,0,0,0,2.951,1.487c-.635,0-.738.84-.738,1.476s.1.738.738.738c.335.038.484.222.738,0a3.381,3.381,0,0,0,.738-1.476Z" transform="translate(19.196 140.192) rotate(90)" fill="#263238"/>
            <rect id="Rectangle_485" data-name="Rectangle 485" width="14.019" height="2.214" transform="translate(8.856 132.814) rotate(90)" fill="#263238"/>
            <rect id="Rectangle_486" data-name="Rectangle 486" width="70.096" height="2.214" transform="translate(14.021 0) rotate(90)" fill="#263238"/>
            <rect id="Rectangle_487" data-name="Rectangle 487" width="42.796" height="2.214" transform="translate(6.642 0) rotate(90)" fill="#263238"/>
          </g>
          <g id="Group_66" data-name="Group 66" transform="translate(230.107 543.63)">
            <rect id="Rectangle_488" data-name="Rectangle 488" width="56.791" height="28.395" transform="translate(38.649 0) rotate(90)" fill="#d11536"/>
            <path id="Path_1099" data-name="Path 1099" d="M12.62,0,0,10.254H56.791L64.678,0Z" transform="translate(48.903 0) rotate(90)" fill="#8d051c"/>
            <path id="Path_1101" data-name="Path 1101" d="M0,38.649,7.888,27.607V0L0,10.254Z" transform="translate(48.903 56.791) rotate(90)" fill="#580110"/>
            <rect id="Rectangle_489" data-name="Rectangle 489" width="37.861" height="3.155" transform="translate(29.973 8.676) rotate(90)" fill="#93041d"/>
            <rect id="Rectangle_491" data-name="Rectangle 491" width="24.452" height="3.155" transform="translate(24.452 15.775) rotate(90)" fill="#93041d"/>
            <rect id="Rectangle_493" data-name="Rectangle 493" width="26.029" height="3.944" transform="translate(3.944 14.986) rotate(90)" fill="#580110"/>
          </g>
          <g id="Group_65" data-name="Group 65" transform="translate(289.146 596.396)">
            <rect id="Rectangle_494" data-name="Rectangle 494" width="25.24" height="3.944" transform="translate(3.944 11.171) rotate(90)" fill="#580110"/>
            <g id="Group_64" data-name="Group 64" transform="translate(9.296 0)">
              <rect id="Rectangle_495" data-name="Rectangle 495" width="44.513" height="40.373" transform="translate(0.338) rotate(0.48)" fill="#d11536"/>
              <path id="Path_1105" data-name="Path 1105" d="M11.831,0,0,9.465H40.227L48.9,0Z" transform="translate(53.805 0.129) rotate(90)" fill="#8d051c"/>
              <path id="Path_1106" data-name="Path 1106" d="M0,53.636,8.676,42.593V0L0,9.465Z" transform="translate(53.805 40.356) rotate(90)" fill="#580110"/>
              <rect id="Rectangle_496" data-name="Rectangle 496" width="20.508" height="3.155" transform="translate(26.987 8.805) rotate(90)" fill="#93041d"/>
              <rect id="Rectangle_497" data-name="Rectangle 497" width="12.62" height="3.155" transform="translate(21.466 12.749) rotate(90)" fill="#93041d"/>
            </g>
          </g>
          <g id="Group_63" data-name="Group 63" transform="translate(289.126 503.818)">
            <rect id="Rectangle_498" data-name="Rectangle 498" width="25.24" height="3.944" transform="translate(3.944 5.521) rotate(90)" fill="#580110"/>
            <g id="Group_62" data-name="Group 62" transform="translate(19.719 0)">
              <rect id="Rectangle_499" data-name="Rectangle 499" width="35.494" height="28.395" transform="translate(28.395 0) rotate(90)" fill="#d11536"/>
              <path id="Path_1109" data-name="Path 1109" d="M7.1,0,0,5.521H35.494L40.227,0Z" transform="translate(33.917 0) rotate(90)" fill="#8d051c"/>
              <path id="Path_1110" data-name="Path 1110" d="M0,33.917l4.733-7.1V0L0,5.521Z" transform="translate(33.917 35.494) rotate(90)" fill="#580110"/>
              <rect id="Rectangle_501" data-name="Rectangle 501" width="15.775" height="2.366" transform="translate(17.353 10.254) rotate(90)" fill="#93041d"/>
              <rect id="Rectangle_502" data-name="Rectangle 502" width="9.465" height="2.366" transform="translate(13.409 13.409) rotate(90)" fill="#93041d"/>
            </g>
          </g>
          <g id="Group_67" data-name="Group 67" transform="translate(34.558 520.287)">
            <path id="Path_1095" data-name="Path 1095" d="M108.849,47.326,2.366,46.537c-1.1,0-2.379-1.883-2.366-3.944V3.944C0,1.883,1.266,0,2.366,0L108.849.789c1.1,0,2.366,1.883,2.366,3.944l-.789,38.649C110.414,45.443,109.963,47.326,108.849,47.326Z" transform="translate(47.326 0) rotate(90)" fill="#0c1528"/>
            <text id="PAY" transform="translate(17.494 38.649) rotate(90)" fill="#fff" font-size="19" font-family="Raleway-Bold, Raleway" font-weight="700"><tspan x="0" y="0">PAY</tspan></text>
          </g>
        </g>
      </g>
      <g id="Character" transform="translate(600.637 508.592)">
        <path id="Path_1116" data-name="Path 1116" d="M360.177,373.753l-9.043-6.915,13.3-17.022,13.3,10.639-1.064,1.064c-3.353,4.877-17.429,24.255-20.745,26.6C352.117,390.822,360.177,373.753,360.177,373.753Z" transform="translate(-197.165 -75.291)" fill="#191b48"/>
        <ellipse id="Ellipse_42" data-name="Ellipse 42" cx="17.863" cy="0.366" rx="17.863" ry="0.366" transform="translate(157.466 312.459) rotate(-51.82)" fill="#fff"/>
        <path id="Path_1117" data-name="Path 1117" d="M360.372,371.625c0,.207-.369.012-1.064,0s-1.51.2-1.6,0,.84-.532,1.6-.532S360.372,371.43,360.372,371.625Z" transform="translate(-195.764 -71.035)" fill="#fff"/>
        <path id="Path_1118" data-name="Path 1118" d="M360.418,372.757c0,.2-.84.11-1.6,0s-1.6-.325-1.6-.532.779-.642,1.6-.532S360.479,372.574,360.418,372.757Z" transform="translate(-195.809 -70.571)" fill="#fff"/>
        <path id="Path_1119" data-name="Path 1119" d="M369.27,363.5c-.1,0-.288-.405-.532-1.064a7.062,7.062,0,0,1-.532-2.66,4.335,4.335,0,0,1,1.064-2.66c.5-.561,1.027-.605,1.064-.532a3.732,3.732,0,0,1-.532,1.064c-.424.744-1.048,1.272-1.064,2.128a14.735,14.735,0,0,0,.532,2.66C369.38,363.029,369.368,363.471,369.27,363.5Z" transform="translate(-193.491 -74.076)" fill="#fff"/>
        <path id="Path_1120" data-name="Path 1120" d="M358.759,370.274c-.073-.2.056-.227.532-.532s.917-.678,1.064-.532.017.722-.532,1.064S358.832,370.457,358.759,370.274Z" transform="translate(-195.747 -71.28)" fill="#fff"/>
        <path id="Path_1121" data-name="Path 1121" d="M358.472,370.176c-.146-.134.093-1.059.532-1.6s.893-.642,1.064-.532-.069.5-.532,1.064S358.619,370.322,358.472,370.176Z" transform="translate(-195.992 -71.713)" fill="#fff"/>
        <path id="Path_1122" data-name="Path 1122" d="M314.115,251.247S287.584,322,291.242,335.292s75.534,66.491,75.534,66.491l19.681-28.724s-56.214-44.347-56.385-46.81,22.341-61.7,22.341-61.7Z" transform="translate(-210.678 -97.47)" fill="#263238"/>
        <path id="Path_1123" data-name="Path 1123" d="M363.193,371.468a6.877,6.877,0,0,1-.532-.532h-.532l-2.66-2.128c-2.317-1.622-5.466-3.916-9.575-6.915-8.12-6-19.147-14.446-30.852-24.469-2.939-2.5-5.743-5.033-8.511-7.447l-4.255-3.724a13.4,13.4,0,0,1-3.192-3.724,6.766,6.766,0,0,1-.532-4.787c.317-1.573.686-3.349,1.064-4.787.768-2.865,1.421-5.553,2.128-7.979l3.192-11.171L310,290.614v-1.064c.019-.094.487.084.532,0,.015.1.015-.1,0,0L310,290.614c-.159.731-.191,1.826-.532,3.192-.7,2.743-1.838,6.318-3.192,11.171-.671,2.439-1.384,5.114-2.128,7.979-.366,1.439-.771,3.251-1.064,4.787a5.8,5.8,0,0,0,.532,4.255,14.133,14.133,0,0,0,3.192,3.724l4.255,3.724c2.719,2.439,5.536,5.008,8.511,7.447,11.693,10.01,22.273,18.372,30.32,24.469l9.575,7.447,2.66,1.6,1.064.532A.953.953,0,0,1,363.193,371.468Z" transform="translate(-208.159 -88.963)" fill="#455a64"/>
        <ellipse id="Ellipse_43" data-name="Ellipse 43" cx="14.156" cy="0.329" rx="14.156" ry="0.329" transform="matrix(0.605, -0.796, 0.796, 0.605, 148.21, 290.748)" fill="#455a64"/>
        <path id="Path_1124" data-name="Path 1124" d="M350.887,139.616c2.439,4.78,3.78,9.24,8.511,11.7,2.134,1.11,4.559,1.687,5.851,3.724s.892,5.557,2.66,7.447c2.573,2.817,7.749.184,10.639,2.66,2.585,2.219,2.007,7.092,4.787,9.043,1.573,1.1,3.49.9,5.319,1.6,2.926,1.134,4.409,4.338,4.787,7.447a13.848,13.848,0,0,1-1.064,7.447,7.584,7.584,0,0,1-5.851,4.255c-3.316.354-6.9-1.939-9.575,0a12.336,12.336,0,0,0-2.128,2.66,9.023,9.023,0,0,1-7.447,3.192,7.587,7.587,0,0,1-6.383-3.724c-1.853-3.085-1.536-7.668-4.255-10.107a16.488,16.488,0,0,0-5.319-2.128c-1.768-.658-3.719-1.919-4.255-3.723a15.35,15.35,0,0,0-2.66-4.255c-1.353-2.024-2.995.468-4.787-.532s-.954-2.727-1.064-4.787" transform="translate(-200.109 -121.481)" fill="#263238"/>
        <path id="Path_1125" data-name="Path 1125" d="M342.673,198.027l-23.4-7.447s-10.116,29.5-13.3,29.788c-17.363,1.585-36.043-4.635-42.554-6.915-.658-.744-1.286-1.562-2.128-2.66a10.671,10.671,0,0,1-1.6-3.192,15.825,15.825,0,0,1-1.064-4.255c.052-.576-.006-.823-.532-1.064s-1.193-.416-1.6,0c-.756.975-1.175,5.044.532,9.043s-4.152.59-6.383-.532-9.229-4.138-10.107-3.724c-1.3.61-1.192,2.119,1.064,3.192s9.157,4.705,8.511,5.851-12.234-4.787-12.234-4.787-1.867-1.837-2.66-.532c-1.427,2.353,11.015,8.023,12.234,8.511.829.329-.186,1.454-1.064,1.064s-10.759-6.089-12.234-3.724c-1.134,1.829,9.707,4.562,11.171,6.915s-8.031-2.856-9.043-1.064c-.378.671-.789,1,5.319,3.192a135.442,135.442,0,0,0,13.83,3.724h0s60.807,27.327,73.938,1.064C343.36,202.626,342.673,198.027,342.673,198.027Z" transform="translate(-223.279 -110.741)" fill="#663e21"/>
        <path id="Path_1126" data-name="Path 1126" d="M352.214,176.218h0l10.107.532,7.979,22.873-6.383,26.6c-1.914,7.706,6.6,22.946,6.383,31.384l-56.917,9.043-1.064-37.767v-1.064l-19.681-10.107,6.383-15.426c9.962-23.337,27.66-25,27.66-25Z" transform="translate(-209.946 -113.401)" fill="#e8505b"/>
        <path id="Path_1127" data-name="Path 1127" d="M352.214,176.218h0l10.107.532,7.979,22.873-6.383,26.6c-1.914,7.706,6.6,22.946,6.383,31.384l-56.917,9.043-1.064-37.767v-1.064l-19.681-10.107,6.383-15.426c9.962-23.337,27.66-25,27.66-25Z" transform="translate(-209.946 -113.401)" fill="#1e3769"/>
        <path id="Path_1128" data-name="Path 1128" d="M357.87,176.892c-.1.061-.416-.028-.532,0a5.671,5.671,0,0,1-1.064.532,20.951,20.951,0,0,1-3.724,0h0l3.724,6.383h0a25.429,25.429,0,0,0-6.915,0l.532-.532a38.6,38.6,0,0,0,1.064,7.979v.532l-.532-.532a27.7,27.7,0,0,1-7.447-2.66h.532l-1.6,6.915v.532h-.532a35.069,35.069,0,0,1-5.319-5.851h.532l-6.383,5.319h-.532l-1.6-6.915.532.532-6.915,2.128-.532.532v-.532l2.128-7.447h0l-5.851-1.064h0l2.66-4.255.532-.532c-.106-.019-.009-.425,0-.532s-.107,0,0,0,.522-.107.532,0-.426.513-.532.532l-.532,1.064-2.66,3.724h0l6.383.532h0v.532l-1.6,7.447-.532-.532,6.915-2.128v-.532l.532.532,1.064,6.383h-.532l6.383-5.319h.532v.532a32.634,32.634,0,0,0,5.319,5.319h-.532l1.6-6.915v-.532h.532a25.422,25.422,0,0,0,6.915,2.66v.532a37.034,37.034,0,0,1-1.064-7.979h0a24.618,24.618,0,0,1,6.915.532h0l-3.724-6.383h0a25.589,25.589,0,0,0,3.724-.532A3.629,3.629,0,0,1,357.87,176.892Z" transform="translate(-204.965 -113.543)" fill="#fff"/>
        <path id="Path_1129" data-name="Path 1129" d="M371.431,185.019s-.767-.3-1.6-.532a5.592,5.592,0,0,0-3.192,0h0c.244,1.341.564,2.946,1.064,4.787s1.047,4.042,1.6,6.383h0c-2.89-.841-6.522-1.453-10.107-2.66h.532c.366,3.475.325,7.025.532,11.171v.532h-.532a60.006,60.006,0,0,1-9.575-2.66c-.378-.11-.954-.171-1.064,0a2.892,2.892,0,0,0-.532,1.064l-1.064,2.128-2.128,5.319v.532l-.532-.532-6.383-7.979-.532-.532h.532l-10.107,6.915-.532.532v-.532l-3.724-9.575h.532a60.449,60.449,0,0,1-11.7,5.851h-.532l.532-.532,1.6-13.83h.532a23.055,23.055,0,0,1-9.575,1.6h0v-.532l2.128-5.851.532-1.064c.056-.174.442-.373.532-.532-.031.179-.466.362-.532.532l-.532,1.064-1.6,6.383-.532-.532a23.88,23.88,0,0,0,9.575-1.6h0v.532l-1.6,13.83h-.532a61.7,61.7,0,0,0,11.7-5.851v0l3.724,9.575h-.532l10.639-6.915v0l.532.532,6.383,7.979h-.532l2.128-4.787,1.064-2.66c.146-.461.721-.724,1.064-1.064.127-.1-.161-.506,0-.532a2.481,2.481,0,0,1,.532,0c.227.042.844.46,1.064.532a54.937,54.937,0,0,0,9.043,2.66h0c-.2-4.121-.191-7.72-.532-11.171v-.532h0c3.536,1.219,7.193,1.782,10.107,2.66l-.532.532c-.512-2.329-.6-4.518-1.064-6.383s-.857-3.4-1.064-4.787h0a7.138,7.138,0,0,1,3.724,0A4.106,4.106,0,0,1,371.431,185.019Z" transform="translate(-207.355 -112.095)" fill="#fff"/>
        <path id="Path_1130" data-name="Path 1130" d="M310.31,223.881a5.177,5.177,0,0,1-1.6-.532,8.02,8.02,0,0,1-2.128-2.66,8.579,8.579,0,0,1-1.6-5.319,13.43,13.43,0,0,1,2.128-6.915,11.545,11.545,0,0,1,4.255-3.192h-.532c.463-3.475,1.267-6.438,1.6-8.511a19.25,19.25,0,0,1,.532-3.192,19.586,19.586,0,0,1-.532,3.192c-.219,2.134-.105,5.036-.532,8.511v.532h-.532a11.745,11.745,0,0,0-5.851,9.575,7.3,7.3,0,0,0,1.064,4.787,13.727,13.727,0,0,0,2.66,3.192A2.166,2.166,0,0,0,310.31,223.881Z" transform="translate(-207.405 -109.999)" fill="#455a64"/>
        <ellipse id="Ellipse_44" data-name="Ellipse 44" cx="0.329" cy="2.17" rx="0.329" ry="2.17" transform="translate(102.715 84.666) rotate(-26.07)" fill="#455a64"/>
        <path id="Path_1131" data-name="Path 1131" d="M346.379,186.4l1.6-39.895-15.958-11.7-14.362,6.915s-.476,17.7,0,25.533,8.511,9.043,8.511,9.043-.349,4.214-.532,9.043a11.579,11.579,0,0,0,3.192,7.979,9.878,9.878,0,0,0,7.447,2.66h0A10,10,0,0,0,346.379,186.4Z" transform="translate(-204.644 -123.049)" fill="#663e21"/>
        <ellipse id="Ellipse_45" data-name="Ellipse 45" cx="1.064" cy="0.798" rx="1.064" ry="0.798" transform="translate(114.607 30.901)"/>
        <path id="Path_1132" data-name="Path 1132" d="M317.955,149.945c.134.134,1.042-.471,2.128-.532s2.018.678,2.128.532-.166-.288-.532-.532a2.7,2.7,0,0,0-3.192,0C318.17,149.718,317.894,149.945,317.955,149.945Z" transform="translate(-204.412 -119.575)"/>
        <ellipse id="Ellipse_46" data-name="Ellipse 46" cx="1.064" cy="0.798" rx="1.064" ry="0.798" transform="translate(126.309 30.901)"/>
        <path id="Path_1133" data-name="Path 1133" d="M328.18,149.945c.134.134.511-.471,1.6-.532s2.018.678,2.128.532-.166-.288-.532-.532a2.7,2.7,0,0,0-3.192,0A.338.338,0,0,0,328.18,149.945Z" transform="translate(-202.402 -119.575)"/>
        <path id="Path_1134" data-name="Path 1134" d="M328.467,158.814a20.086,20.086,0,0,1-5.319,1.6,3.274,3.274,0,0,0,3.724,1.064,2.6,2.6,0,0,0,1.6-1.064A1.839,1.839,0,0,0,328.467,158.814Z" transform="translate(-203.222 -117.806)" fill="#fff"/>
        <path id="Path_1135" data-name="Path 1135" d="M324.714,169.156a18.894,18.894,0,0,0,10.107-3.724s-2.254,5.649-10.107,5.319Z" transform="translate(-203.192 -115.914)" fill="#4d2500"/>
        <path id="Path_1136" data-name="Path 1136" d="M371.435,169.629a6.937,6.937,0,0,1-3.192-.532,6.041,6.041,0,0,1-2.66-2.66,38.213,38.213,0,0,1-2.66-5.319c-1.463-3.658-2.436-7.112-3.192-9.575l-.532-1.064c-.061-.415.073-.783,0-1.064-4.268-16.326-18.436-19.149-21.277-19.149-3.048,0-8.723-1.676-16.49,6.383a17.536,17.536,0,0,0-2.66,4.255,16.533,16.533,0,0,0-3.723,6.915,10.01,10.01,0,0,0,0,4.255,26.938,26.938,0,0,1,.532-3.724,18.16,18.16,0,0,1,1.6-3.724,15.035,15.035,0,0,0,1.064,9.043l2.66-1.064,10.107-3.192c-.9-3.085.271-7.25,1.064-9.043h0a15.74,15.74,0,0,0,13.3,12.766l1.6,25.533c13.254-2.829,13.384-20.328,13.3-23.937a68.406,68.406,0,0,0,2.128,6.915,28.114,28.114,0,0,0,2.66,4.787,7.72,7.72,0,0,0,3.192,3.192,5.76,5.76,0,0,0,3.192.532,2.17,2.17,0,0,0,1.064-.532A5.9,5.9,0,0,0,371.435,169.629Z" transform="translate(-205.231 -123.833)" fill="#263238"/>
        <path id="Path_1137" data-name="Path 1137" d="M324.984,159.437c-.578-.145-1-.531-1.6-.532-.28,0-.483.256-.532,0a2.266,2.266,0,0,1,0-1.064l1.064-2.128c.512-1.6.8-3.195,1.064-4.255a6.473,6.473,0,0,0,.532-1.6c-.3.518-.9,1.021-1.064,1.6-.378,1.024-.552,2.646-1.064,4.255l-.532,2.128c-.16.351-.621.688-.532,1.064a1.018,1.018,0,0,0,.532.532,2.358,2.358,0,0,0,.532,0A5.669,5.669,0,0,0,324.984,159.437Z" transform="translate(-203.462 -119.493)"/>
        <path id="Path_1138" data-name="Path 1138" d="M342.71,158.313a9.144,9.144,0,0,1,.532-3.724,4.487,4.487,0,0,1,3.192-2.66,3.168,3.168,0,0,1,3.192,2.66,3.892,3.892,0,0,1-2.128,3.724,4.775,4.775,0,0,1-4.255,0" transform="translate(-198.847 -118.9)" fill="#663e21"/>
        <path id="Path_1139" data-name="Path 1139" d="M345.325,156.9c0-.085.515.171,1.064,0a1.535,1.535,0,0,0,1.064-1.6c.06-.374-.294-.77-.532-1.064-.242-.19-.225-.557-.532-.532-.585,0-1.027.1-1.064,0s.369-.337,1.064-.532c.455-.119.687.251,1.064.532a1.883,1.883,0,0,1,.532,1.6c-.028.539-.18.654-.532,1.064-.3.34-.615,1.012-1.064,1.064A1.018,1.018,0,0,1,345.325,156.9Z" transform="translate(-198.802 -118.554)" fill="#4d2500"/>
        <path id="Path_1140" data-name="Path 1140" d="M337.5,413.857V402.686h21.277l.532,16.49h-1.6c-5.9.366-30.093,1.7-34.044.532C319.265,418.4,337.5,413.857,337.5,413.857Z" transform="translate(-203.209 -64.329)" fill="#191b48"/>
        <ellipse id="Ellipse_47" data-name="Ellipse 47" cx="18.086" cy="0.266" rx="18.086" ry="0.266" transform="translate(119.926 353.783)" fill="#fff"/>
        <path id="Path_1141" data-name="Path 1141" d="M335.67,414.3c-.183.1-.637-.515-1.064-1.064s-.666-.905-.532-1.064.613-.066,1.064.532S335.792,414.2,335.67,414.3Z" transform="translate(-201.381 -62.114)" fill="#fff"/>
        <path id="Path_1142" data-name="Path 1142" d="M333.983,414.471c-.2.073-.674-.405-1.064-1.064s-.69-1.437-.532-1.6.649.357,1.064,1.064S334.166,414.4,333.983,414.471Z" transform="translate(-201.29 -61.752)" fill="#fff"/>
        <path id="Path_1143" data-name="Path 1143" d="M347.052,415.773c-.085,0,.154-.466.532-1.064.491-.8,1.378-1.029,2.128-1.6a4.346,4.346,0,0,1,2.66-1.064c.756,0,1.1.459,1.064.532s-.418-.1-1.064,0a4.669,4.669,0,0,0-2.128,1.064,14.239,14.239,0,0,0-2.128,1.6C347.653,415.765,347.138,415.834,347.052,415.773Z" transform="translate(-197.87 -61.99)" fill="#fff"/>
        <path id="Path_1144" data-name="Path 1144" d="M334.465,412.237c.1-.171.527-.183,1.064,0s1.088.337,1.064.532-.418.22-1.064,0S334.367,412.456,334.465,412.237Z" transform="translate(-200.708 -62.177)" fill="#fff"/>
        <path id="Path_1145" data-name="Path 1145" d="M335.094,411.325c0-.2.381-.532,1.064-.532s1.6.337,1.6.532-.876,0-1.6,0S335.069,411.52,335.094,411.325Z" transform="translate(-200.805 -62.329)" fill="#fff"/>
        <path id="Path_1146" data-name="Path 1146" d="M321.334,250.424l-11.7,2.128,6.915,7.979c1.939,39.017,1.4,76.885,3.192,95.747.268,2.865,12.365,93.021,11.171,90.96l35.639,1.064-10.639-89.9,5.319-80.321a42.577,42.577,0,0,0,4.255-31.384l-1.064-3.724" transform="translate(-206.195 -98.775)" fill="#455a64"/>
        <rect id="Rectangle_503" data-name="Rectangle 503" width="120.21" height="184.856" rx="7.76" transform="translate(0 177.326) rotate(-73.75)" fill="#1e3769"/>
        <g id="Group_29" data-name="Group 29" transform="translate(0 61.919)" opacity="0.3">
          <rect id="Rectangle_504" data-name="Rectangle 504" width="120.21" height="184.856" rx="7.76" transform="translate(0 115.407) rotate(-73.75)" fill="#191b48"/>
        </g>
        <circle id="Ellipse_48" data-name="Ellipse 48" cx="12.754" cy="12.754" r="12.754" transform="translate(149.076 137.963) rotate(-73.75)" fill="#fff"/>
        <path id="Path_1147" data-name="Path 1147" d="M374.666,249.945A13.058,13.058,0,0,1,361.9,233.987a13.52,13.52,0,0,1,14.894-10.639,13.382,13.382,0,0,1,11.171,14.362A13.222,13.222,0,0,1,374.666,249.945Zm0-25.533a12.59,12.59,0,0,0-12.234,11.7,12.19,12.19,0,0,0,10.639,12.766,12.449,12.449,0,0,0,13.83-9.575,12.287,12.287,0,0,0-8.511-14.362A14.039,14.039,0,0,0,374.666,224.412Z" transform="translate(-195.164 -103.082)" fill="#fff"/>
        <path id="Path_1148" data-name="Path 1148" d="M248.774,240.469l-3.192,9.575h-.532L247.178,241l-2.128-1.064.532-.532Z" transform="translate(-220.872 -99.99)" fill="#fff"/>
        <path id="Path_1149" data-name="Path 1149" d="M255.443,251.623v1.064l-6.915-2.128v-.532l5.319-3.192c1.427-.78,1.933-1.457,2.128-2.128.329-1.146-.628-1.689-2.128-2.128a2.732,2.732,0,0,0-2.66,0l-.532-.532a4.273,4.273,0,0,1,3.723-.532c2,.585,3.2,2.029,2.66,3.724-.28.939-.965,1.757-2.66,2.66l-4.255,2.128Z" transform="translate(-220.093 -99.441)" fill="#fff"/>
        <path id="Path_1150" data-name="Path 1150" d="M264.011,252.013l-1.6-.532-1.064,2.66h-1.064l1.064-2.66-5.851-1.6.532-1.064,6.915-4.787,1.064.532-6.915,4.787,4.255,1.064,1.064-2.128h.532l-.532,2.66,2.128.532Z" transform="translate(-218.023 -98.768)" fill="#fff"/>
        <path id="Path_1151" data-name="Path 1151" d="M277.014,255.88l-2.128-.532-.532,2.66-1.064-.532.532-2.66-5.319-1.6v-.532l7.447-5.319,1.064.532-6.915,4.787,4.255,1.064.532-2.128,1.064.532-.532,2.128,1.6.532Z" transform="translate(-215.6 -97.847)" fill="#fff"/>
        <path id="Path_1152" data-name="Path 1152" d="M283.729,257.968c-.488,1.67-1.841,2.835-4.255,2.128a6,6,0,0,1-3.192-2.66l.532-.532a4.544,4.544,0,0,0,2.66,2.128c1.67.488,2.85.082,3.192-1.064s-.148-2.46-2.66-3.192l-2.128-.532,2.128-4.787,5.319,1.6v.532l-4.787-1.064-1.064,3.192h1.064C283.5,254.529,284.229,256.224,283.729,257.968Z" transform="translate(-213.804 -97.807)" fill="#fff"/>
        <path id="Path_1153" data-name="Path 1153" d="M291.607,259.7a3.408,3.408,0,0,1-1.6,2.128,2.227,2.227,0,0,1-2.128,0c-2.621-.768-3.562-2.754-2.66-5.851.975-3.353,3.181-5.036,5.851-4.255a5.36,5.36,0,0,1,2.128,1.6l-.532.532a4.891,4.891,0,0,0-2.128-1.064c-2.122-.622-3.475.521-4.255,3.192-.061.219-.471.227-.532.532a3.582,3.582,0,0,1,3.724-.532,2.784,2.784,0,0,1,2.128,1.064A3.457,3.457,0,0,1,291.607,259.7Zm-.532,0a3.106,3.106,0,0,0-.532-2.128,2.394,2.394,0,0,0-1.6-1.064,2.734,2.734,0,0,0-2.66.532,1.849,1.849,0,0,0-.532,2.128,2.637,2.637,0,0,0,2.128,1.6,1.585,1.585,0,0,0,1.6,0C290.086,260.476,290.913,260.352,291.075,259.7Z" transform="translate(-212.108 -96.88)" fill="#fff"/>
        <path id="Path_1154" data-name="Path 1154" d="M302.683,263.6c-.476,1.646-2.41,2.279-4.787,1.6a5.1,5.1,0,0,1-3.192-2.128l1.064-.532a4.556,4.556,0,0,0,2.66,2.128,2.415,2.415,0,0,0,3.192-1.6c.354-1.219-.3-2.123-2.128-2.66h-.532v-1.064l3.724-2.66-5.319-1.064.532-1.064,6.383,1.6v1.064l-4.255,2.66C302.1,260.571,303.146,262.026,302.683,263.6Z" transform="translate(-209.353 -96.524)" fill="#fff"/>
        <path id="Path_1155" data-name="Path 1155" d="M310.76,265.45a2.974,2.974,0,0,1-4.255,2.128c-2.621-.768-3.03-3.286-2.128-6.383.975-3.353,3.181-4.5,5.851-3.724a5.36,5.36,0,0,1,2.128,1.6l-.532.532a4.892,4.892,0,0,0-2.128-1.064c-2.122-.622-3.475.521-4.255,3.192-.061.219-.471.227-.532.532a3.582,3.582,0,0,1,3.724-.532,2.784,2.784,0,0,1,2.128,1.064A3.457,3.457,0,0,1,310.76,265.45Zm-.532-.532c.175-.626-.177-1.052-.532-1.6a2.388,2.388,0,0,0-1.6-1.064,2.692,2.692,0,0,0-2.66.532,1.822,1.822,0,0,0-.532,2.128,2.594,2.594,0,0,0,2.128,1.6,1.67,1.67,0,0,0,1.6,0A3.247,3.247,0,0,0,310.228,264.918Z" transform="translate(-207.856 -95.714)" fill="#fff"/>
        <path id="Path_1156" data-name="Path 1156" d="M319.961,261.012v.532l-6.915,7.979h-1.064l6.915-7.979-5.319-1.6-.532,2.128-1.064-.532,1.064-2.66Z" transform="translate(-205.886 -95.532)" fill="#fff"/>
        <path id="Path_1157" data-name="Path 1157" d="M332.023,264.618l-.532.532-6.383,7.979-1.064-.532,6.383-7.447-5.319-1.6-.532,1.6h-.532l.532-2.66Z" transform="translate(-203.586 -94.883)" fill="#fff"/>
        <path id="Path_1158" data-name="Path 1158" d="M337.924,273.609c-.512,1.744-2.434,2.847-4.787,2.128s-3.172-2.512-2.66-4.255a2.417,2.417,0,0,1,2.66-1.6,2.453,2.453,0,0,1-1.064-2.66c.463-1.609,2.17-2.205,4.255-1.6s3.123,2.078,2.66,3.723a2.138,2.138,0,0,1-2.128,1.6A2.148,2.148,0,0,1,337.924,273.609Zm-1.064,0a2.666,2.666,0,0,0-2.128-3.192,2.346,2.346,0,0,0-3.192,1.6c-.354,1.219.384,2.148,2.128,2.66S336.494,274.828,336.86,273.609Zm-2.128-3.724c1.536.451,2.875-.015,3.192-1.064s-.652-2.233-2.128-2.66-2.343,0-2.66,1.064A2,2,0,0,0,334.732,269.885Z" transform="translate(-202.04 -94.299)" fill="#fff"/>
        <path id="Path_1159" data-name="Path 1159" d="M346.183,273.56c-.975,3.353-3.181,4.5-5.851,3.723a4.273,4.273,0,0,1-2.128-1.064l.532-.532a3.142,3.142,0,0,0,1.6,1.064c2.122.622,4.007-.521,4.787-3.192.061-.219.471-.227.532-.532a3.578,3.578,0,0,1-3.723.532,3.426,3.426,0,0,1-2.128-1.6,2.381,2.381,0,0,1-.532-2.128,4.328,4.328,0,0,1,2.128-2.128,2.227,2.227,0,0,1,2.128,0C346.108,268.477,347.086,270.463,346.183,273.56Zm-.532-2.128a2.785,2.785,0,0,0-2.128-3.192,1.935,1.935,0,0,0-2.128.532,3.189,3.189,0,0,0-1.064,2.66,2.768,2.768,0,0,0,2.128,1.6c.613.248.991-.263,1.6-.532S345.425,272.054,345.651,271.432Z" transform="translate(-200.193 -93.718)" fill="#fff"/>
        <path id="Path_1160" data-name="Path 1160" d="M354.842,271.423,351.65,281h-1.064l2.66-9.043-2.128-1.064v-.532Z" transform="translate(-197.149 -93.177)" fill="#fff"/>
        <path id="Path_1161" data-name="Path 1161" d="M361.537,282.565,361,283.629,354.09,281.5l.532-.532,5.319-3.192c1.427-.768,1.933-1.457,2.128-2.128.329-1.146-.628-1.689-2.128-2.128a2.732,2.732,0,0,0-2.66,0l-.532-.532a4.273,4.273,0,0,1,3.724-.532c2,.585,2.664,2.029,2.128,3.724a3.535,3.535,0,0,1-2.128,2.66l-4.255,2.128Z" transform="translate(-196.397 -92.616)" fill="#fff"/>
        <path id="Path_1162" data-name="Path 1162" d="M369.571,282.492c-.476,1.646-2.41,2.81-4.787,2.128a5.96,5.96,0,0,1-3.192-2.66l1.064-.532a4.512,4.512,0,0,0,2.66,2.128c1.634.476,2.838.155,3.192-1.064s-.287-2.123-2.128-2.66l-1.064-.532.532-.532,3.724-2.66-5.319-1.6.532-1.064,6.383,2.128-.532.532-3.724,2.66C368.984,279.451,370.022,280.968,369.571,282.492Z" transform="translate(-194.856 -92.011)" fill="#fff"/>
        <rect id="Rectangle_505" data-name="Rectangle 505" width="4.45" height="82.192" transform="translate(94.575 183.005) rotate(-73.76)" fill="#fff"/>
        <rect id="Rectangle_506" data-name="Rectangle 506" width="4.463" height="42.163" transform="translate(130.518 202.737) rotate(-73.76)" fill="#fff"/>
        <rect id="Rectangle_507" data-name="Rectangle 507" width="34.494" height="25.764" rx="4.96" transform="translate(31.483 105.353) rotate(16.25)"/>
        <path id="Path_1163" data-name="Path 1163" d="M246.582,227.929l.532-1.6,17.022,4.787a3.989,3.989,0,0,0,4.787-2.66c.576-1.97-.69-3.68-2.66-4.255l-17.022-5.319.532-1.6L266.8,222.61a5.126,5.126,0,0,1,3.723,6.383,5.688,5.688,0,0,1-6.915,3.724Z" transform="translate(-220.276 -104.472)" fill="#fff"/>
        <rect id="Rectangle_508" data-name="Rectangle 508" width="1.658" height="12.193" transform="matrix(0.281, -0.96, 0.96, 0.281, 48.938, 125.09)" fill="#fff"/>
        <rect id="Rectangle_509" data-name="Rectangle 509" width="88.703" height="7.608" transform="translate(41.329 86.125) rotate(16.25)" fill="#fff"/>
        <path id="Path_1164" data-name="Path 1164" d="M340.306,135.344c-1.8-.69-2.7-2.388-3.192-4.255a5.493,5.493,0,0,1,1.6-5.319,4.736,4.736,0,0,1,5.319-.532,6.931,6.931,0,0,1,2.66,3.724,5.9,5.9,0,0,1,0,3.192,4.645,4.645,0,0,1-3.192,3.192,14.168,14.168,0,0,1-4.787,0" transform="translate(-200.699 -124.656)" fill="#263238"/>
        <path id="Path_1165" data-name="Path 1165" d="M370.955,155.535a3.818,3.818,0,0,0,0-1.6,3.976,3.976,0,0,0-1.064-1.6,5.2,5.2,0,0,0-2.128-1.6,10.1,10.1,0,0,0-3.192,0c-1.1.073-1.9-.024-3.192,0a7.841,7.841,0,0,1-4.255-.532A6.171,6.171,0,0,1,355,146.492a18.753,18.753,0,0,0-3.723-6.915,22.222,22.222,0,0,0-5.319-4.255,31.961,31.961,0,0,0-5.851-2.66h.532c.411.056,1.195.425,1.6.532a13.987,13.987,0,0,1,3.724,1.6,20.544,20.544,0,0,1,5.319,4.255,18.839,18.839,0,0,1,4.255,6.915,6.82,6.82,0,0,0,2.128,3.724,6.548,6.548,0,0,0,3.724.532c1.219,0,2.6.049,3.724,0a6.492,6.492,0,0,1,2.66,0,6.269,6.269,0,0,1,2.66,1.6,4.52,4.52,0,0,1,.532,2.128,2.024,2.024,0,0,1,0,1.064A.529.529,0,0,0,370.955,155.535Z" transform="translate(-199.432 -123.037)" fill="#263238"/>
        <path id="Path_1166" data-name="Path 1166" d="M347.54,157.439a2.339,2.339,0,0,1,.532,1.6,2.064,2.064,0,0,1-.532,1.6,2.385,2.385,0,0,1-2.128.532c-.773-.128-1.247-.894-1.6-1.6-.293-.547-.716-1-.532-1.6.329-1,1.052-1.064,1.064-1.064a1.544,1.544,0,0,0-.532,1.064,2.824,2.824,0,0,0,.532,1.6c.293.505.488.969,1.064,1.064a1.986,1.986,0,0,0,1.6-.532,3.651,3.651,0,0,0,1.064-1.6C348.082,158.031,347.647,157.9,347.54,157.439Z" transform="translate(-198.889 -118.027)" fill="#e0e0e0"/>
        <path id="Path_1167" data-name="Path 1167" d="M345.834,135.839a19.05,19.05,0,0,0-9.575-5.319A11.024,11.024,0,0,1,345.834,135.839Z" transform="translate(-200.375 -123.555)" fill="#e8505b"/>
        <path id="Path_1168" data-name="Path 1168" d="M348.306,155.941c0-.085.313.13.532.532a.439.439,0,0,1,0,.532,1.388,1.388,0,0,1-1.064.532c-.295.021-.329-.317-.532-.532s-.569-.239-.532-.532c0-.415.471-.593.532-.532s-.11.288,0,.532a.6.6,0,0,0,.532.532c.122.007.453-.438.532-.532s.027.119,0,0C348.318,156.241,348.281,156.014,348.306,155.941Z" transform="translate(-198.059 -118.124)" fill="#e0e0e0"/>
        <path id="Path_1169" data-name="Path 1169" d="M345.219,176.175a2.386,2.386,0,0,1,0,1.064,11.043,11.043,0,0,1-.532,3.723,10.636,10.636,0,0,1-3.192,4.255,11.038,11.038,0,0,1-15.958-3.192,9.03,9.03,0,0,1-1.064-3.192,5.259,5.259,0,0,1,0-1.6c.263,1.589.293,3.374,1.064,4.787a11.512,11.512,0,0,0,3.724,3.724,10.347,10.347,0,0,0,11.7-1.064,9.977,9.977,0,0,0,3.192-3.724A14.881,14.881,0,0,0,345.219,176.175Z" transform="translate(-203.484 -113.889)" fill="#455a64"/>
        <path id="Path_1170" data-name="Path 1170" d="M341.077,428.155a3.307,3.307,0,0,1,0-.532v-.532l-.532-3.724c-.415-3.255-.95-7.99-1.6-13.83-1.292-11.656-2.817-27.908-4.255-45.746s-2.619-34.029-3.192-45.746c-.293-5.853-.422-10.55-.532-13.83v-4.787c-.087-.016-.008.088,0,0s-.088-.532,0-.532-.008.444,0,.532.087-.016,0,0v4.787l1.064,13.83c.695,11.705,1.753,27.908,3.192,45.746s3.085,34.077,4.255,45.746l1.064,13.83.532,3.724v.532A4.644,4.644,0,0,1,341.077,428.155Z" transform="translate(-202.001 -86.606)" fill="#263238"/>
        <path id="Path_1171" data-name="Path 1171" d="M361.823,405.1a8.427,8.427,0,0,1-1.6.532c-.878.085-2.151-.073-3.724,0-3.158.158-7.418.085-12.234,0s-9.089.122-12.234,0l-3.724-.532a7.6,7.6,0,0,1-1.6,0,7.459,7.459,0,0,1,1.6,0h3.724c3.158,0,7.418-.061,12.234,0s9.089.073,12.234,0h3.724A7.625,7.625,0,0,1,361.823,405.1Z" transform="translate(-202.534 -63.552)" fill="#263238"/>
        <path id="Path_1172" data-name="Path 1172" d="M380.677,212.231l-21.277-13.3s-10.116,28.964-13.3,29.256c-17.363,1.585-36.043-4.1-42.554-6.383-.658-.744-1.286-1.562-2.128-2.66a10.669,10.669,0,0,1-1.6-3.192,15.828,15.828,0,0,1-1.064-4.255c.052-.577-.006-.823-.532-1.064s-1.193-.416-1.6,0c-.756.975-1.175,5.044.532,9.043s-4.152.59-6.383-.532-9.229-4.138-10.107-3.724c-1.3.61-1.192,2.119,1.064,3.192s9.157,4.705,8.511,5.851-12.234-4.787-12.234-4.787-1.867-1.837-2.66-.532c-1.427,2.353,11.015,8.023,12.234,8.511.829.329-.186,1.454-1.064,1.064s-10.759-6.089-12.234-3.723c-1.134,1.829,9.707,4.562,11.171,6.915s-8.031-2.856-9.043-1.064c-.378.671-.789,1,5.319,3.192a135.389,135.389,0,0,0,13.83,3.724h0s62.16,27.961,73.938,1.064C382.114,210.21,380.677,212.231,380.677,212.231Z" transform="translate(-214.473 -108.987)" fill="#663e21"/>
        <path id="Path_1173" data-name="Path 1173" d="M353.339,177.038s18.985,1.839,17.022,24.469a112.367,112.367,0,0,1-11.7,40.427l-25-13.3a153.679,153.679,0,0,0,12.766-35.107Z" transform="translate(-200.965 -113.688)" fill="#1e3769"/>
        <g id="Group_30" data-name="Group 30" transform="translate(132.693 63.349)" opacity="0.2">
          <path id="Path_1174" data-name="Path 1174" d="M353.339,177.038s18.985,1.839,17.022,24.469a112.367,112.367,0,0,1-11.7,40.427l-25-13.3a153.682,153.682,0,0,0,12.766-35.107Z" transform="translate(-333.657 -177.038)" fill="#1e3769"/>
        </g>
        <path id="Path_1175" data-name="Path 1175" d="M351.867,176.926c0,.146-2.149.844-5.319,1.064v-.532l2.66,3.724,1.064,2.66.532.532-.532-.532a54.7,54.7,0,0,0-6.915-.532,6.781,6.781,0,0,1,2.128,0,19.813,19.813,0,0,1,4.787,0l-.532.532-1.064-2.128-2.66-4.255h.532c1.573-.061,2.809-.447,3.724-.532A7.941,7.941,0,0,1,351.867,176.926Z" transform="translate(-198.961 -113.576)" fill="#455a64"/>
        <path id="Path_1176" data-name="Path 1176" d="M363.517,184.656a39.151,39.151,0,0,0-4.787-.532h0l2.66,11.171.532.532-.532-.532-7.979-2.128-2.128-.532h.532l.532,11.171v.532h-.532l-7.447-2.128-2.128-.532c-.247-.056-.31-.41-.532-.532.256,0,.286-.072.532,0l2.128.532,7.447,2.128h0l-.532-11.171V192.1h0l2.128.532,7.979,2.128-.532.532-2.66-11.171v-.532h.532a26.227,26.227,0,0,1,3.724.532A4.927,4.927,0,0,1,363.517,184.656Z" transform="translate(-199.44 -111.732)" fill="#455a64"/>
        <path id="Path_1177" data-name="Path 1177" d="M365.42,210.889a4.472,4.472,0,0,1-1.064-1.064,28.018,28.018,0,0,1-2.128-2.66h.532a70.839,70.839,0,0,1-6.915,10.639v.532l-.532-.532-3.724-4.787-2.66-3.724h.532l-4.787,4.255-1.6,1.6-1.064,1.064h-.532v.532h0c0,.1-.617-.41-.532-.532h0c-.732-2.439-1.279-4.461-1.6-5.851a6.01,6.01,0,0,1-.532-2.128s.154.774.532,2.128,1.347,3.474,2.128,5.851l-.532-.532a2.042,2.042,0,0,1,.532,0c.13.044.007.4,0,.532.011.056.011-.056,0,0h0c-.056-.023.058.017,0,0-.015-.046.033.035,0,0,0,0-.459.073-.532,0h.532v-.532l1.064-1.064,2.128-1.6,4.255-4.255h.532v.532l2.66,3.192,3.724,5.319h-.532a94.657,94.657,0,0,0,7.447-11.171h0c.78,1.3,1.1,2.57,1.6,3.192S365.444,210.8,365.42,210.889Z" transform="translate(-199.748 -107.113)" fill="#455a64"/>
        <path id="Path_1178" data-name="Path 1178" d="M344.893,195.383a7.228,7.228,0,0,1,0,1.6c-.171.756-.674,1.863-1.064,3.192-.768,2.646-1.655,6.181-3.192,10.107a96.378,96.378,0,0,1-4.787,9.575c-.622,1.219-1.206,2.521-1.6,3.192a4.179,4.179,0,0,1-.532,1.064,37.86,37.86,0,0,1,1.6-4.255c1.134-2.512,2.719-6.2,4.255-10.107s2.858-7.5,3.724-10.107A36.783,36.783,0,0,1,344.893,195.383Z" transform="translate(-201.03 -109.16)" fill="#455a64"/>
        <path id="Path_1179" data-name="Path 1179" d="M351.867,176.926c0,.146-2.149.844-5.319,1.064v-.532l2.66,3.724,1.064,2.66.532.532-.532-.532a54.7,54.7,0,0,0-6.915-.532,6.781,6.781,0,0,1,2.128,0,19.813,19.813,0,0,1,4.787,0l-.532.532-1.064-2.128-2.66-4.255h.532c1.573-.061,2.809-.447,3.724-.532A7.941,7.941,0,0,1,351.867,176.926Z" transform="translate(-198.961 -113.576)" fill="#455a64"/>
        <path id="Path_1180" data-name="Path 1180" d="M363.517,184.656a39.151,39.151,0,0,0-4.787-.532h0l2.66,11.171.532.532-.532-.532-7.979-2.128-2.128-.532h.532l.532,11.171v.532h-.532l-7.447-2.128-2.128-.532c-.247-.056-.31-.41-.532-.532.256,0,.286-.072.532,0l2.128.532,7.447,2.128h0l-.532-11.171V192.1h0l2.128.532,7.979,2.128-.532.532-2.66-11.171v-.532h.532a26.227,26.227,0,0,1,3.724.532A4.927,4.927,0,0,1,363.517,184.656Z" transform="translate(-199.44 -111.732)" fill="#fff"/>
        <path id="Path_1181" data-name="Path 1181" d="M365.42,210.889a4.472,4.472,0,0,1-1.064-1.064,28.018,28.018,0,0,1-2.128-2.66h.532a70.839,70.839,0,0,1-6.915,10.639v.532l-.532-.532-3.724-4.787-2.66-3.724h.532l-4.787,4.255-1.6,1.6-1.064,1.064h-.532v.532h0c0,.1-.617-.41-.532-.532h0c-.732-2.439-1.279-4.461-1.6-5.851a6.01,6.01,0,0,1-.532-2.128s.154.774.532,2.128,1.347,3.474,2.128,5.851l-.532-.532a2.042,2.042,0,0,1,.532,0c.13.044.007.4,0,.532.011.056.011-.056,0,0h0c-.056-.023.058.017,0,0-.015-.046.033.035,0,0,0,0-.459.073-.532,0h.532v-.532l1.064-1.064,2.128-1.6,4.255-4.255h.532v.532l2.66,3.192,3.724,5.319h-.532a94.657,94.657,0,0,0,7.447-11.171h0c.78,1.3,1.1,2.57,1.6,3.192S365.444,210.8,365.42,210.889Z" transform="translate(-199.748 -107.113)" fill="#fff"/>
        <path id="Path_1182" data-name="Path 1182" d="M344.893,195.383a7.228,7.228,0,0,1,0,1.6c-.171.756-.674,1.863-1.064,3.192-.768,2.646-1.655,6.181-3.192,10.107a96.378,96.378,0,0,1-4.787,9.575c-.622,1.219-1.206,2.521-1.6,3.192a4.179,4.179,0,0,1-.532,1.064,37.86,37.86,0,0,1,1.6-4.255c1.134-2.512,2.719-6.2,4.255-10.107s2.858-7.5,3.724-10.107A36.783,36.783,0,0,1,344.893,195.383Z" transform="translate(-201.03 -109.16)" fill="#455a64"/>
      </g>
    </g>
  </g>
</svg>
