<svg xmlns="http://www.w3.org/2000/svg" xmlns:xlink="http://www.w3.org/1999/xlink" viewBox="0 0 398.32 415.1"><defs><style>.cls-1{fill:#fafafa;}.cls-2{fill:#e0e0e0;}.cls-3{fill:#f5f5f5;}.cls-4{fill:#ebebeb;}.cls-5{fill:#455a64;}.cls-6{fill:#263238;}.cls-7{fill:#1e3769;}.cls-8{fill:#17294f;}.cls-9{fill:#191b48;}.cls-10{fill:#202733;}.cls-11{fill:#13131c;}.cls-12{fill:#0f1c35;}.cls-13{fill:#ffbe9d;}.cls-14{fill:#eb996e;}.cls-15{fill:#0e0f1c;}.cls-16{opacity:0.3;}.cls-17{fill:#4b5f87;}.cls-18{fill:#e8505b;}.cls-19{opacity:0.4;}.cls-20{fill:#a5afc3;}.cls-21{clip-path:url(#clip-path);}.cls-22{clip-path:url(#clip-path-2);}.cls-23{clip-path:url(#clip-path-3);}.cls-24{clip-path:url(#clip-path-4);}.cls-25{clip-path:url(#clip-path-5);}.cls-26{clip-path:url(#clip-path-6);}.cls-27{clip-path:url(#clip-path-7);}</style><clipPath id="clip-path"><path class="cls-1" d="M343.75,290.37l-1.14.18V295a2.35,2.35,0,0,0,.07.58.93.93,0,0,0,.25.44,1.2,1.2,0,0,0,.49.28,2.86,2.86,0,0,0,.81.11l.16-.94a1,1,0,0,1-.33-.07.46.46,0,0,1-.19-.14.47.47,0,0,1-.09-.21,1.49,1.49,0,0,1,0-.28Z"/></clipPath><clipPath id="clip-path-2"><path class="cls-1" d="M345.51,293.61a.77.77,0,0,1,.14-.25.68.68,0,0,1,.23-.17.76.76,0,0,1,.33-.07.73.73,0,0,1,.33.07.7.7,0,0,1,.22.18.71.71,0,0,1,.13.25,1.19,1.19,0,0,1,0,.28h-1.51a1.64,1.64,0,0,1,.07-.29m0-1.29a1.8,1.8,0,0,0-.62.41,2,2,0,0,0-.43.67,2.47,2.47,0,0,0-.16.94,2.63,2.63,0,0,0,.13.83,1.76,1.76,0,0,0,.39.66,1.85,1.85,0,0,0,.67.44,2.54,2.54,0,0,0,.95.16l.43,0,.4-.06.34-.08.25-.09-.15-.93a2.32,2.32,0,0,1-.49.14,3.29,3.29,0,0,1-.62.06,1.33,1.33,0,0,1-.78-.21.76.76,0,0,1-.33-.56H348l0-.21c0-.08,0-.15,0-.22a2.17,2.17,0,0,0-.5-1.55,1.78,1.78,0,0,0-1.36-.53,1.93,1.93,0,0,0-.72.14"/></clipPath><clipPath id="clip-path-3"><path class="cls-1" d="M353.45,295.39a1,1,0,0,1-.28-.12v-2.06l.21,0h.28a.83.83,0,0,1,.71.32,1.38,1.38,0,0,1,.24.85q0,1.1-.81,1.1a1.35,1.35,0,0,1-.35,0m-.21-3.17-.44,0-.42.07-.35.09v5.31h1.14v-1.52a2.11,2.11,0,0,0,.4.13,2,2,0,0,0,.44,0,1.78,1.78,0,0,0,.76-.15,1.52,1.52,0,0,0,.55-.43,1.92,1.92,0,0,0,.34-.66,3,3,0,0,0,.12-.85,2.55,2.55,0,0,0-.14-.87,1.76,1.76,0,0,0-1.07-1.09,2.48,2.48,0,0,0-.89-.15l-.43,0"/></clipPath><clipPath id="clip-path-4"><path class="cls-1" d="M357.13,295.42a.39.39,0,0,1-.18-.37.4.4,0,0,1,.06-.23.42.42,0,0,1,.17-.15.79.79,0,0,1,.25-.07l.3,0,.25,0,.21,0v.87l-.25,0h-.32a1,1,0,0,1-.49-.1m0-3.22-.37,0-.33.06-.25.07.15.92a2.48,2.48,0,0,1,.49-.12,3.9,3.9,0,0,1,.57,0,.85.85,0,0,1,.61.18.63.63,0,0,1,.18.47v.11l-.28,0-.39,0a3.06,3.06,0,0,0-.64.07,1.71,1.71,0,0,0-.54.21,1.1,1.1,0,0,0-.38.39,1.18,1.18,0,0,0-.14.6,1.42,1.42,0,0,0,.12.62,1,1,0,0,0,.35.41,1.53,1.53,0,0,0,.55.23,3.36,3.36,0,0,0,.71.07,6.56,6.56,0,0,0,1.06-.07l.68-.13v-2.38a2.58,2.58,0,0,0-.08-.68,1.21,1.21,0,0,0-.29-.52,1.31,1.31,0,0,0-.54-.33,2.65,2.65,0,0,0-.84-.12l-.39,0"/></clipPath><clipPath id="clip-path-5"><path class="cls-1" d="M349.41,292.2l-.37,0-.33.06-.25.07.15.92a2.47,2.47,0,0,1,.49-.12,3.9,3.9,0,0,1,.57,0l.25,0,.1-1h-.22l-.39,0"/></clipPath><clipPath id="clip-path-6"><path class="cls-1" d="M350.23,293.27l.06,0a.63.63,0,0,1,.18.47v.11l-.28,0h0l-.08.75h.17l.21,0v.87l-.25,0H350l-.09.88a6.4,6.4,0,0,0,1-.07l.68-.13v-2.38a2.57,2.57,0,0,0-.08-.68,1.21,1.21,0,0,0-.29-.52,1.31,1.31,0,0,0-.54-.33l-.31-.07Z"/></clipPath><clipPath id="clip-path-7"><path class="cls-1" d="M349.16,293.88a1.71,1.71,0,0,0-.54.21,1.09,1.09,0,0,0-.38.39,1.18,1.18,0,0,0-.14.6,1.41,1.41,0,0,0,.12.62,1,1,0,0,0,.35.41,1.53,1.53,0,0,0,.55.23,3.14,3.14,0,0,0,.46.06l.09-.89a.78.78,0,0,1-.27-.09.39.39,0,0,1-.18-.37.41.41,0,0,1,.06-.23.43.43,0,0,1,.17-.15.79.79,0,0,1,.25-.07h.07l.08-.78h-.06a3.05,3.05,0,0,0-.64.07"/></clipPath></defs><title>stats</title><g id="Layer_2" data-name="Layer 2"><g id="Background_Complete" data-name="Background Complete"><rect class="cls-2" x="36.58" y="10.27" width="159.91" height="200.93"/><rect class="cls-1" x="42.44" y="16.02" width="149.23" height="189.44"/><polygon class="cls-3" points="42.44 155.47 72.46 155.47 76.32 173.13 89.35 173.13 100.44 122.89 137.59 122.89 137.59 88.64 164.61 88.64 164.61 145.88 191.67 145.88 191.67 205.46 42.44 205.46 42.44 155.47"/><rect class="cls-2" x="114.61" y="16.02" width="4.82" height="187.88"/><rect class="cls-2" x="42.44" y="107.79" width="149.23" height="4.94"/><polygon class="cls-2" points="348.38 63.83 357.98 88.39 352.01 88.36 347.23 73.27 348.38 63.83"/><polygon class="cls-4" points="315.6 41.14 312.3 88.19 346.37 88.9 350.2 41.14 315.6 41.14"/><polygon class="cls-1" points="319.01 44.93 316.26 84.09 341.58 85.28 345.12 44.7 319.01 44.93"/><polygon class="cls-2" points="324.57 50.47 322.51 78 336.48 78 338.94 50.47 324.57 50.47"/><polygon class="cls-4" points="265.02 88.56 265.02 49.88 293.35 49.88 293.35 88.53 265.02 88.56"/><path class="cls-2" d="M281.13,49.88S288-.07,286,0s-6.72,45.54-6.72,45.54-.2-37.66-2-37.46,0,39.86,0,39.86-3.08-32.19-4.74-31.42.71,33.35.71,33.35h7.84"/><path class="cls-4" d="M276,49.88s2.37-24.89,3.15-23.19,0,14.82,0,14.82,6.56-32.17,8.28-31.08-6.71,34.92-6.71,34.92,6.4-19.31,7.81-17.28-5.31,20.15-5.31,20.15,6.87-12.8,7.34-11.09-3.28,12.74-3.28,12.74Z"/><path class="cls-4" d="M271.94,50s-15.15-29.74-13.27-28.81,11.56,20.13,11.56,20.13-6.41-18.54-5-19.11,8.44,20.83,8.44,20.83l1.58,7Z"/><polygon class="cls-2" points="278.13 49.94 278.85 88.63 265.38 88.63 265.12 49.81 278.13 49.94"/><polygon class="cls-3" points="265.05 53.29 278.1 53.51 293.35 53.29 293.83 49.59 264.68 49.59 265.05 53.29"/><rect class="cls-2" x="240.64" y="87.93" width="141.66" height="6.22"/></g><g id="Device"><path class="cls-5" d="M267.2,312.07c-1.2-1.32,1.63-9.09,15.06-9.65s18.8,4.34,18.83,9.65C301.1,314.42,267.2,312.07,267.2,312.07Z"/><polygon class="cls-3" points="260.57 108.79 245.65 201.06 381.91 201.06 398.32 107.81 260.57 108.79"/><path class="cls-2" d="M259.21,117.19c.05-.33,137.55-.52,137.55-.52l1.56-8.86-137.75,1-1.36,8.4"/><circle class="cls-6" cx="265.06" cy="112.94" r="1.26"/><circle class="cls-6" cx="271.26" cy="112.94" r="1.26"/><circle class="cls-6" cx="277.47" cy="112.94" r="1.26"/><path class="cls-7" d="M294.13,158.64l-17.06,19.67a24.22,24.22,0,0,1-10.6-19.67c0-13.71,12.49-25,27.66-25s27.66,11.28,27.66,25Z"/><path class="cls-6" d="M296.32,161.77a3,3,0,0,1-.29.39l-.88,1.07-3.38,4-12.14,14.15,0-.32a27.68,27.68,0,0,0,12.7,4.72,29.32,29.32,0,0,0,15.11-2.28,27.36,27.36,0,0,0,11.37-9.16,25.85,25.85,0,0,0,3.09-6.05,24.43,24.43,0,0,0,1.18-6.2l.22.23-19.5-.33-5.48-.12-1.45,0a3.24,3.24,0,0,1-.51,0,2.59,2.59,0,0,1,.48,0h6.88l19.58.13h.24l0,.23a24.73,24.73,0,0,1-1.18,6.33,26.2,26.2,0,0,1-3.13,6.19A27.74,27.74,0,0,1,307.6,184a29.68,29.68,0,0,1-15.37,2.3,28,28,0,0,1-12.89-4.86l-.2-.14.16-.18L291.63,167l3.45-3.89.91-1A2.41,2.41,0,0,1,296.32,161.77Z"/><circle class="cls-6" cx="305.89" cy="143.79" r="1.55"/><path class="cls-6" d="M338.22,132.44a7.82,7.82,0,0,1-1.46.1l-4,.08c-3.35,0-8,.08-13.09.08h-2.47l.18-.08c-3.21,3.2-6.07,6-8.14,8L306.83,143a6.1,6.1,0,0,1-.94.8,6.1,6.1,0,0,1,.8-.94L309,140.4c2-2.07,4.82-4.93,8-8.14l.08-.08h2.58c5.11,0,9.74,0,13.09.08l4,.08A7.83,7.83,0,0,1,338.22,132.44Z"/><path class="cls-6" d="M373.34,151.92a4.55,4.55,0,0,1,.07-.52l.25-1.48,1-5.6,3.61-20.05.21.25-38.73,0,.25-.21h0v.09l0,.12,0,.23-.09.46-.17.92L339.3,128l-.68,3.63-1.32,7.08L334.84,152l-.23-.28,27.89.11,8,.06,2.13,0,.55,0h.2l-.17,0h-.53l-2.08,0-7.92.06-28,.11h-.28l.05-.28,2.43-13.22,1.31-7.08.67-3.63.34-1.84.17-.92.09-.46,0-.23,0-.12v-.09h0l.26-.22,38.73,0h.26l0,.25-3.84,20.13L373.75,150l-.29,1.44A3.41,3.41,0,0,1,373.34,151.92Z"/><circle class="cls-6" cx="308.32" cy="174.97" r="1.55"/><ellipse class="cls-6" cx="322.38" cy="174.97" rx="14.07" ry="0.26"/><path class="cls-6" d="M373.34,187a2.7,2.7,0,0,1,.07-.38l.25-1.07,1-4.07,3.64-14.8.19.24-39.94.06.25-.19h0v.06l0,.08,0,.17-.08.34-.17.67-.34,1.33-.67,2.64-1.31,5.17-2.49,9.8-.24-.3,28.66.11,8.28.07,2.22,0,.58,0,.2,0-.18,0-.55,0-2.18,0-8.23.07-28.8.11h-.31l.08-.31,2.46-9.81,1.3-5.17.67-2.64.34-1.33.17-.67.08-.34,0-.17,0-.08v-.06h0l.26-.2,39.94.06h.25l-.06.24-3.85,14.85-1.07,4-.28,1A1.93,1.93,0,0,1,373.34,187Z"/><ellipse class="cls-6" cx="356.95" cy="132.8" rx="13.25" ry="0.26"/><ellipse class="cls-6" cx="356.56" cy="137.14" rx="13.33" ry="0.26"/><ellipse class="cls-6" cx="356.25" cy="141.32" rx="12.86" ry="0.26"/><ellipse class="cls-6" cx="356.95" cy="174.48" rx="12.63" ry="0.26"/><ellipse class="cls-6" cx="357.26" cy="179.29" rx="10.77" ry="0.26"/><path class="cls-8" d="M207.08,279.75c-.49,2.81-13.83,32.34-5.21,32.34h43.27s-4.47-4.21,9.06-32.34Z"/><polygon class="cls-7" points="179.08 181.22 161.39 284.61 310.59 284.61 328.9 177.6 179.08 181.22"/><polygon class="cls-1" points="184.15 186.27 169.23 278.54 305.49 278.54 321.91 185.28 184.15 186.27"/><polygon points="328.9 177.6 331.72 179.49 312.72 287.42 165.32 287.42 161.39 284.61 310.59 284.61 328.9 177.6"/><path class="cls-4" d="M182.79,194.66c.05-.33,137.55-.52,137.55-.52l1.56-8.86-137.75,1-1.36,8.4"/><path class="cls-6" d="M284,270.36a1.42,1.42,0,0,1,0-.25l.12-.78.51-3L286.63,255l6.75-38.53,0-.21h11.26l-.06.31-9.92,53.85,0,.12h-.12l-7.83-.08-2,0h.06l2.07,0,7.74-.08-.14.12,9.69-53.9.26.31H293.64l.25-.21-7,38.29-2.1,11.37-.58,3.08-.16.81A2.33,2.33,0,0,1,284,270.36Z"/><path class="cls-6" d="M266.7,270.36a6.35,6.35,0,0,1,.11-.72l.38-2.14,1.49-8,5.23-27.59,0-.21h11.26l-.06.31-7.75,38.43,0,.13h-.13l-7.82-.09-2,0a5.81,5.81,0,0,1-.68,0l.74,0,2.08,0,7.72-.09-.16.13,7.55-38.47.26.31H274.17l.25-.21L269,259.31l-1.64,8.08-.46,2.19-.13.57A1.34,1.34,0,0,1,266.7,270.36Z"/><path class="cls-6" d="M249.38,270.36a2.26,2.26,0,0,1,0-.32l.16-1,.64-3.76,2.44-14,8.41-47.44,0-.21h11.26l-.06.31c-5.22,28.58-9.83,53.5-12.27,66.43l0,.11h-.11l-7.87-.08-2,0-.66,0,.71,0,2,0,7.79-.08-.13.11c2.29-13,6.79-37.89,12-66.47l.26.31H261.34l.25-.21L253,251.15l-2.6,14.05-.72,3.81-.2,1A3.33,3.33,0,0,1,249.38,270.36Z"/><path class="cls-6" d="M232.07,270.36a3.09,3.09,0,0,1,.06-.5l.24-1.5,1-5.68,3.47-19.77,0-.21H248.1L248,243l-5.25,27.39,0,.15h-.15l-7.79-.1-2.06,0a5.14,5.14,0,0,1-.69,0,7.57,7.57,0,0,1,.76,0l2.11,0,7.67-.1-.18.15,5.09-27.42.26.31H237.05l.25-.21-3.68,19.54-1.11,5.72-.31,1.55A4.87,4.87,0,0,1,232.07,270.36Z"/><path class="cls-6" d="M214.75,270.36a1,1,0,0,1,0-.21l.09-.65.4-2.53,1.54-9.47,5.39-32.35,0-.21h11.26l-.05.31-8,45.14,0,.13h-.13l-7.82-.09-2,0-.68,0h.74l2.08,0,7.72-.09-.15.12,7.78-45.18.26.31H222.45l.25-.21-5.6,32.11-1.7,9.51-.47,2.58-.13.68A1.71,1.71,0,0,1,214.75,270.36Z"/><path class="cls-6" d="M197.43,270.36a1.86,1.86,0,0,1,0-.29l.14-.88.57-3.43,2.19-12.81,7.55-43.44,0-.21h11.26l-.06.31c-4.65,25.92-8.77,48.58-11,60.79l0,.11H208l-7.86-.08-2,0h.05l2.05,0,7.77-.08-.13.11c2.12-12.24,6.14-34.92,10.8-60.84l.26.31H208.17l.25-.21-7.75,43.2-2.34,12.85-.65,3.48-.18.91A2.87,2.87,0,0,1,197.43,270.36Z"/><circle class="cls-6" cx="188.64" cy="190.42" r="1.26"/><circle class="cls-6" cx="194.85" cy="190.42" r="1.26"/><circle class="cls-6" cx="201.05" cy="190.42" r="1.26"/><path class="cls-6" d="M180.12,270.36a7.13,7.13,0,0,1,.11-.77l.37-2.27L182,258.8l5.08-29.18,0-.21h11.26l-.06.31-7.55,40.67,0,.13h-.13l-7.83-.09-2,0-.68,0h.2l.54,0,2.08,0,7.72-.09-.15.13,7.35-40.71.26.31H187.38l.25-.21-5.29,28.94-1.6,8.56-.45,2.32-.12.61A1.45,1.45,0,0,1,180.12,270.36Z"/><polygon class="cls-9" points="297.01 229.67 239.93 229.67 243.18 210.5 300.67 210.5 297.01 229.67"/><path class="cls-9" d="M239.93,229.67l-1.11,6.69s7.49-6.95,7.38-6.95H240"/><ellipse class="cls-1" cx="270.82" cy="217.17" rx="21.23" ry="0.26"/><ellipse class="cls-1" cx="270.26" cy="221.79" rx="21.23" ry="0.26"/></g><g id="Desk"><rect class="cls-10" x="222.23" y="318.71" width="162.62" height="94.89"/><rect x="222.23" y="318.71" width="74.08" height="94.89"/><path class="cls-1" d="M288.77,350.94s0-.17,0-.48l0-1.38,0-5.27c0-4.57-.06-11.13-.1-19.23l.19.19-59.59.07.26-.26h0V328q0,1.72,0,3.42,0,3.4,0,6.71c0,4.41,0,8.69,0,12.78l-.25-.25,42.71.12,12.39.07,3.32,0,.87,0,.3,0-.27,0-.84,0-3.27,0-12.33.07-42.88.12h-.25v-.25c0-4.09,0-8.37,0-12.78q0-3.31,0-6.71V324.6h0l.26-.26,59.59.07H289v.19l-.1,19.34,0,5.22,0,1.35A3.65,3.65,0,0,1,288.77,350.94Z"/><path class="cls-1" d="M261.5,337.76s-.06-.23-.18-.59a2.54,2.54,0,0,0-.94-1.27,2.36,2.36,0,0,0-2.2-.29,2.3,2.3,0,0,0,0,4.31,2.36,2.36,0,0,0,2.2-.29,2.54,2.54,0,0,0,.94-1.27c.12-.37.13-.6.18-.59s.09.23,0,.64a2.52,2.52,0,0,1-.91,1.52,2.7,2.7,0,0,1-2.59.45,2.76,2.76,0,0,1,0-5.21,2.7,2.7,0,0,1,2.59.44,2.52,2.52,0,0,1,.91,1.52C261.59,337.53,261.53,337.76,261.5,337.76Z"/><path class="cls-1" d="M288.77,380s0-.17,0-.48l0-1.38,0-5.27c0-4.57-.06-11.13-.1-19.23l.19.19-59.59.07.26-.26h0V357q0,1.72,0,3.42,0,3.4,0,6.71c0,4.41,0,8.69,0,12.78l-.25-.25,42.71.12,12.39.07,3.32,0,.87,0,.3,0-.27,0-.84,0-3.27,0-12.33.07-42.88.12h-.25V380c0-4.09,0-8.37,0-12.78q0-3.31,0-6.71v-6.85h0l.26-.26,59.59.07H289v.19l-.1,19.34,0,5.22,0,1.35A3.65,3.65,0,0,1,288.77,380Z"/><path class="cls-1" d="M261.5,366.77s-.06-.23-.18-.59a2.54,2.54,0,0,0-.94-1.27,2.36,2.36,0,0,0-2.2-.29,2.3,2.3,0,0,0,0,4.31,2.36,2.36,0,0,0,2.2-.29,2.54,2.54,0,0,0,.94-1.27c.12-.37.13-.59.18-.59s.09.23,0,.64a2.52,2.52,0,0,1-.91,1.52,2.7,2.7,0,0,1-2.59.45,2.76,2.76,0,0,1,0-5.21,2.7,2.7,0,0,1,2.59.45,2.52,2.52,0,0,1,.91,1.52C261.59,366.55,261.53,366.77,261.5,366.77Z"/><path class="cls-1" d="M288.77,409s0-.17,0-.48l0-1.38,0-5.27c0-4.57-.06-11.13-.1-19.23l.19.19-59.59.07.26-.26h0v3.43q0,1.72,0,3.42,0,3.4,0,6.71c0,4.41,0,8.69,0,12.78l-.25-.25,42.71.12,12.39.07,3.32,0,.87,0,.3,0-.27,0-.84,0-3.27,0-12.33.07-42.88.12h-.25V409c0-4.09,0-8.37,0-12.78q0-3.31,0-6.71v-6.85h0l.26-.26,59.59.07H289v.19l-.1,19.34,0,5.22,0,1.35A3.65,3.65,0,0,1,288.77,409Z"/><path class="cls-1" d="M261.5,395.79s-.06-.23-.18-.59a2.54,2.54,0,0,0-.94-1.27,2.36,2.36,0,0,0-2.2-.29,2.3,2.3,0,0,0,0,4.31,2.36,2.36,0,0,0,2.2-.29,2.54,2.54,0,0,0,.94-1.27c.12-.37.13-.6.18-.59s.09.23,0,.64a2.52,2.52,0,0,1-.91,1.52,2.7,2.7,0,0,1-2.59.45,2.76,2.76,0,0,1,0-5.21,2.7,2.7,0,0,1,2.59.44,2.52,2.52,0,0,1,.91,1.52C261.59,395.56,261.53,395.79,261.5,395.79Z"/><rect class="cls-11" x="5.24" y="318.71" width="136.79" height="94.89"/><rect class="cls-12" y="312.09" width="390.75" height="9.02"/><rect class="cls-9" x="5.24" y="321.11" width="12.12" height="92.49"/></g><g id="Character"><path class="cls-6" d="M157.17,169.31a8.14,8.14,0,0,1-.17-1.15,8.32,8.32,0,0,0-1-2.92,3.43,3.43,0,0,0-1.46-1.4,1.9,1.9,0,0,0-2.09.4,8.09,8.09,0,0,0,0,10.15,1.9,1.9,0,0,0,2.09.39,3.43,3.43,0,0,0,1.46-1.4,8.32,8.32,0,0,0,1-2.92,8.13,8.13,0,0,1,.17-1.15,3.63,3.63,0,0,1,0,1.17,7.7,7.7,0,0,1-.88,3.08,3.75,3.75,0,0,1-1.61,1.61,2.27,2.27,0,0,1-1.32.19,2.68,2.68,0,0,1-1.26-.61,8.4,8.4,0,0,1,0-10.88,2.68,2.68,0,0,1,1.26-.61,2.27,2.27,0,0,1,1.32.19,3.75,3.75,0,0,1,1.61,1.61,7.7,7.7,0,0,1,.88,3.08A3.64,3.64,0,0,1,157.17,169.31Z"/><path class="cls-13" d="M114,149.8l-3,59.92,25.65,2.42,1.42-14.54s9,2.24,11.8-6.14c1.76-5.35,3.32-47.23,3.32-47.23Z"/><path class="cls-6" d="M158.75,150.41c-2.19,5.21-10.45,9.67-10.45,9.67l-1.37,13.26a26.18,26.18,0,0,0-3.69,0c.66-6.22-7.36-5-8.17-.76-.78,4.08,3.86,6.81,3.86,6.81-3.21,4.92-4.51,7.52-9.06,12.13-4.93,5-7.58,5.4-12.66,5.25l-5.6-.26s-2-4.79-3.46-16.1c-.7-5.44-5-12.57-3.74-21.41,3.44-25.14,31.25-20.67,31.25-20.67C146.1,130.2,163.9,138.15,158.75,150.41Z"/><ellipse class="cls-6" cx="151.4" cy="169.72" rx="5.78" ry="0.26" transform="translate(-8.37 7.85) rotate(-2.89)"/><path class="cls-13" d="M239.17,239.82l-9.35,5.79-3.43,8v-7s2.54-3,4.62-5.2.59-3.71,0-4.45-9.54,9.65-9.54,9.65v6c-4.16-5.13-6.1-3.37-6.74-2.43s6.74,7.88,6.74,7.88v2.13L184.8,279.91l-9.65-24-19.71,10.34,11.77,28.49a14.87,14.87,0,0,0,21.32,7.13l43.15-25.5,2.88-4.79a12.14,12.14,0,0,0,1.71-5.45l1.44-21.56C240.36,242.94,239.17,239.82,239.17,239.82Z"/><ellipse class="cls-14" cx="183.17" cy="284.81" rx="5.21" ry="0.26" transform="translate(-147.53 357.65) rotate(-69.68)"/><path class="cls-14" d="M237.69,244.57a17,17,0,0,1-1.7.77,6.36,6.36,0,0,0-1.59,1.15,6.28,6.28,0,0,0-1.22,2,40,40,0,0,1-2.72,5.83,39.77,39.77,0,0,1,2.24-6,6.22,6.22,0,0,1,1.37-2.19,5.94,5.94,0,0,1,1.77-1.14A4.34,4.34,0,0,1,237.69,244.57Z"/><path class="cls-14" d="M237.59,248a1.09,1.09,0,0,0-.79.53c-.29.56-.67,1.44-1,2.38a35.18,35.18,0,0,1-1.32,3.49,8.6,8.6,0,0,1,.83-3.69,12.08,12.08,0,0,1,1.23-2.4,1,1,0,0,1,.78-.44C237.51,247.86,237.61,248,237.59,248Z"/><path class="cls-7" d="M149.54,262.59l4.19,14.19,26.59-12c-1-3-5.35-16.21-13.77-37.21A36.11,36.11,0,0,0,139,205.32c-8.7-1.45-18.17-2.58-25.46-2.5a31.62,31.62,0,0,0-30.68,25.3C80.59,239.28,84.54,246.64,82,271l-.81,61.36,71,2.61Z"/><path class="cls-15" d="M85.29,270.44s-9.86.58-13.75-6.89c0,0,10.63-39.3,14.34-43.93Z"/><path class="cls-1" d="M167.89,231.53a3,3,0,0,1-.84.46,8.29,8.29,0,0,1-2.7.51A17.67,17.67,0,0,1,160,232c-1.64-.37-3.47-.92-5.52-1.26a25.59,25.59,0,0,0-3.22-.18,20.52,20.52,0,0,0-3.45.57,29.88,29.88,0,0,0-7.18,3c-2.43,1.33-4.89,2.89-7.52,4.42a39.31,39.31,0,0,1-8.61,4,17,17,0,0,1-9.55.15,24.27,24.27,0,0,1-7.81-4.23c-2.23-1.72-4.17-3.54-6-5.21a51,51,0,0,0-5.3-4.32,20.52,20.52,0,0,0-9-3.82,30.22,30.22,0,0,0-3.63,0,3.27,3.27,0,0,1,.92-.24,12.18,12.18,0,0,1,2.74-.13,20,20,0,0,1,9.34,3.61,49.15,49.15,0,0,1,5.46,4.29c1.86,1.64,3.81,3.42,6,5.09a23.62,23.62,0,0,0,7.51,4,16,16,0,0,0,9-.17,39.1,39.1,0,0,0,8.39-3.87c2.61-1.51,5.1-3.06,7.58-4.39a30.14,30.14,0,0,1,7.43-3,20.94,20.94,0,0,1,3.62-.54,25.34,25.34,0,0,1,3.38.25c2.11.4,3.92,1,5.54,1.42a18.67,18.67,0,0,0,4.17.7A11.52,11.52,0,0,0,167.89,231.53Z"/><path class="cls-1" d="M150,280.51a12.59,12.59,0,0,0-4.41-1.6,15,15,0,0,0-5.08.28c-1.9.39-4,1.07-6.2,1.63a25,25,0,0,1-11.79.16c-3-.7-4.61-1.65-4.56-1.75s1.79.53,4.71,1a27.54,27.54,0,0,0,11.4-.45c2.19-.55,4.28-1.21,6.27-1.57a14.45,14.45,0,0,1,5.38-.06,8.39,8.39,0,0,1,3.36,1.38C149.78,280.07,150.06,280.46,150,280.51Z"/><path class="cls-1" d="M150.75,317.14s-.26.46-.94,1.08a14.64,14.64,0,0,1-3.22,2.22,12.76,12.76,0,0,1-5.67,1.44,18.81,18.81,0,0,1-7-1.56c-2.33-.91-4.47-1.93-6.48-2.5a15.55,15.55,0,0,0-5.48-.64,8.66,8.66,0,0,0-3.54,1c-.78.43-1.14.78-1.21.71s.24-.48,1-1.05a8,8,0,0,1,3.68-1.43,15.07,15.07,0,0,1,5.82.45,64.16,64.16,0,0,1,6.6,2.46,19.07,19.07,0,0,0,6.59,1.57,12.83,12.83,0,0,0,5.36-1.15C149.18,318.47,150.63,317,150.75,317.14Z"/><g class="cls-16"><path d="M73.72,271.13c9.3,1.9,18.84,0,28.32-.58,5.74-.34,12.12-1,16.66,2.57,3.6,2.8,5.05,7.51,6.09,11.95,4,16.93,4.68,32.07,5.57,49.43l-46-1Z"/></g><polygon class="cls-16" points="85.89 239.23 87.88 267.91 81.81 267.91 85.89 239.23"/><path class="cls-6" d="M98.81,332.41l91.29,3.23a27.23,27.23,0,0,1,26.26,27.64l-.81,51.82H182.08l-2.15-44.68-81.12-2.13Z"/><rect class="cls-17" x="120.44" y="379.78" width="8.98" height="32.87"/><path class="cls-17" d="M45.1,275.35v79.2A18.81,18.81,0,0,0,63.9,373.36h52.74v-98a8.38,8.38,0,0,0-8.38-8.38H53.48A8.38,8.38,0,0,0,45.1,275.35Z"/><path class="cls-17" d="M187.63,379.78H59.19a13.94,13.94,0,0,1,13.94-13.94H173.68a13.94,13.94,0,0,1,13.94,13.94Z"/><path class="cls-17" d="M116.64,364a7.12,7.12,0,0,1-.2,2.33,9.46,9.46,0,0,1-7.5,7.1,13.05,13.05,0,0,1-2.47.17h-2.59l-11.54,0-21-.05L65,373.51l-1.73,0a2.64,2.64,0,0,1-.6-.05,2.64,2.64,0,0,1,.6-.05L65,373.3l6.35-.09,21-.1h14.13a12.76,12.76,0,0,0,2.4-.14,9,9,0,0,0,3.91-1.67,9.34,9.34,0,0,0,3.47-5.06A22.21,22.21,0,0,0,116.64,364Z"/><ellipse class="cls-17" cx="124.93" cy="380.06" rx="7.88" ry="0.26"/><path class="cls-17" d="M171.89,374a3.64,3.64,0,0,1-.24-1c-.13-.64-.29-1.59-.5-2.81-.41-2.44-1-6-1.64-10.36-.36-2.18-.65-4.61-1.13-7.14l-.38-1.92-.57-1.94-.29-1-.38-1c-.26-.65-.5-1.32-.79-2a36.52,36.52,0,0,0-4.78-7.65,34.17,34.17,0,0,0-7.19-6.48,32,32,0,0,0-8.72-4.2,32.62,32.62,0,0,0-8.89-1.53c-5.82-.13-11.12-.09-15.54-.16s-8-.1-10.49-.17c-1.24,0-2.2-.06-2.85-.1a3.63,3.63,0,0,1-1-.11,3.64,3.64,0,0,1,1-.1c.65,0,1.61-.07,2.85-.1,2.48-.06,6.06-.12,10.49-.17s9.69-.14,15.57-.06a33.07,33.07,0,0,1,9.16,1.51,32.61,32.61,0,0,1,9,4.31,34.69,34.69,0,0,1,7.39,6.69,36.83,36.83,0,0,1,4.87,7.91c.29.68.53,1.37.8,2l.38,1,.29,1,.56,2,.36,2c.46,2.59.7,5,1,7.19.58,4.39,1,7.95,1.31,10.41.14,1.23.25,2.19.3,2.84A3.63,3.63,0,0,1,171.89,374Z"/></g><g id="Plant"><path class="cls-18" d="M9.8,278.21s-1.61,4.54,1.49,7.81h6.48S17.17,278.7,9.8,278.21Z"/><path class="cls-19" d="M9.8,278.21s-1.61,4.54,1.49,7.81h6.48S17.17,278.7,9.8,278.21Z"/><path class="cls-18" d="M20.79,268.89c-.27-.32-5.78,8.32-2.68,17.14h6.08S26.56,275.77,20.79,268.89Z"/><path class="cls-18" d="M31.57,278.21A7.92,7.92,0,0,0,24.19,286h6.08S32.92,282.29,31.57,278.21Z"/><path class="cls-7" d="M10.79,285.68a13.64,13.64,0,0,0-5.46,13.53c1.56,9,11.06,12.88,11.06,12.88H26.92s10.72-4.71,10.46-14.47-6.65-11.79-6.65-11.79Z"/><path class="cls-3" d="M37.34,296.53a5.26,5.26,0,0,0-.87-1.08,4.71,4.71,0,0,0-3.52-1,12.76,12.76,0,0,0-5.15,2.24,17.59,17.59,0,0,1-3.06,1.57,7.11,7.11,0,0,1-3.71.37c-2.57-.43-4.62-1.81-6.54-2.74a9.58,9.58,0,0,0-5.39-1.3,5.13,5.13,0,0,0-3.29,1.67,6.15,6.15,0,0,0-.72,1.2s0-.13.07-.37a3.18,3.18,0,0,1,.49-1A5.17,5.17,0,0,1,9,294.22a9.73,9.73,0,0,1,5.65,1.23c2,.92,4,2.25,6.41,2.66a6.66,6.66,0,0,0,3.46-.34,17.72,17.72,0,0,0,3-1.51,12.68,12.68,0,0,1,5.36-2.19,4.79,4.79,0,0,1,3.69,1.23,3.07,3.07,0,0,1,.62.88C37.32,296.4,37.36,296.53,37.34,296.53Z"/><path class="cls-3" d="M37.48,298.88a5.34,5.34,0,0,0-.86-1.08,4.62,4.62,0,0,0-3.48-1A12.52,12.52,0,0,0,28.06,299a17.36,17.36,0,0,1-3,1.57,7,7,0,0,1-3.68.37c-2.55-.44-4.57-1.82-6.47-2.74a9.37,9.37,0,0,0-5.34-1.29,5,5,0,0,0-3.24,1.67,6.29,6.29,0,0,0-.7,1.19s0-.13.06-.37a3.17,3.17,0,0,1,.48-.95,5.09,5.09,0,0,1,3.35-1.91,9.52,9.52,0,0,1,5.6,1.23c1.94.92,4,2.25,6.34,2.66a6.51,6.51,0,0,0,3.43-.34,17.47,17.47,0,0,0,3-1.51,12.46,12.46,0,0,1,5.31-2.19,4.71,4.71,0,0,1,3.65,1.23,3.06,3.06,0,0,1,.61.87C37.47,298.75,37.5,298.88,37.48,298.88Z"/><path class="cls-6" d="M10.16,298.82c0-.06.28-.24.65.07a.72.72,0,0,1,.2.79.86.86,0,0,1-.84.56.87.87,0,0,1-.76-.65.77.77,0,0,1,.23-.77c.36-.3.67-.17.65-.11s-.22.12-.37.35a.42.42,0,0,0,0,.39.43.43,0,0,0,.34.27.41.41,0,0,0,.36-.22.35.35,0,0,0,0-.36C10.39,298.91,10.17,298.89,10.16,298.82Z"/><path class="cls-6" d="M22.09,295c0-.06.28-.24.65.07a.72.72,0,0,1,.2.79.86.86,0,0,1-.84.56.87.87,0,0,1-.76-.65.77.77,0,0,1,.23-.77c.36-.3.67-.17.65-.11s-.22.12-.37.35a.42.42,0,0,0,0,.39.43.43,0,0,0,.34.27.41.41,0,0,0,.36-.22.35.35,0,0,0,0-.36C22.33,295.11,22.1,295.09,22.09,295Z"/><path class="cls-6" d="M33.66,299c0-.06.28-.24.65.07a.72.72,0,0,1,.2.79.86.86,0,0,1-.84.56.87.87,0,0,1-.76-.65.77.77,0,0,1,.23-.77c.36-.3.67-.17.65-.11s-.22.12-.37.35a.42.42,0,0,0,0,.39.43.43,0,0,0,.34.27.41.41,0,0,0,.36-.22.35.35,0,0,0,0-.36C33.9,299.08,33.67,299.06,33.66,299Z"/></g><g id="Coffee"><polygon class="cls-20" points="338.05 276.51 341.49 312.09 358.82 312.09 362.98 276.51 338.05 276.51"/><path class="cls-6" d="M338.05,271.91a7.42,7.42,0,0,0-1.63,4.7H364.6a5.25,5.25,0,0,0-1.63-4.7Z"/><polygon class="cls-6" points="341.27 268.65 340.31 272.17 361.58 272.33 360.18 268.61 341.27 268.65"/><path class="cls-9" d="M337.7,285.41c0,.33,2.06,17.91,2.06,17.91H361l2-17.91Z"/><g id="logo_1"><path class="cls-1" d="M343.75,290.37l-1.14.18V295a2.35,2.35,0,0,0,.07.58.93.93,0,0,0,.25.44,1.2,1.2,0,0,0,.49.28,2.86,2.86,0,0,0,.81.11l.16-.94a1,1,0,0,1-.33-.07.46.46,0,0,1-.19-.14.47.47,0,0,1-.09-.21,1.49,1.49,0,0,1,0-.28Z"/><g class="cls-21"><rect class="cls-1" x="342.61" y="290.37" width="1.77" height="6.03"/></g><path class="cls-1" d="M345.51,293.61a.77.77,0,0,1,.14-.25.68.68,0,0,1,.23-.17.76.76,0,0,1,.33-.07.73.73,0,0,1,.33.07.7.7,0,0,1,.22.18.71.71,0,0,1,.13.25,1.19,1.19,0,0,1,0,.28h-1.51a1.64,1.64,0,0,1,.07-.29m0-1.29a1.8,1.8,0,0,0-.62.41,2,2,0,0,0-.43.67,2.47,2.47,0,0,0-.16.94,2.63,2.63,0,0,0,.13.83,1.76,1.76,0,0,0,.39.66,1.85,1.85,0,0,0,.67.44,2.54,2.54,0,0,0,.95.16l.43,0,.4-.06.34-.08.25-.09-.15-.93a2.32,2.32,0,0,1-.49.14,3.29,3.29,0,0,1-.62.06,1.33,1.33,0,0,1-.78-.21.76.76,0,0,1-.33-.56H348l0-.21c0-.08,0-.15,0-.22a2.17,2.17,0,0,0-.5-1.55,1.78,1.78,0,0,0-1.36-.53,1.93,1.93,0,0,0-.72.14"/><g class="cls-22"><rect class="cls-1" x="344.27" y="292.18" width="3.79" height="4.25"/></g><path class="cls-1" d="M353.45,295.39a1,1,0,0,1-.28-.12v-2.06l.21,0h.28a.83.83,0,0,1,.71.32,1.38,1.38,0,0,1,.24.85q0,1.1-.81,1.1a1.35,1.35,0,0,1-.35,0m-.21-3.17-.44,0-.42.07-.35.09v5.31h1.14v-1.52a2.11,2.11,0,0,0,.4.13,2,2,0,0,0,.44,0,1.78,1.78,0,0,0,.76-.15,1.52,1.52,0,0,0,.55-.43,1.92,1.92,0,0,0,.34-.66,3,3,0,0,0,.12-.85,2.55,2.55,0,0,0-.14-.87,1.76,1.76,0,0,0-1.07-1.09,2.48,2.48,0,0,0-.89-.15l-.43,0"/><g class="cls-23"><rect class="cls-1" x="352.03" y="292.2" width="3.75" height="5.54"/></g><path class="cls-1" d="M357.13,295.42a.39.39,0,0,1-.18-.37.4.4,0,0,1,.06-.23.42.42,0,0,1,.17-.15.79.79,0,0,1,.25-.07l.3,0,.25,0,.21,0v.87l-.25,0h-.32a1,1,0,0,1-.49-.1m0-3.22-.37,0-.33.06-.25.07.15.92a2.48,2.48,0,0,1,.49-.12,3.9,3.9,0,0,1,.57,0,.85.85,0,0,1,.61.18.63.63,0,0,1,.18.47v.11l-.28,0-.39,0a3.06,3.06,0,0,0-.64.07,1.71,1.71,0,0,0-.54.21,1.1,1.1,0,0,0-.38.39,1.18,1.18,0,0,0-.14.6,1.42,1.42,0,0,0,.12.62,1,1,0,0,0,.35.41,1.53,1.53,0,0,0,.55.23,3.36,3.36,0,0,0,.71.07,6.56,6.56,0,0,0,1.06-.07l.68-.13v-2.38a2.58,2.58,0,0,0-.08-.68,1.21,1.21,0,0,0-.29-.52,1.31,1.31,0,0,0-.54-.33,2.65,2.65,0,0,0-.84-.12l-.39,0"/><g class="cls-24"><rect class="cls-1" x="355.81" y="292.18" width="3.47" height="4.23"/></g><path class="cls-1" d="M349.41,292.2l-.37,0-.33.06-.25.07.15.92a2.47,2.47,0,0,1,.49-.12,3.9,3.9,0,0,1,.57,0l.25,0,.1-1h-.22l-.39,0"/><g class="cls-25"><rect class="cls-1" x="348.47" y="292.18" width="1.56" height="1.11"/></g><path class="cls-1" d="M350.23,293.27l.06,0a.63.63,0,0,1,.18.47v.11l-.28,0h0l-.08.75h.17l.21,0v.87l-.25,0H350l-.09.88a6.4,6.4,0,0,0,1-.07l.68-.13v-2.38a2.57,2.57,0,0,0-.08-.68,1.21,1.21,0,0,0-.29-.52,1.31,1.31,0,0,0-.54-.33l-.31-.07Z"/><g class="cls-26"><rect class="cls-1" x="349.9" y="292.23" width="1.67" height="4.18"/></g><path class="cls-1" d="M349.16,293.88a1.71,1.71,0,0,0-.54.21,1.09,1.09,0,0,0-.38.39,1.18,1.18,0,0,0-.14.6,1.41,1.41,0,0,0,.12.62,1,1,0,0,0,.35.41,1.53,1.53,0,0,0,.55.23,3.14,3.14,0,0,0,.46.06l.09-.89a.78.78,0,0,1-.27-.09.39.39,0,0,1-.18-.37.41.41,0,0,1,.06-.23.43.43,0,0,1,.17-.15.79.79,0,0,1,.25-.07h.07l.08-.78h-.06a3.05,3.05,0,0,0-.64.07"/><g class="cls-27"><rect class="cls-1" x="348.09" y="293.82" width="1.76" height="2.58"/></g></g></g></g></svg>